<svg xmlns="http://www.w3.org/2000/svg" width="264.74" height="197.463" viewBox="0 0 264.74 197.463"><defs><style>.a{fill:#002f9b;}.b{fill:#ff0064;}.c{fill:#f0f4f8;}.d{fill:none;}</style></defs><g transform="translate(-1227.925 -3895.019)"><path class="a" d="M1357.754,3967.986l-9,9.077a2.389,2.389,0,0,0,3.257,3.5c.041-.038.081-.078.119-.119l9.013-9.013a2.416,2.416,0,1,0-3.392-3.44Z"/><path class="a" d="M1405.32,4009.118a2.388,2.388,0,0,0-3.375-3.375l-9.013,9.013a2.388,2.388,0,0,0,3.256,3.495c.042-.039.081-.079.12-.12Z"/><path class="a" d="M1419.64,3947.548a7.962,7.962,0,1,0-5.637-2.324A7.96,7.96,0,0,0,1419.64,3947.548Zm-3.376-11.337a4.777,4.777,0,1,1,7.156,6.33,4.829,4.829,0,0,1-.4.405,4.888,4.888,0,0,1-6.752,0,4.776,4.776,0,0,1,0-6.751Z"/><path d="M1354.893,3965.049h22.644l4.634,4.634-8.472,12.532a2.389,2.389,0,0,0,3.312,3.312l12.533-8.472,4.633,4.634v22.644a2.389,2.389,0,0,0,4.141,1.688l19.666-19.746a2.388,2.388,0,0,0,.7-1.592l.159-18.185,7.962-6.226a36.137,36.137,0,0,0,12.294-17.357l8.392-26.673a3.52,3.52,0,0,0-4.427-4.427l-26.689,8.344a36.135,36.135,0,0,0-17.357,12.294l-6.226,7.962-18.185.159a2.388,2.388,0,0,0-1.592.7l-19.81,19.7a2.389,2.389,0,0,0,1.688,4.077Zm26.816-2.6,2.962-3.806,2.962,2.962-2.723,4.029Zm9.761,2.023,7.389-4.109-4.108,7.389-10.16,6.879Zm2.07,9.856,4.061-2.723,2.962,2.962-3.838,2.946Zm20.272,9.268-14.857,14.953v-16.689l15.016-11.688Zm24.124-53.042q-2.388-2.127-4.777-4.475c-1.592-1.561-3.041-3.185-4.459-4.777l13.5-4.252Zm-35.128,4.777a31.3,31.3,0,0,1,15.016-10.669l7.564-2.341c1.72,2.022,3.551,4.029,5.526,6s3.965,3.822,5.987,5.542l-2.388,7.484a31.309,31.309,0,0,1-10.717,15.08l-20.7,16.147-3.583-3.583,7.564-13.631a2.389,2.389,0,0,0-3.185-3.185l-13.631,7.564-3.583-3.583Zm-27.182,10.048,13.424-.128-11.688,15.017h-16.689Z"/><path class="a" d="M1378.43,3968.218c0-.006.005-.012.009-.018a2.366,2.366,0,0,0-1.266-.659l-.048,0a2.34,2.34,0,0,0-.382-.035,2.382,2.382,0,0,0-1.636.64l-5.637,5.637a.169.169,0,0,0,0,.018l-.039.04a2.382,2.382,0,0,0,.052,3.3c0,.007-.005.013-.009.019a2.375,2.375,0,0,0,1.266.658c.016,0,.033,0,.049.005a2.469,2.469,0,0,0,.381.035,2.381,2.381,0,0,0,1.636-.64l5.637-5.638s0-.012,0-.018l.04-.039A2.384,2.384,0,0,0,1378.43,3968.218Z"/><path class="b" d="M1297.617,3987.83l15.258,7.556s42.981-9.368,56.616,24.217c0,0,7.312,17.509-13.685,32.558v20.294H1338.96l-3.557-10.967h-15.118l-4.786,10.967h-14.807V4054.67s-14.385-14.291-13.31-16.007l-12.04-2.964v-15.8l12.337-2.876s8.241-14.228,13.013-15.413Z"/><path d="M1298.177,3985.668a2.49,2.49,0,0,1,.939.235l15.462,7.711a55.01,55.01,0,0,1,13.465-1.683c20.9,0,38.8,11.512,43.723,27.479a7.112,7.112,0,0,0,6.381-7.438,2.506,2.506,0,0,1,2.451-2.559,2.543,2.543,0,0,1,.328.015,2.5,2.5,0,0,1,2.231,2.544,12.363,12.363,0,0,1-10.295,12.291,29.8,29.8,0,0,1,.274,3.993c0,10.8-5.966,20.358-15.031,26.931v18.162a2.506,2.506,0,0,1-2.505,2.506h-16.284a2.5,2.5,0,0,1-2.426-1.84l-2.858-9.9a38.474,38.474,0,0,1-11.978,0l-2.857,9.9a2.507,2.507,0,0,1-2.427,1.84h-16.284a2.507,2.507,0,0,1-2.505-2.506v-18.084a37.721,37.721,0,0,1-11.43-12.839l-11.743-2.975a2.506,2.506,0,0,1-1.879-2.427v-16.283a2.5,2.5,0,0,1,1.879-2.427l11.038-2.78a36.868,36.868,0,0,1,11.665-13.935l-2-13.074a2.5,2.5,0,0,1,2.662-2.857Zm3.014,6.889,1.487,9.708a2.5,2.5,0,0,1-1.057,2.427,32.117,32.117,0,0,0-11.743,13.935,2.506,2.506,0,0,1-1.683,1.487l-10.256,2.584v12.369l10.882,2.74a2.5,2.5,0,0,1,1.644,1.331,32.82,32.82,0,0,0,11.43,12.839,2.5,2.5,0,0,1,1.1,2.075v16.792h11.861l2.9-10.06a2.506,2.506,0,0,1,2.78-1.8,48.392,48.392,0,0,0,15.031,0,2.505,2.505,0,0,1,2.779,1.8l2.9,10.06h11.861v-16.792a2.5,2.5,0,0,1,1.1-2.075c8.644-5.832,13.935-14.332,13.935-23.721,0-16.973-17.637-31.315-40.083-31.315a50.025,50.025,0,0,0-13.191,1.723,2.513,2.513,0,0,1-1.8-.157l-11.86-5.95Zm26.852,8.142a43.007,43.007,0,0,1,15.971,2.975,2.511,2.511,0,1,1-1.854,4.668l-.025-.01a37.969,37.969,0,0,0-14.092-2.623,39.111,39.111,0,0,0-9.433,1.135,2.516,2.516,0,1,1-1.2-4.886l.026-.007A43.828,43.828,0,0,1,1328.043,4000.7Zm-25.052,15.031a5.01,5.01,0,1,1-5.01,5.01A5.011,5.011,0,0,1,1302.991,4015.73Z"/><rect class="c" width="13.98" height="12.068" transform="translate(1412.291 3933.188)"/><path class="b" d="M1427.1,3932.9a10.12,10.12,0,0,0-14.523-.624,10.337,10.337,0,0,0,14.045,15.153A10.122,10.122,0,0,0,1427.1,3932.9Zm-6.8,6.3a3.044,3.044,0,0,1-3.833,4.677l-.376.349a.827.827,0,0,1-1.144-.021l-.023-.023a.825.825,0,0,1,.044-1.166l.381-.352a3.068,3.068,0,0,1,.594-3.652.825.825,0,1,1,1.13,1.2,1.454,1.454,0,0,0,1.975,2.131,1.428,1.428,0,0,0,.041-2.022,3.054,3.054,0,0,1,2.276-5.169,3.1,3.1,0,0,1,1.553.493l.379-.351a.809.809,0,0,1,1.166.044.824.824,0,0,1-.044,1.166l-.377.349a3.03,3.03,0,0,1-.594,3.694.836.836,0,0,1-1.166-.052.824.824,0,0,1,.053-1.165,1.492,1.492,0,0,0-1.027-2.528A1.4,1.4,0,0,0,1420.3,3939.2Z"/><path d="M1419.905,3950.448a10.832,10.832,0,0,1-10.857-10.93,10.615,10.615,0,0,1,3.179-7.6,10.4,10.4,0,0,1,7.5-2.914,10.885,10.885,0,0,1,7.741,3.555h0a10.876,10.876,0,0,1,2.958,8.006,10.233,10.233,0,0,1-3.472,7.239A10.641,10.641,0,0,1,1419.905,3950.448Zm-.437-20.444a9.4,9.4,0,0,0-6.542,2.632,9.623,9.623,0,0,0-2.878,6.888,9.824,9.824,0,0,0,16.244,7.531,9.237,9.237,0,0,0,3.133-6.538,10.124,10.124,0,0,0-9.725-10.51C1419.623,3930,1419.545,3930,1419.468,3930Z"/><path d="M1328.043,4000.7a43.007,43.007,0,0,1,15.971,2.975,2.511,2.511,0,1,1-1.854,4.668l-.025-.01a37.969,37.969,0,0,0-14.092-2.623,39.111,39.111,0,0,0-9.433,1.135,2.516,2.516,0,1,1-1.2-4.886l.026-.007A43.828,43.828,0,0,1,1328.043,4000.7Z"/><circle cx="5.01" cy="5.01" r="5.01" transform="translate(1297.981 4015.73)"/><path d="M1322.179,3984.661h-1.843v-1.842a1,1,0,0,0-2,0v1.842h-1.843a1,1,0,1,0,0,2h1.843v1.842a1,1,0,0,0,2,0v-1.842h1.843a1,1,0,0,0,0-2Z"/><path d="M1370.724,3996.033a1,1,0,0,0-1,1v2.666h-2.669a1,1,0,1,0,0,2h2.669v2.666a1,1,0,0,0,2,0V4001.7h2.668a1,1,0,0,0,0-2h-2.668v-2.666A1,1,0,0,0,1370.724,3996.033Z"/><path d="M1366.055,4053.592a1,1,0,0,0-1,1v2.666h-2.668a1,1,0,0,0,0,2h2.668v2.667a1,1,0,0,0,2,0v-2.667h2.669a1,1,0,0,0,0-2h-2.669v-2.666A1,1,0,0,0,1366.055,4053.592Z"/><path d="M1342.056,3982.075l-1.533-.837a8.082,8.082,0,0,1-3.219-3.217l-.838-1.532a1.041,1.041,0,0,0-1.755,0l-.838,1.532a8.082,8.082,0,0,1-3.219,3.217l-1.533.837a1,1,0,0,0,0,1.756l1.533.838a8.067,8.067,0,0,1,3.218,3.217l.839,1.532a1,1,0,0,0,1.755,0l.838-1.532a8.076,8.076,0,0,1,3.219-3.217l1.533-.838a1,1,0,0,0,0-1.756Zm-6.468,4.78a3.9,3.9,0,1,1,0-7.8,3.9,3.9,0,1,1,0,7.8Z"/><path d="M1388.6,4036.984l-1.564-.853a8.263,8.263,0,0,1-3.292-3.291l-.855-1.563a1,1,0,0,0-1.754,0l-.856,1.564a8.258,8.258,0,0,1-3.292,3.289l-1.564.854a1,1,0,0,0,0,1.756l1.564.854a8.261,8.261,0,0,1,3.292,3.291l.856,1.562a1,1,0,0,0,1.754,0l.855-1.563a8.255,8.255,0,0,1,3.292-3.289l1.564-.855a1,1,0,0,0,0-1.756Zm-6.588,4.9a4.021,4.021,0,1,1,0-8.043,4.021,4.021,0,1,1,0,8.043Z"/><path d="M1275.162,4000.367a9.136,9.136,0,0,1,3.644,3.642l.938,1.712a1,1,0,0,0,1.754,0l.937-1.711a9.144,9.144,0,0,1,3.644-3.643l1.713-.936a1,1,0,0,0,0-1.754l-1.713-.938a9.137,9.137,0,0,1-3.644-3.64l-.937-1.712a1,1,0,0,0-1.754,0l-.938,1.712a9.142,9.142,0,0,1-3.644,3.642l-1.712.937a1,1,0,0,0,0,1.754Zm.959-1.873a11.147,11.147,0,0,0,4.44-4.436l.06-.11.059.11a11.144,11.144,0,0,0,4.44,4.435l.108.06-.108.058a11.158,11.158,0,0,0-4.44,4.438l-.059.108-.06-.109a11.148,11.148,0,0,0-4.44-4.436l-.107-.059Z"/><rect class="d" width="264.74" height="197.463" transform="translate(1227.925 3895.019)"/></g></svg>