<svg xmlns="http://www.w3.org/2000/svg" width="110" height="110" viewBox="0 0 110 110"><defs><style>.a{fill:#023e88;}.b{fill:none;}</style></defs><g transform="translate(-905 -1057.154)"><path class="a" d="M952.187,1159.029h15.625a1.562,1.562,0,0,0,1.563-1.562v-14.66l2.261-1.131a1.562,1.562,0,0,0,.864-1.4V1130.9a6.263,6.263,0,0,0-5.382-6.191,7.65,7.65,0,0,0,.694-3.184,7.813,7.813,0,0,0-15.625,0,7.666,7.666,0,0,0,.694,3.184,6.262,6.262,0,0,0-5.381,6.191v9.375a1.565,1.565,0,0,0,.864,1.4l2.261,1.129v14.66A1.562,1.562,0,0,0,952.187,1159.029Zm-1.562-28.125a3.128,3.128,0,0,1,3.125-3.125H955.9a1.561,1.561,0,0,0,1.028-2.737,4.63,4.63,0,0,1-1.62-3.513,4.688,4.688,0,0,1,9.375,0,4.615,4.615,0,0,1-1.622,3.511,1.563,1.563,0,0,0,1.03,2.739h2.155a3.129,3.129,0,0,1,3.125,3.125v8.409l-2.261,1.132a1.559,1.559,0,0,0-.864,1.4V1155.9h-12.5v-14.062a1.566,1.566,0,0,0-.864-1.4l-2.261-1.13Z"/><path class="a" d="M958.437,1138.717h3.125v-5.284l2.261-1.13-1.4-2.8L960,1130.72l-2.427-1.214-1.4,2.8,2.261,1.13Z"/><path class="a" d="M922.5,1159.029h15.625a1.562,1.562,0,0,0,1.562-1.562v-34.375h6.25a1.562,1.562,0,0,0,1.2-2.563l-15.625-18.75a1.617,1.617,0,0,0-2.4,0l-15.625,18.75a1.562,1.562,0,0,0,1.2,2.563h6.25v34.375A1.562,1.562,0,0,0,922.5,1159.029Zm-4.477-39.062,12.289-14.747,12.289,14.747h-4.476a1.562,1.562,0,0,0-1.563,1.562V1155.9h-12.5v-34.375a1.562,1.562,0,0,0-1.562-1.562Z"/><path class="a" d="M977.04,1105a1.557,1.557,0,0,0-.215-1.662l-15.625-18.75a1.617,1.617,0,0,0-2.4,0l-15.625,18.75a1.561,1.561,0,0,0,1.2,2.562h6.25v7.813h3.125v-9.375a1.563,1.563,0,0,0-1.563-1.563h-4.476L960,1088.032l12.289,14.747h-4.477a1.562,1.562,0,0,0-1.562,1.563v9.375h3.125V1105.9h6.25A1.564,1.564,0,0,0,977.04,1105Z"/><path class="a" d="M981.875,1159.029H997.5a1.562,1.562,0,0,0,1.562-1.562v-70.313h6.25a1.561,1.561,0,0,0,1.2-2.562l-15.625-18.75a1.617,1.617,0,0,0-2.4,0l-15.625,18.75a1.562,1.562,0,0,0,1.2,2.562h6.25v70.313A1.562,1.562,0,0,0,981.875,1159.029Zm-4.477-75,12.289-14.747,12.289,14.747H997.5a1.563,1.563,0,0,0-1.563,1.563V1155.9h-12.5v-70.312a1.562,1.562,0,0,0-1.562-1.563Z"/><path class="a" d="M917.812,1077.779h3.125v-4.687h4.688v-3.125h-4.687v-4.687h-3.125v4.688h-4.687v3.125h4.688Z"/><path class="a" d="M936.562,1080.9h4.688v4.688h3.125V1080.9h4.688v-3.125h-4.687v-4.687H941.25v4.688h-4.687Z"/><rect class="a" width="3.125" height="3.125" transform="translate(914.687 1096.529)"/><rect class="a" width="3.125" height="3.125" transform="translate(966.25 1066.842)"/><rect class="a" width="3.125" height="3.125" transform="translate(1003.75 1154.342)"/><rect class="b" width="110" height="110" transform="translate(905 1057.154)"/></g></svg>