<svg xmlns="http://www.w3.org/2000/svg" width="110" height="110" viewBox="0 0 110 110"><defs><style>.a{fill:#023e88;}.b{fill:#fff;}.c{fill:none;}</style></defs><g transform="translate(-1305.093 -1056.691)"><path class="a" d="M1316.627,1117.449h0v22.727a1.212,1.212,0,0,0,2.424,0v-22.727h0V1087.3l3.031,3.334a1.189,1.189,0,0,0,1.666,0,1.378,1.378,0,0,0,.152-1.667l-5-5.454a1.069,1.069,0,0,0-1.667,0l-.151.151-5.152,5.3a1.082,1.082,0,0,0,.152,1.667,1.189,1.189,0,0,0,1.666,0l3.031-3.334v30.152Z"/><path class="a" d="M1324.809,1068.207h-2.727a5.592,5.592,0,0,0-5.606,5.606v3.636a1.212,1.212,0,1,0,2.424,0v-3.788a3.363,3.363,0,0,1,3.333-3.333h2.576a1.2,1.2,0,0,0,1.212-1.212A1.318,1.318,0,0,0,1324.809,1068.207Z"/><path class="a" d="M1387.991,1152.9H1340.4l3.334-3.031a1.178,1.178,0,1,0-1.667-1.666l-5.3,4.848a1.146,1.146,0,0,0-.152,1.818l5.455,5a1.238,1.238,0,0,0,1.667-1.818l-3.334-3.03h47.587a1.2,1.2,0,0,0,1.212-1.212C1389.2,1153.358,1388.6,1152.9,1387.991,1152.9Z"/><path class="a" d="M1383.294,1063.51a1.2,1.2,0,0,0-1.667.151,1.174,1.174,0,0,0,.152,1.515l3.333,3.031h-52.879a1.212,1.212,0,1,0,0,2.424h52.879l-3.333,3.03c-.455.152-.455.909-.152,1.364a1.177,1.177,0,0,0,1.667,0c.151-.152,5.909-5.3,5.454-5a1.062,1.062,0,0,0,0-1.667Z"/><path class="a" d="M1395.415,1070.479h2.727a3.363,3.363,0,0,1,3.334,3.334v3.636a1.212,1.212,0,1,0,2.424,0v-3.788a5.593,5.593,0,0,0-5.606-5.606h-2.727a1.2,1.2,0,0,0-1.213,1.212A1.171,1.171,0,0,0,1395.415,1070.479Z"/><path class="a" d="M1408.142,1133.813a1.08,1.08,0,0,0-1.666.151l-3.031,3.333v-53.03a1.212,1.212,0,0,0-2.424,0v52.879l-3.03-3.333a1.378,1.378,0,0,0-1.667-.152,1.19,1.19,0,0,0,0,1.667c.152.151,5.3,5.909,5,5.454a1.062,1.062,0,0,0,1.667,0l5-5.454A.821.821,0,0,0,1408.142,1133.813Z"/><path class="a" d="M1401.324,1145.934v3.636a3.364,3.364,0,0,1-3.333,3.334h-2.727a1.212,1.212,0,1,0,0,2.424h2.727a5.593,5.593,0,0,0,5.606-5.606v-3.637A1.14,1.14,0,1,0,1401.324,1145.934Z"/><path class="a" d="M1360.385,1105.964h3.622v-2.415h-2.016l2.016-6.918-2.414-.652-2.415,8.451a1.2,1.2,0,0,0,1.207,1.534Z"/><path class="a" d="M1360.385,1108.378v2.415h1.413a9.573,9.573,0,0,0,6.689-2.765l-1.715-1.714a7.038,7.038,0,0,1-4.974,2.064Z"/><circle class="a" cx="2.415" cy="2.415" r="2.415" transform="translate(1353.141 1095.097)"/><circle class="a" cx="2.415" cy="2.415" r="2.415" transform="translate(1367.63 1095.097)"/><path class="a" d="M1379.933,1121.756l-8.681-1.207v-4.286a13.416,13.416,0,0,0,3.368-3.973,21.165,21.165,0,0,0,2.669-8.9,4.829,4.829,0,0,0,.422-9.212l1.027-6.206a6.316,6.316,0,0,0-5.121-7.317c-.108-.019-.216-.035-.325-.048a6.5,6.5,0,0,0-5.856-3.623h-13.643l-2.065-3.078a1.2,1.2,0,0,0-1.859-.194l-1.207,1.208a9.756,9.756,0,0,0-.351,13.39v5.747a4.83,4.83,0,0,0,0,9.333,21.179,21.179,0,0,0,2.62,8.9,13.42,13.42,0,0,0,3.417,3.973v4.334l-8.681,1.208a10.865,10.865,0,0,0-9.429,10.721v13.281h2.414v-13.281a8.452,8.452,0,0,1,7.329-8.367l6.327-.845,2.04,8.3a1.209,1.209,0,0,0,.737.833,1.1,1.1,0,0,0,.471.084,1.211,1.211,0,0,0,.664-.2l2.318-1.533.64,1.883-1.207,13.028,2.414.217,1.1-12.182h2.632l1.1,12.182,2.415-.217-1.208-13.028.628-1.883,2.318,1.533a1.208,1.208,0,0,0,.676.2,1.12,1.12,0,0,0,.435-.084,1.211,1.211,0,0,0,.737-.833l2.076-8.3,6.327.845a8.451,8.451,0,0,1,7.329,8.367v13.281h2.415v-13.281A10.867,10.867,0,0,0,1379.933,1121.756Zm-1.437-23.037a2.416,2.416,0,0,1-1.207,2.077v-4.153A2.414,2.414,0,0,1,1378.5,1098.719Zm-28.12-22.083.157-.169,1.606,2.415a1.207,1.207,0,0,0,1,.519h14.3a4.069,4.069,0,0,1,3.876,2.8,1.206,1.206,0,0,0,1.147.821,3.9,3.9,0,0,1,3.852,4.552l-.761,4.552-3.3-4.938a1.208,1.208,0,0,0-1-.544h-21.166A7.3,7.3,0,0,1,1350.376,1076.636Zm-3.272,22.083a2.414,2.414,0,0,1,1.207-2.076v4.153A2.416,2.416,0,0,1,1347.1,1098.719Zm6.037,12.4a18.93,18.93,0,0,1-2.415-9.14V1089.06H1370.6l4.274,6.4v6.52a18.917,18.917,0,0,1-2.415,9.14,11.108,11.108,0,0,1-19.415,0Zm9.659,8.126a13.407,13.407,0,0,0,6.037-1.461v3.876l-6.037,3.453-6.037-3.453V1117.8A13.416,13.416,0,0,0,1362.8,1119.245Zm-8.005,4.057,5.711,3.272-4.19,2.789Zm9.551,8.017h-3.091l-.64-1.92,2.185-1.461,2.185,1.461Zm4.938-1.956-4.19-2.789,5.711-3.272Z"/><rect class="a" width="2.415" height="9.659" transform="translate(1345.897 1136.148)"/><rect class="a" width="2.415" height="9.659" transform="translate(1377.289 1136.148)"/><path d="M1386.321,1117.784"/><path class="b" d="M1389.94,1101.332l-15.066,21.97-4.069-1.018-2.855,2.654v1.394H1350s-.26-4.668-4.935-4.42-3.068,6.731-1.937,7.42l-14.719,22,8.986-4.836,56.652.873Z"/><path class="a" d="M1392.132,1093.332a4.995,4.995,0,0,0-3.594,8.469l-14.468,19.938a4.943,4.943,0,0,0-1.938-.407,5.033,5.033,0,0,0-4.906,4h-16.188a5,5,0,1,0-8.5,4.469l-14.468,19.937h-.032a4.939,4.939,0,0,0-1.906-.406,5,5,0,1,0,5,5,4.966,4.966,0,0,0-1.437-3.469l14.468-19.906a4.945,4.945,0,0,0,1.969.375,5,5,0,0,0,4.906-4h16.188a5,5,0,1,0,8.469-4.468l14.468-19.907a4.945,4.945,0,0,0,1.969.375,5,5,0,0,0,0-10Zm0,2a3,3,0,1,1-3,3A2.985,2.985,0,0,1,1392.132,1095.332Zm-46,28a3,3,0,1,1-3,3A2.985,2.985,0,0,1,1346.132,1123.332Zm26,0a3,3,0,1,1-3,3A2.985,2.985,0,0,1,1372.132,1123.332Zm-46,28a3,3,0,1,1-3,3A2.985,2.985,0,0,1,1326.132,1151.332Z"/><rect class="c" width="110" height="110" transform="translate(1305.093 1056.691)"/></g></svg>