<svg xmlns="http://www.w3.org/2000/svg" width="264.74" height="197.463" viewBox="0 0 264.74 197.463"><defs><style>.a{fill:#ff0064;}.b{fill:#023e88;}.c{fill:none;}</style></defs><g transform="translate(-828.291 -3895.019)"><path class="a" d="M889.348,4000.577s-3.142-23.114,17.1-24.574q.571-.04,1.166-.059s10.931-2.818,11.935-8.165l2.809-1.6h8.659s1.773,8.093,14.041,10.765c0,0,17.718-.234,15.412,23.636Z"/><path d="M952.373,4028.793l-3.856-.68a17.485,17.485,0,0,0-1.814-4.31l2.268-3.4a2.4,2.4,0,0,0-.227-2.949l-5.9-5.9a2.379,2.379,0,0,0-2.949-.227l-3.4,2.268a24.578,24.578,0,0,0-4.31-1.814l-.68-4.083a2.208,2.208,0,0,0-2.268-1.814h-8.393a2.208,2.208,0,0,0-2.268,1.814l-.68,4.083a17.49,17.49,0,0,0-4.31,1.814l-3.4-2.268a2.4,2.4,0,0,0-2.949.227l-5.217,5.671a2.378,2.378,0,0,0-.227,2.948l2.268,3.4a24.651,24.651,0,0,0-1.814,4.31l-3.856.681a2.209,2.209,0,0,0-1.815,2.268v8.392a2.209,2.209,0,0,0,1.815,2.268l3.856.681a17.518,17.518,0,0,0,1.814,4.309l-2.268,3.176a2.4,2.4,0,0,0,.227,2.948l5.9,5.9a2.379,2.379,0,0,0,2.949.227l3.4-2.269a24.58,24.58,0,0,0,4.31,1.815l.68,4.083a2.209,2.209,0,0,0,2.269,1.814h8.392a2.208,2.208,0,0,0,2.268-1.814l.681-3.856a17.516,17.516,0,0,0,4.309-1.815l3.4,2.268a2.4,2.4,0,0,0,2.948-.226l5.9-5.9a2.375,2.375,0,0,0,.227-2.948l-2.268-3.4a24.591,24.591,0,0,0,1.815-4.309l3.856-.681a2.208,2.208,0,0,0,1.814-2.268v-8.392A4.405,4.405,0,0,0,952.373,4028.793Zm-2.722,8.62-3.629.68a2.46,2.46,0,0,0-1.814,1.815,17.492,17.492,0,0,1-2.269,5.67,2.46,2.46,0,0,0,0,2.5l2.042,2.949L940.8,4054.2l-2.948-2.041a2.455,2.455,0,0,0-2.495,0,17.51,17.51,0,0,1-5.671,2.268,2.459,2.459,0,0,0-1.814,1.815l-.681,3.4H922.66l-.681-3.629a2.461,2.461,0,0,0-1.814-1.815,24.683,24.683,0,0,1-5.671-2.268,2.456,2.456,0,0,0-2.495,0l-2.948,2.041-2.722-3.4,2.041-2.949a2.455,2.455,0,0,0,0-2.495,17.481,17.481,0,0,1-2.268-5.67,2.463,2.463,0,0,0-1.815-1.815l-3.4-.68v-4.537l3.4-.68a2.592,2.592,0,0,0,1.815-1.588,18.033,18.033,0,0,1,2.495-5.67,2.455,2.455,0,0,0,0-2.495l-2.042-2.722,3.176-3.176,2.949,2.042a2.451,2.451,0,0,0,2.495,0,17.484,17.484,0,0,1,5.67-2.268,2.464,2.464,0,0,0,1.815-1.815l.68-3.629h4.537l.68,3.629a2.462,2.462,0,0,0,1.815,1.815,24.675,24.675,0,0,1,5.67,2.268,2.461,2.461,0,0,0,2.495,0l2.949-2.042,3.175,3.176-2.041,2.949a2.455,2.455,0,0,0,0,2.495,17.5,17.5,0,0,1,2.268,5.67,2.462,2.462,0,0,0,1.815,1.815l3.4.68Z"/><path d="M925.382,4019.04a15.877,15.877,0,1,0,15.877,15.877A15.78,15.78,0,0,0,925.382,4019.04Zm0,27.218a11.373,11.373,0,0,1-11.341-11.341,11.231,11.231,0,0,1,11.341-11.341,11.341,11.341,0,0,1,0,22.682Z"/><path d="M963.261,4001.348v-8.165a18.7,18.7,0,0,0-17.919-18.6c-2.495-.453-8.846-2.5-10.888-5.9a6.287,6.287,0,0,1-.68-2.949,16.685,16.685,0,0,0,7.258-12.021,8.377,8.377,0,0,0,5.9-8.166,8.5,8.5,0,0,0-3.175-6.8c.454-3.4.68-10.888-3.4-14.517-1.361-1.361-3.856-2.5-7.939-1.587a15.658,15.658,0,0,0-11.568-2.5,16.927,16.927,0,0,0-12.929,14.743,12.378,12.378,0,0,0,0,4.083,8.5,8.5,0,0,0-3.175,6.8,8.378,8.378,0,0,0,5.9,8.166,15.746,15.746,0,0,0,7.032,11.794,7.307,7.307,0,0,1-1.815,4.31c-2.041,2.495-5.67,4.083-10.66,4.536a18.594,18.594,0,0,0-18.146,18.6v8.165a2.143,2.143,0,0,0,2.268,2.268h71.675A2.143,2.143,0,0,0,963.261,4001.348Zm-50.808-65.778a12.066,12.066,0,0,1,9.526-10.433,11.385,11.385,0,0,1,8.619,2.041,2.317,2.317,0,0,0,2.042.454c3.175-.908,4.536,0,4.763.453,2.041,1.815,2.268,6.351,2.041,9.527-1.587-1.134-2.721-4.083-2.721-4.083a2.742,2.742,0,0,0-1.588-1.588,2.3,2.3,0,0,0-2.268.681c-7.259,7.258-17.012,6.577-20.641,5.9A11.98,11.98,0,0,1,912.453,3935.57Zm2.722,16.558a2.143,2.143,0,0,0-2.269-2.268,3.844,3.844,0,0,1-3.629-4.083,3.805,3.805,0,0,1,1.361-3.175,30.529,30.529,0,0,0,6.124.68,27.667,27.667,0,0,0,16.785-5.443c1.361,2.495,3.856,4.763,7.032,4.763a4.432,4.432,0,0,1,1.587,3.4,3.843,3.843,0,0,1-3.629,4.083,2.143,2.143,0,0,0-2.268,2.268c0,6.351-4.763,11.795-10.887,11.795C919.711,3963.7,915.175,3958.252,915.175,3952.128Zm43.549,46.952H891.812v-5.9a14.134,14.134,0,0,1,14.063-14.063h.68c6.125-.681,10.434-2.949,13.156-6.351a16.972,16.972,0,0,0,2.495-4.99,10.724,10.724,0,0,0,3.4.453,11.915,11.915,0,0,0,3.856-.453,20.019,20.019,0,0,0,1.134,3.4c3.176,4.99,10.661,7.258,13.383,7.712a1.362,1.362,0,0,0,.907.227,14.134,14.134,0,0,1,14.063,14.063v5.9Z"/><path d="M1016.79,4038.547c-2.495-.454-8.846-2.5-10.887-5.9a6.271,6.271,0,0,1-.681-2.948,16.687,16.687,0,0,0,7.258-12.022,8.375,8.375,0,0,0,5.9-8.165,8.5,8.5,0,0,0-3.176-6.8c.454-3.4.681-10.887-3.4-14.516-1.361-1.361-3.856-2.5-7.939-1.588a15.66,15.66,0,0,0-11.568-2.495,16.645,16.645,0,0,0-13.155,14.516v4.31a8.505,8.505,0,0,0-3.176,6.8,8.377,8.377,0,0,0,5.9,8.166,15.744,15.744,0,0,0,7.031,11.795,7.3,7.3,0,0,1-1.814,4.309c-2.042,2.495-5.671,4.083-10.661,4.537a18.593,18.593,0,0,0-18.146,18.6v8.165a2.144,2.144,0,0,0,2.269,2.269h71.448a2.143,2.143,0,0,0,2.268-2.269v-8.165A18.007,18.007,0,0,0,1016.79,4038.547Zm-33.116-39.24a12.07,12.07,0,0,1,9.527-10.434,11.39,11.39,0,0,1,8.619,2.041,2.312,2.312,0,0,0,2.041.454c3.176-.907,4.537,0,4.764.454,2.041,1.814,2.268,6.351,2.041,9.526-1.588-1.134-2.722-4.083-2.722-4.083a2.737,2.737,0,0,0-1.588-1.587,2.3,2.3,0,0,0-2.268.68c-7.258,7.258-16.785,6.578-20.64,5.9A12.972,12.972,0,0,0,983.674,3999.307Zm2.722,16.558a2.143,2.143,0,0,0-2.268-2.269,4.2,4.2,0,0,1-2.268-7.258,30.5,30.5,0,0,0,6.124.681,27.665,27.665,0,0,0,16.785-5.444c1.361,2.5,3.856,4.763,7.031,4.763a4.436,4.436,0,0,1,1.588,3.4,3.843,3.843,0,0,1-3.629,4.083,2.143,2.143,0,0,0-2.269,2.268c0,7.032-5.9,12.929-12.7,11.568C990.025,4026.3,986.4,4021.308,986.4,4015.865Zm43.776,47.178H963.261v-5.9a14.133,14.133,0,0,1,14.062-14.063H978c5.9-.68,10.434-2.949,13.155-6.351a16.945,16.945,0,0,0,2.495-4.99,14.78,14.78,0,0,0,7.032.227h.227a19.852,19.852,0,0,0,1.134,3.4c3.175,4.99,10.66,7.258,13.382,7.712a1.363,1.363,0,0,0,.907.227,14.134,14.134,0,0,1,14.063,14.063v5.67Z"/><path d="M965.756,3975.944h62.829a2.268,2.268,0,0,0,0-4.536h-4.764V3945.55a2.268,2.268,0,1,0-4.536,0v25.858H1007.49V3954.4a2.268,2.268,0,1,0-4.536,0v17.012H991.159v-28.126a2.268,2.268,0,1,0-4.536,0v28.126H974.828v-12.475a2.268,2.268,0,1,0-4.536,0v12.475h-4.763a2.143,2.143,0,0,0-2.268,2.268A2.884,2.884,0,0,0,965.756,3975.944Z"/><path class="b" d="M972.333,3950.087a8.036,8.036,0,0,0,7.939-7.939,7.251,7.251,0,0,0-.68-3.175l4.99-4.31a8.179,8.179,0,0,0,4.536,1.361,8.553,8.553,0,0,0,4.763-1.588l4.31,3.4a6.976,6.976,0,0,0-.681,2.948,7.939,7.939,0,0,0,15.878,0,2.877,2.877,0,0,0-.227-1.361l2.722-1.361a7.37,7.37,0,0,0,5.67,2.5,7.938,7.938,0,1,0-7.938-7.938,4.439,4.439,0,0,0,.226,1.587l-2.721,1.361a7.376,7.376,0,0,0-5.671-2.5,8.179,8.179,0,0,0-4.536,1.361l-4.31-3.629a11.37,11.37,0,0,0,.454-2.722,7.939,7.939,0,0,0-15.878,0,6.275,6.275,0,0,0,.681,2.949l-5.217,4.309a6.981,6.981,0,0,0-4.31-1.36,8.053,8.053,0,0,0,0,16.1Zm49.22-20.868a3.4,3.4,0,1,1-3.4,3.4A3.341,3.341,0,0,1,1021.553,3929.219Zm-13.155,10.207h0a3.279,3.279,0,0,1,.453,1.588,3.4,3.4,0,1,1-3.4-3.4A3.54,3.54,0,0,1,1008.4,3939.426Zm-19.28-14.743a3.4,3.4,0,1,1-3.4,3.4A3.488,3.488,0,0,1,989.118,3924.683Zm-16.785,14.063a3.4,3.4,0,1,1-3.4,3.4A3.214,3.214,0,0,1,972.333,3938.746Z"/><rect class="c" width="264.74" height="197.463" transform="translate(828.291 3895.019)"/></g></svg>