<svg xmlns="http://www.w3.org/2000/svg" xmlns:xlink="http://www.w3.org/1999/xlink" width="228.682" height="313.626" viewBox="0 0 228.682 313.626"><defs><style>.a{fill:none;}.b{stroke:#fff;stroke-miterlimit:10;}.c{fill:#fff;}.d{fill:url(#a);}.e{fill:#ff0064;}.f{clip-path:url(#b);}</style><linearGradient id="a" y1="0.5" x2="1" y2="0.5" gradientUnits="objectBoundingBox"><stop offset="0" stop-color="#fff"/><stop offset="1" stop-color="#fff"/></linearGradient><clipPath id="b"><path class="a" d="M1058.358,3197.2v-54.523s5.17-12.394,12.394-12.394l-2.381-24.713L989.5,3108.33l-2.044,64.559,3.2,19.293Z"/></clipPath></defs><g transform="translate(-959.999 -2950.55)"><path class="b" d="M1072.8,2959.857l-.2,2.955a4.015,4.015,0,0,1-1.986,3.154,10.043,10.043,0,0,1-4.818,1.614H1049.8a19.486,19.486,0,0,0-19.022,15.632,19.725,19.725,0,0,0-.4,3.937v14.577c0,.458.012.587.012.174,0-.242-.012-.259-.012.186v6.283a3.107,3.107,0,0,0,0,.708v12.677a32.579,32.579,0,0,0,7.313,20.45v17.135l-.211.795-36.033,20.525a29.524,29.524,0,0,0-14.913,25.628v35.2H1059.7v.05h6.358v-.05h73.01v-35.909a28.11,28.11,0,0,0-10.79-22.188,44.412,44.412,0,1,0-33.053-80.461v-.844c0-.362-.009-.3-.013-.149s.013.239.013-.174v-21.555l-.025-.211c-.716-5.48-2.4-10.437-5.613-14.168a17.711,17.711,0,0,0-13.832-5.948v-.024Zm4.122,6.829c3.381.28,6.028,1.164,7.848,3.278,2.07,2.4,3.481,6.141,4.1,10.778v21c0-.388-.007-.27-.012.149,0,.49.012.5.012.186v1.515a17.862,17.862,0,0,0-5.252-1.912c-4.262-.781-8.676-.439-12.913-.261s-8.272.2-11.573-.707a12.378,12.378,0,0,1-8.071-6.3,3.18,3.18,0,0,0-2.93-1.577v.013a3.179,3.179,0,0,0-2.893,2.347c.089-.331-.505.918-1.515,2.11a40.631,40.631,0,0,1-3.849,3.9,34.9,34.9,0,0,1-3.129,2.409v-1.54c0,.35.01.265.012-.173,0-.528-.012-.5-.012-.187v-14.577a13.035,13.035,0,0,1,13.062-13.211h16.4a15.867,15.867,0,0,0,8.071-2.769C1075.647,2970.19,1076.065,2968.261,1076.922,2966.686Zm-28.21,34.506a19.7,19.7,0,0,0,8.729,5.65c4.536,1.249,9.195,1.124,13.534.943s8.39-.417,11.5.149c2.892.533,4.824,1.529,6.394,3.924v9.884a26.064,26.064,0,1,1-52.125,0V3011.15a20.366,20.366,0,0,0,2.26-1.279,40.527,40.527,0,0,0,5.091-3.924,46.272,46.272,0,0,0,4.482-4.532C1048.637,3001.339,1048.651,3001.262,1048.712,3001.192Zm73.9.571a38.11,38.11,0,0,1-3.315,76.127l-31.39-17.88V3042.2a32.574,32.574,0,0,0,7.314-20.45v-10.79A38.1,38.1,0,0,1,1122.616,3001.763Zm-78.561,46.588a31.827,31.827,0,0,0,37.5,0v15.185c-2.963,5.507-5.589,11.422-12.268,17.1l-6.407,5.948-6.469-6.3c-5.1-5.525-9.965-12.062-12.355-18.314Zm-8.915,20.437-4.743,17.471-.025.211c-.649,5.355,5.048,9.8,9.971,7.475h.025l13.881-6.879,5.377,5.2v42.862H1022.14v-22.263h-6.358v22.263H992.9v-28.844a23.211,23.211,0,0,1,11.7-20.1Zm56.3.547,30.185,17.2a21.919,21.919,0,0,1,11.088,19.047v29.552h-22.735v-22.263h-6.358v22.263h-37.56v-42.825l5.711-5.29,14.677,6.941h.025a7.336,7.336,0,0,0,10.157-7.487l-.038-.3-.086-.273s-1.941-6.027-3.8-12.181C1092.228,3072.141,1091.869,3070.825,1091.438,3069.335Zm-50.114.906a69.933,69.933,0,0,0,8.356,11.982l-12.057,5.973c-.587.28-1-.063-.918-.919Zm43.781.087c.5,1.745.952,3.387,1.515,5.252,1.8,5.953,3.491,11.252,3.65,11.747.049.76-.435,1.193-1.179.856l-12.889-6.1A55.588,55.588,0,0,0,1085.1,3070.328Zm-7.686,35.239a3.649,3.649,0,0,0-3.65,3.647v0a3.65,3.65,0,1,0,3.654-3.65Zm0,14.577a3.645,3.645,0,1,0,0,7.289h0a3.649,3.649,0,0,0,3.651-3.647v0A3.649,3.649,0,0,0,1077.419,3120.144Z"/><path class="c" d="M1095.254,2999.427V3016.5l19.648,58.886,13.376,8.006s65.153-.926,28.691-74.134C1156.969,3009.257,1134.315,2982.941,1095.254,2999.427Z"/><path class="d" d="M983.132,3109.432s2.343-12.537,11.2-12.537H1128.57s10.921,1.829,10.921,14.39v98.449H983.31Z"/><path class="e" d="M1070.279,3206.805h48.26v-23.3h-7.295v20.482h-6.291v-11.806h-7.922l-.466,14.624h-5.1v-25.631h-7.955l1.108,25.631h-9.083V3187h-7.162v18.874Z"/><path d="M1050.836,3224.78H993.162a12.554,12.554,0,0,1-12.538-12.538V3106.925a12.553,12.553,0,0,1,12.538-12.538h5.015v5.015h-5.015a7.523,7.523,0,0,0-7.523,7.523v105.317a7.523,7.523,0,0,0,7.523,7.523h57.674Z"/><rect width="5.018" height="5.015" transform="translate(1003.192 3094.387)"/><path d="M1128.57,3224.78v-5.015a7.523,7.523,0,0,0,7.522-7.523V3106.925a7.523,7.523,0,0,0-7.522-7.523H1013.222v-5.015H1128.57a12.552,12.552,0,0,1,12.537,12.538v105.317A12.553,12.553,0,0,1,1128.57,3224.78Z"/><rect width="10.339" height="5.015" transform="translate(1028.343 3231.695) rotate(-75.957)"/><path d="M1050.836,3244.84H1025.76a2.507,2.507,0,0,1-2.507-2.507v-5.016a7.522,7.522,0,0,1,7.522-7.522h20.061v5.015h-20.061a2.507,2.507,0,0,0-2.507,2.507v2.508h22.568Z"/><rect width="67.704" height="5.015" transform="translate(983.132 3199.704)"/><rect width="5.015" height="5.015" transform="translate(990.655 3209.734)"/><rect width="15.045" height="5.015" transform="translate(1000.685 3209.734)"/><path d="M1118.54,3254.87h-50.151a12.552,12.552,0,0,1-12.538-12.537v-100.3a12.553,12.553,0,0,1,12.538-12.538h50.151a12.553,12.553,0,0,1,12.537,12.538v100.3A12.552,12.552,0,0,1,1118.54,3254.87Zm-50.151-120.362a7.523,7.523,0,0,0-7.523,7.523v100.3a7.523,7.523,0,0,0,7.523,7.522h50.151a7.522,7.522,0,0,0,7.522-7.522v-100.3a7.523,7.523,0,0,0-7.522-7.523Z"/><path d="M1106,3154.568h-25.076c-4.7,0-6.667-4.092-7.289-7.522h-15.279v-5.015h17.553a2.507,2.507,0,0,1,2.508,2.507c0,.043.14,5.015,2.507,5.015H1106c2.367,0,2.507-4.972,2.507-5.015a2.507,2.507,0,0,1,2.508-2.507h17.553v5.015h-15.279C1112.669,3150.476,1110.7,3154.568,1106,3154.568Z"/><rect width="20.06" height="5.015" transform="translate(1083.434 3139.523)"/><rect width="20.06" height="5.015" transform="translate(1083.434 3242.333)"/><rect width="70.211" height="5.015" transform="translate(1058.358 3234.81)"/><rect width="5.015" height="5.015" transform="translate(1123.555 3104.417)"/><rect width="32.598" height="5.015" transform="translate(1085.941 3104.417)"/><g class="f"><path class="e" d="M1025.743,3150.52l9.521-25.316s15.018,2.445,16.019,16.009Z"/><path d="M1250.045,3169.263h-15.839V3156.6a1.814,1.814,0,0,0-1.814-1.813h-15.806a132.779,132.779,0,0,0-4.94-13.439c-1.111-2.689-2.071-5.01-2.767-7.19-1.623-5.078-6.05-7.839-10.423-9.344a26.723,26.723,0,0,0,3.246-4.789c2.134-3.855,2.084-7.785-.134-10.514a7.653,7.653,0,0,0-8.256-2.423c-.612.19-1.16.379-1.679.556-2.393.825-3.836,1.322-8.3.455-3.778-.734-6.57-.362-8.531,1.137a7.86,7.86,0,0,0-2.8,5.981c-.276,3.746,2.693,7.536,4.889,9.8-4.149,1.543-8.266,4.272-9.936,9.1-.676,1.953-1.577,4.107-2.529,6.387a109.747,109.747,0,0,0-7.04,21.518h-5.046a1.814,1.814,0,0,0-1.814,1.814v5.423h-15.841a1.814,1.814,0,0,0-1.813,1.814v14.472a1.814,1.814,0,0,0,1.813,1.814h115.359a1.814,1.814,0,0,0,1.813-1.814v-14.471A1.815,1.815,0,0,0,1250.045,3169.263Zm-1.813,7.235h-14.026v-3.609h14.026Zm-17.653-7.235h-14.024v-3.61h14.025v3.61Zm-17.651,0H1198.9v-3.61h14.027Zm-14.027,3.626h14.027v3.609H1198.9Zm17.654,0h14.025v3.609h-14.025Zm14.024-10.865h-14.024v-3.61h14.025v3.61Zm-54.958-46.538a4.426,4.426,0,0,1,1.387-3.368c1.075-.822,2.972-.974,5.639-.458,5.411,1.049,7.509.329,10.166-.586.485-.167,1-.344,1.57-.521a4.048,4.048,0,0,1,4.37,1.245c1.269,1.562,1.187,3.919-.225,6.47-2.322,4.193-3.751,5.164-4.257,5.386-.023.01-.04.024-.062.035a35.981,35.981,0,0,0-6.3-.677c-.061,0-.25,0-.535.011-1.09-1.212-2.874-3.618-2.949-5.717a1.813,1.813,0,1,0-3.624.131,11.807,11.807,0,0,0,2.293,6c-.687.108-1.417.242-2.181.41C1179.09,3122.23,1175.41,3118.344,1175.621,3115.486Zm-7.847,26.419c.976-2.335,1.9-4.54,2.61-6.6,2.954-8.539,17.384-8.665,17.525-8.665s14.8.126,17.516,8.624c.742,2.322,1.776,4.824,2.87,7.471a129.83,129.83,0,0,1,4.814,13.088,1.784,1.784,0,0,0-.181.779v5.423h-15.84a1.815,1.815,0,0,0-1.814,1.814v19.9h-23.468v-19.895a1.813,1.813,0,0,0-1.814-1.813H1161.1A108.049,108.049,0,0,1,1167.774,3141.905Zm-13.62,30.984h14.025v3.609h-14.025Zm0-7.238h14.025v3.61h-14.025Zm-17.652,7.238h14.025v3.609H1136.5Zm0,7.236h14.025v3.61H1136.5Zm31.638,3.61h-13.986v-3.61h14.025v3.61Zm30.761,0v-3.61h14.027v3.61H1198.9Zm17.654-3.61h14.025v3.61h-14.025Zm31.677,3.61h-14.026v-3.61h14.026Z"/><path d="M1181.955,3155.839a1.3,1.3,0,1,0,0,2.591h3.81v3.11a1.3,1.3,0,0,0,2.592,0v-3.11h3.809a1.317,1.317,0,0,0,1.3-1.3v-4.38a1.317,1.317,0,0,0-1.3-1.295h-8.916v-1.788h8.916a1.3,1.3,0,1,0,0-2.592h-3.809v-3.109a1.3,1.3,0,0,0-2.592,0v3.109h-3.81a1.317,1.317,0,0,0-1.3,1.3v4.38a1.317,1.317,0,0,0,1.3,1.3h8.916v1.788Z"/><path d="M1034.827,3120.581a2.047,2.047,0,0,0-2.649,1.192l-1.455,3.87a32.336,32.336,0,0,0-17.379.056,30.258,30.258,0,0,0-21.919,29.078,30.43,30.43,0,1,0,60.86,0,29.107,29.107,0,0,0-1.307-9.093l3.726-1.358a2.049,2.049,0,0,0,1.212-2.656A36.6,36.6,0,0,0,1034.827,3120.581Zm-5.553,8.913-6.847,18.206-5.861-18.576A28.5,28.5,0,0,1,1029.274,3129.494Zm18.914,25.283a26.334,26.334,0,1,1-35.562-24.528c8.188,25.924,7.64,24.278,7.773,24.57a2.045,2.045,0,0,0,2.512,1.088c.015-.006.032-.008.048-.013l24.17-8.808A25.219,25.219,0,0,1,1048.188,3154.777Zm-22.445-4.257,9.521-25.316a32.511,32.511,0,0,1,16.019,16.009Z"/><path d="M1007.81,3154.836a2.048,2.048,0,0,0-4.1,0,18.238,18.238,0,0,0,18.218,18.217,2.048,2.048,0,1,0,0-4.1A14.137,14.137,0,0,1,1007.81,3154.836Z"/></g><path d="M1119.435,3208.084a2.048,2.048,0,0,0,2.048-2.048v-22.53a2.048,2.048,0,0,0-2.048-2.048h-8.193a2.048,2.048,0,0,0-2.048,2.048v20.482h-2.048V3191.7a2.048,2.048,0,0,0-2.048-2.048h-8.193a2.048,2.048,0,0,0-2.048,2.048v12.289h-2.048v-22.53a2.048,2.048,0,0,0-2.048-2.048h-8.193a2.048,2.048,0,0,0-2.048,2.048v22.53h-2.048V3187.6a2.049,2.049,0,0,0-2.049-2.049h-8.192a2.048,2.048,0,0,0-2.048,2.049v18.433a2.047,2.047,0,0,0,2.048,2.048h51.2Zm-6.145-22.53h4.1v18.434h-4.1Zm-43.011,18.434v-14.337h4.1v14.337Zm14.337,0v-20.482h4.1v20.482Zm14.337,0v-10.241h4.1v10.241Z"/><path class="e" d="M1111.952,3005.565s3.913-16.6,19.591-16.6,20.273,16.6,20.273,16.6c-.439,9.633-12.915,18.449-12.915,18.449h-14.759Z"/><path class="c" d="M1133.366,3011.1h-3.69a1.848,1.848,0,0,1-1.845-1.845h-3.689a5.541,5.541,0,0,0,5.534,5.535v1.845h3.69v-1.845a5.535,5.535,0,1,0,0-11.07h-3.69a1.845,1.845,0,0,1,0-3.69h3.69a1.848,1.848,0,0,1,1.845,1.845h3.69a5.541,5.541,0,0,0-5.535-5.534V2994.5h-3.69v1.845a5.534,5.534,0,0,0,0,11.069h3.69a1.845,1.845,0,1,1,0,3.69Z"/><path d="M1119.7,3022.038a1.821,1.821,0,0,1,.755,1.476v6.035a11.069,11.069,0,1,0,22.139,0v-6.035a1.791,1.791,0,0,1,.738-1.461,20.289,20.289,0,1,0-32-18.519A20.14,20.14,0,0,0,1119.7,3022.038Zm4.445,1.976H1138.9v3.69h-14.759Zm7.379,12.915a7.372,7.372,0,0,1-7.117-5.535h14.235A7.375,7.375,0,0,1,1131.521,3036.929ZM1115,3003.892a16.6,16.6,0,0,1,14.621-14.824,17.359,17.359,0,0,1,1.924-.107,16.415,16.415,0,0,1,11.05,4.23,16.585,16.585,0,0,1-1.413,25.862,5.339,5.339,0,0,0-1.22,1.272h-16.879a5.45,5.45,0,0,0-1.231-1.283A16.486,16.486,0,0,1,1115,3003.892Z"/><rect width="3.69" height="7.38" transform="translate(1129.676 2974.201)"/><rect width="3.69" height="7.38" transform="translate(1108.038 2984.692) rotate(-45)"/><rect width="7.38" height="3.69" transform="translate(1100.158 3003.72)"/><rect width="7.38" height="3.69" transform="translate(1155.505 3003.72)"/><rect width="7.38" height="3.69" transform="translate(1147.176 2987.301) rotate(-45)"/><rect width="5.155" height="5.155" transform="translate(1128.943 3051.238)"/><rect width="5.155" height="5.155" transform="translate(1123.788 3056.394)"/><rect width="5.155" height="5.155" transform="translate(1128.943 3061.549)"/><rect width="5.155" height="5.155" transform="translate(1134.099 3056.394)"/><rect class="a" width="228.682" height="313.627" transform="translate(959.999 2950.55)"/></g></svg>