<svg xmlns="http://www.w3.org/2000/svg" width="150" height="150" viewBox="0 0 150 150"><defs><style>.a{fill:#333;}.b{fill:none;}</style></defs><g transform="translate(-4358.167 -3069.92)"><path class="a" d="M4388.68,3134.478c.179-.164.323-.285.455-.418q3.667-3.686,7.335-7.367a1.257,1.257,0,0,0,.417-1c-.025-1.394,0-2.789-.022-4.183a1.257,1.257,0,0,1,.406-1q5-5,9.961-10.03a3.637,3.637,0,0,0,.681-.971c1.679-3.523,3.26-7.1,5.034-10.57,1.208-2.364,2.675-4.595,4.036-6.879,1.329-2.23,2.661-4.459,4.021-6.67a1.3,1.3,0,0,1,.756-.542c4.274-.887,8.537-1.845,12.84-2.557a34.857,34.857,0,0,1,5.571-.049c.013.219.037.442.038.665.006,1.331-.021,2.663.027,3.992a1.594,1.594,0,0,0,.408.982q4.988,5.007,10.025,9.965a1.339,1.339,0,0,1,.444,1.047c-.006,3.465,0,6.931.043,10.4a1.6,1.6,0,0,0,.452,1.025q8.067,7.705,16.175,15.368a6.06,6.06,0,0,0,.789.632q7.734,5.187,15.479,10.357a4.723,4.723,0,0,0,1.133.541q3.483,1.148,6.983,2.248a1.038,1.038,0,0,1,.757.737c.8,2.333,1.639,4.654,2.436,6.988a1.5,1.5,0,0,0,.846.934c3.193,1.538,6.377,3.1,9.563,4.649.188.091.371.19.751.387-.341.278-.633.477-.879.722-1.438,1.431-2.853,2.885-4.308,4.3a1.517,1.517,0,0,1-.93.386c-1.372.047-2.746.014-4.119.045-.444.01-.588-.135-.585-.575.009-1.436-.033-2.873-.019-4.31a.723.723,0,0,0-.6-.845c-2.358-.723-4.7-1.49-7.043-2.268a2.587,2.587,0,0,1-.951-.574q-6.425-6.26-12.83-12.538a4.693,4.693,0,0,0-1.117-.8c-3.232-1.652-6.479-3.274-9.71-4.929a2.566,2.566,0,0,1-.887-.762c-3.647-5.077-7.258-10.18-10.927-15.241a23.771,23.771,0,0,0-2.372-2.542q-1.463-1.5-2.97-2.947a.747.747,0,0,1-.217-.884q1.189-3.867,2.321-7.754a.923.923,0,0,0-.149-.769c-2.559-2.581-5.142-5.137-7.722-7.7a1.869,1.869,0,0,0-.219-.159c-.12.1-.237.185-.34.285-1.608,1.56-3.223,3.111-4.808,4.693a1.359,1.359,0,0,0-.371.866q-.023,5.229.024,10.459a1.378,1.378,0,0,1-.459,1.106c-1.629,1.565-3.238,3.152-4.778,4.657,3.648,3.722,7.2,7.35,10.8,11.024l-5.551,5.425c.26.277.421.46.6.63q5.031,4.919,10.072,9.827a1.313,1.313,0,0,1,.456,1.043q-.027,2.187.02,4.373a2.542,2.542,0,0,0,.246,1.026c1.617,3.3,3.261,6.58,4.875,9.878a.767.767,0,0,0,.823.5c1.5-.026,3,0,4.5-.024a1.13,1.13,0,0,0,.691-.2c1.918-1.722,3.816-3.466,5.718-5.206a1.155,1.155,0,0,0,.132-.2c-.818-.758-1.642-1.51-2.449-2.28a2,2,0,0,1-.486-.644c-1.009-2.481-2-4.969-2.992-7.456a2.626,2.626,0,0,1-.079-.364c1.914,0,3.79-.014,5.665.023.185,0,.428.288.533.5,1.6,3.188,3.165,6.389,4.765,9.576a4.928,4.928,0,0,0,.875,1.219c1.466,1.492,2.962,2.954,4.445,4.429.147.145.283.3.484.515-1.646.581-3.226,1.142-4.808,1.7-3.838,1.353-7.679,2.7-11.512,4.064a2.508,2.508,0,0,0-.889.559c-1.533,1.515-3.047,3.049-4.558,4.586a3.754,3.754,0,0,0-.4.619c-.309-.288-.465-.423-.609-.571-1.151-1.18-2.253-2.411-3.461-3.53a7.247,7.247,0,0,1-2.056-3.393c-.6-2.041-1.348-4.04-2.01-6.064a1.049,1.049,0,0,0-.749-.747c-2.3-.771-4.587-1.573-6.878-2.366-.238-.082-.471-.176-.752-.281v-5.235a4.485,4.485,0,0,0-.526-.066c-1.437,0-2.874.023-4.311-.006-.457-.009-.608.148-.7.579-.853,4.173-1.733,8.339-2.584,12.512a2.026,2.026,0,0,0,.077.979c.811,2.529,1.647,5.051,2.475,7.575.065.2.124.4.2.64l-12.454,5.52c-.376-.539-.748-1.07-1.119-1.6-.772-1.109-1.529-2.229-2.323-3.323a.917.917,0,0,1-.1-1.088c.745-1.491,1.45-3,2.166-4.507a1.388,1.388,0,0,0,.195-.527c.014-1.919.008-3.838.008-5.819-.275-.013-.5-.032-.722-.031-2.3,0-4.607.018-6.91,0a1.284,1.284,0,0,0-1.035.462c-3.3,3.512-6.613,7.007-9.9,10.526a.888.888,0,0,1-1.088.282q-3.448-1.154-6.92-2.237a.687.687,0,0,1-.585-.783c0-3.4-.038-6.8-.044-10.2,0-.453-.1-.65-.6-.727-4.441-.675-8.876-1.4-13.316-2.076a1.544,1.544,0,0,0-.885.211q-4.6,2.465-9.187,4.973a1.183,1.183,0,0,1-1.179.043q-2.454-1.1-4.935-2.138a.725.725,0,0,1-.516-.8q.017-5.2-.02-10.4a.82.82,0,0,1,.523-.868q13.044-6.463,26.066-12.971a1.019,1.019,0,0,1,1.329.171C4386.92,3133.076,4387.8,3133.759,4388.68,3134.478Z"/><path class="a" d="M4375.781,3207.445h-5.806v-22.856h5.678l.079,1.574a1.981,1.981,0,0,0,.278-.147c4.93-3.959,11.513-1.747,12.945,4.4a20.934,20.934,0,0,1,.468,4.328c.07,3.97.041,7.941.051,11.911v.736h-6.035c0-.989,0-1.955,0-2.921,0-3.1.02-6.209-.028-9.313a12.193,12.193,0,0,0-.368-2.807,2.873,2.873,0,0,0-2.691-2.308,8.435,8.435,0,0,0-2.193.094,2.556,2.556,0,0,0-2.087,2.057,10.52,10.52,0,0,0-.3,2.374c-.022,4.034,0,8.067.008,12.1C4375.782,3206.9,4375.781,3207.13,4375.781,3207.445Z"/><path class="a" d="M4457.48,3186.536l-3.173,4.316a9.994,9.994,0,0,0-4.523-1.6,20.263,20.263,0,0,0-2.9.1,1.723,1.723,0,0,0-.755.3,1.1,1.1,0,0,0,.08,2.009,13.125,13.125,0,0,0,1.955.716c1.757.522,3.528,1,5.284,1.523a14.474,14.474,0,0,1,1.647.646c4.579,2,4.188,7.148,2.174,9.579a9.552,9.552,0,0,1-5.618,3.179,15.583,15.583,0,0,1-10.642-1.759c-.6-.31-1.185-.648-1.777-.973-.054-.03-.1-.066-.211-.134,1.077-1.206,2.107-2.375,3.167-3.515a.659.659,0,0,1,.594-.019,14.228,14.228,0,0,0,6.423,1.454,10.271,10.271,0,0,0,2.3-.323,1.4,1.4,0,0,0,1.137-1.222,1.46,1.46,0,0,0-.758-1.556,9.335,9.335,0,0,0-1.935-.708c-2.111-.579-4.276-.993-6.335-1.715a5.713,5.713,0,0,1-4.1-5.649,6.257,6.257,0,0,1,3.6-5.88,12.509,12.509,0,0,1,7.928-1.233,14.314,14.314,0,0,1,5.754,1.994C4457.009,3186.2,4457.211,3186.352,4457.48,3186.536Z"/><path class="a" d="M4483.115,3188.549l-4.832,3.739a5.959,5.959,0,0,0-5.374-2.6,5.765,5.765,0,0,0-3.9,1.881,6.121,6.121,0,0,0,.23,8.47,5.971,5.971,0,0,0,9.088-.959l2.4,1.826,2.411,1.842c-2.074,2.769-7.441,5.93-12.884,4.378a12.089,12.089,0,0,1-8.844-10.921,11.921,11.921,0,0,1,8.139-11.736C4474.964,3182.595,4480.425,3185.289,4483.115,3188.549Z"/><path class="a" d="M4391.627,3184.485c2.135,0,4.161-.012,6.186.023.175,0,.44.288.5.491,1.344,4.481,2.663,8.968,3.994,13.452a6.707,6.707,0,0,0,.648,1.55c.247-1.116.433-2.25.751-3.346,1.147-3.945,2.335-7.879,3.525-11.812.051-.169.286-.4.437-.4,2.047-.027,4.094-.018,6.22-.018-.171.519-.321.994-.486,1.463q-3.658,10.41-7.311,20.823a.861.861,0,0,1-.982.7c-1.584-.037-3.169-.012-4.753.011a.633.633,0,0,1-.729-.494q-3.9-10.929-7.832-21.847C4391.741,3184.929,4391.706,3184.768,4391.627,3184.485Z"/><path class="a" d="M4364.292,3207.516h-5.911c-.013-.213-.037-.436-.037-.659q-.038-13.749-.081-27.5a.857.857,0,0,1,.607-.945c1.595-.666,3.166-1.389,4.747-2.088.188-.083.383-.147.675-.259Z"/><path class="a" d="M4508.043,3194.419a11.238,11.238,0,0,0-13.217-10.481,11.436,11.436,0,0,0-9.409,7.974,11.085,11.085,0,0,0,2.723,11.82,11.266,11.266,0,0,0,11.451,3.345c4.349-1.086,6.946-4.04,8.1-8.3a28.46,28.46,0,0,0,.48-2.855v-.761C4508.125,3194.912,4508.061,3194.667,4508.043,3194.419Zm-10.175,7.1c-4.253.77-7.516-2.229-7.008-6.815a5.73,5.73,0,0,1,8.357-4.508,5.609,5.609,0,0,1,3.053,4.963C4502.254,3198.592,4500.463,3201.046,4497.868,3201.516Z"/><path class="a" d="M4430.652,3200.422a19.212,19.212,0,0,1-3,1.273,5.7,5.7,0,0,1-5.618-1.656,3.549,3.549,0,0,1-.992-2.053h15.282c-.111-1.668-.114-3.232-.339-4.763a10.88,10.88,0,0,0-3.8-7.087c-4.109-3.392-10.72-2.713-14.327,1.5a12.4,12.4,0,0,0-2.608,10.755c1.584,8.943,11.513,11.66,17.907,7.142a6.576,6.576,0,0,0,1.916-2.025c-1.323-1.075-2.594-2.118-3.886-3.135C4431.081,3200.295,4430.813,3200.354,4430.652,3200.422Zm-5.056-11.145a4.234,4.234,0,0,1,4.709,3.836h-9.2C4421.137,3191.192,4423.241,3189.4,4425.6,3189.277Z"/><rect class="b" width="150" height="150" transform="translate(4358.167 3069.92)"/></g></svg>