<svg xmlns="http://www.w3.org/2000/svg" width="150" height="150" viewBox="0 0 150 150"><defs><style>.a{fill:#333;}.b{fill:#fff;}.c{fill:none;}</style></defs><g transform="translate(-1775.16 -897.891)"><g transform="translate(-3692.436 -2490.247)"><rect class="a" width="85.214" height="59.713" transform="translate(5467.596 3433.281)"/><path class="b" d="M5484.333,3461.992l-2.155,1.089a2.853,2.853,0,0,0-2.34-.988q-2.745,0-2.745,2.9a3.021,3.021,0,0,0,.663,2.043,2.567,2.567,0,0,0,2.082.855,2.837,2.837,0,0,0,2.1-.721l2.249.938a5.219,5.219,0,0,1-4.349,1.809,5.449,5.449,0,0,1-3.851-1.4,4.6,4.6,0,0,1-1.51-3.526,4.648,4.648,0,0,1,1.427-3.593,5.591,5.591,0,0,1,3.934-1.314A5.2,5.2,0,0,1,5484.333,3461.992Z"/><path class="b" d="M5495.4,3464.99a4.767,4.767,0,0,1-1.326,3.584,6.143,6.143,0,0,1-7.7-.033,4.688,4.688,0,0,1-1.382-3.551,4.76,4.76,0,0,1,1.363-3.593,6.256,6.256,0,0,1,7.683.009A4.762,4.762,0,0,1,5495.4,3464.99Zm-2.6-.008q0-2.973-2.6-2.973t-2.6,2.973q0,2.973,2.6,2.973T5492.808,3464.982Z"/><path class="b" d="M5503.807,3469.8h-7.48v-9.614h2.359v7.688h5.121Z"/><path class="b" d="M5513.719,3465.962a3.5,3.5,0,0,1-1.253,2.9,6.036,6.036,0,0,1-6.6-.017,3.476,3.476,0,0,1-1.216-2.864v-5.795h2.45v5.511a2.073,2.073,0,1,0,4.146,0v-5.511h2.469Z"/><path class="b" d="M5526.081,3469.8h-2.506v-5.845l-2.967,5.845-3.113-5.845v5.845h-2.358v-9.614h2.97l2.492,4.715,2.473-4.715h3.009Z"/><path class="b" d="M5535.808,3466.816q0,2.981-3.887,2.981h-4.735v-9.614h4.569a3.39,3.39,0,0,1,2.165.721,2.248,2.248,0,0,1,.911,1.842,2.084,2.084,0,0,1-.847,1.675,2.2,2.2,0,0,1,1.382.887A2.536,2.536,0,0,1,5535.808,3466.816Zm-3.022-3.92a.728.728,0,0,0-.4-.653,1.708,1.708,0,0,0-.88-.234h-1.927v1.759h1.927a1.709,1.709,0,0,0,.88-.235A.713.713,0,0,0,5532.786,3462.9Zm.737,3.836a1.055,1.055,0,0,0-.434-.9,1.821,1.821,0,0,0-1.1-.319h-2.406v2.462h2.406a1.756,1.756,0,0,0,1.092-.335A1.072,1.072,0,0,0,5533.523,3466.732Z"/><path class="b" d="M5539.032,3469.8h-2.248v-9.614h2.248Z"/><path class="b" d="M5550.03,3469.8h-2.579l-.719-1.976h-3.371l-.737,1.976h-2.634l3.777-9.614h2.468Zm-3.886-3.6-1.106-3.031-1.1,3.031Z"/><path class="a" d="M5564.067,3461.992l-1.827,1.089a2.27,2.27,0,0,0-1.984-.988q-2.328,0-2.327,2.9a3.385,3.385,0,0,0,.562,2.043,2.031,2.031,0,0,0,1.765.855,2.2,2.2,0,0,0,1.781-.721l1.9.938a4.143,4.143,0,0,1-3.686,1.809,4.234,4.234,0,0,1-3.265-1.4,5.024,5.024,0,0,1-1.28-3.526,5.1,5.1,0,0,1,1.21-3.593,4.311,4.311,0,0,1,3.335-1.314A4.15,4.15,0,0,1,5564.067,3461.992Z"/><path class="a" d="M5574.377,3469.8h-2.187l-.609-1.976h-2.858l-.625,1.976h-2.234l3.2-9.614h2.093Zm-3.3-3.6-.937-3.031-.937,3.031Z"/><path class="a" d="M5583.873,3463.165a3.374,3.374,0,0,1-.768,2.219,2.443,2.443,0,0,1-1.973.929h-2.6v3.484h-2.03v-9.614h4.639a2.54,2.54,0,0,1,1.96.846A3.046,3.046,0,0,1,5583.873,3463.165Zm-2.03.05a1.085,1.085,0,0,0-.356-.854,1.26,1.26,0,0,0-.875-.319h-2.081v2.4h2.081a1.206,1.206,0,0,0,.875-.344A1.165,1.165,0,0,0,5581.843,3463.215Z"/><path class="a" d="M5587.966,3469.8h-1.9v-9.614h1.9Z"/><path class="a" d="M5597.963,3462.109H5595.2v7.688h-2.061v-7.688h-2.781v-1.926h7.607Z"/><path class="a" d="M5608.381,3469.8h-2.187l-.609-1.976h-2.858l-.625,1.976h-2.234l3.2-9.614h2.093Zm-3.3-3.6-.938-3.031-.936,3.031Z"/><path class="a" d="M5616.676,3469.8h-6.342v-9.614h2v7.688h4.343Z"/></g><rect class="c" width="150" height="150" transform="translate(1775.16 897.891)"/></g></svg>