<svg xmlns="http://www.w3.org/2000/svg" width="150" height="150" viewBox="0 0 150 150"><defs><style>.a{fill:#333;fill-rule:evenodd;}.b{fill:none;}</style></defs><g transform="translate(-4736.776 -3069.92)"><path class="a" d="M4741.783,3147.773l.109,1.756a5,5,0,0,0,.218,1.866c.218.109.326.109,1.415.219h.871v.659h-.762a26.452,26.452,0,0,0-2.722-.11c-.762,0-1.85.11-3.374.11h-.762v-.659h1.2c.762,0,.871-.11.98-.219.326-.22.326-.549.435-1.756v-9.548c0-.988-.109-1.427-.435-1.646-.218-.11-.327-.11-1.524-.22h-.653v-.658h3.483c.98,0,2.069,0,3.81-.11h1.742c3.919,0,5.987,1.207,5.987,3.4,0,2.524-2.831,4.5-6.314,4.5a11.989,11.989,0,0,1-1.85-.22l-.327-.768a6.015,6.015,0,0,0,1.851.219c2.5,0,3.918-1.207,3.918-3.292,0-1.975-1.524-3.073-4.463-3.073a8.732,8.732,0,0,0-2.721.439,30.033,30.033,0,0,0-.109,3.183v5.926Zm29.935,3.183a38.941,38.941,0,0,0,.217-4.28v-3.512c0-3.293-.108-4.39-.326-4.719a2,2,0,0,0-1.089-.22h-1.088v-.658h7.4v.658h-.98c-.87,0-1.088.11-1.2.22-.218.219-.218.548-.218,1.756l-.109,2.963v3.512c0,3.4.109,4.28.327,4.609.218.219.435.219,1.306.329h.871v.659a19.6,19.6,0,0,0-3.592,0h-3.81v-.659h.871c1.088,0,1.306-.11,1.415-.658Zm38.643-4.829c-1.089,1.865-1.524,2.524-2.286,3.841a20.167,20.167,0,0,0-1.089,2.085l-.217.439h-.436c-.544-.878-.653-.988-1.524-2.524l-1.306-2.2-4.572-7.682v7.9c0,2.525,0,3.073.327,3.293.217.219.653.329,1.633.329h.544v.659h-.762l-2.613-.11-2.068.11h-.762v-.659h.871c1.524-.11,1.633-.329,1.633-4.06v-5.817c0-1.975-.109-2.963-.327-3.183-.109-.219-.653-.219-1.524-.329h-.653v-.658h4.9l.326.439c.871,1.756,1.306,2.3,2.068,3.621.327.549.653,1.208,1.2,2.085l3.374,5.6,3.157-5.158c.871-1.536,1.524-2.524,2.4-4.28.435-.658.762-1.317,1.088-1.865l.218-.439h5.007v.658h-.871c-1.306.11-1.524.11-1.524.878a2.156,2.156,0,0,1-.109.768v8.451c0,1.975.109,2.743.327,2.963s.544.329,1.415.329h.762v.659h-.762a21.667,21.667,0,0,0-2.721-.11,28.283,28.283,0,0,0-2.939.11h-.762v-.659h.871c1.088,0,1.306-.11,1.306-.768a16.476,16.476,0,0,0,.109-2.634v-8.45l-3.81,6.365Zm39.405-6.8a10.884,10.884,0,0,0-5.008-1.207c-4.572,0-7.619,2.524-7.619,6.365,0,4.17,3.483,7.023,8.708,7.023a10.268,10.268,0,0,0,5.443-1.317l.217.22a3.967,3.967,0,0,0-.435.988,15.61,15.61,0,0,1-6.2,1.207c-6.2,0-10.45-3.073-10.559-7.682,0-4.719,4.246-7.683,10.777-7.683a13.661,13.661,0,0,1,3.7.44l1.306.219c.436.11.653.11,1.306.22a7.329,7.329,0,0,0-.653,3.182h-.871l-.108-1.866v-.109Zm37.01,5.048c0,4.719-4.354,8.231-10.341,8.231-5.552,0-9.144-3.073-9.144-7.682,0-4.719,3.919-7.683,9.906-7.683,5.878,0,9.579,2.744,9.579,7.134Zm-2.722.768c0-4.39-2.83-7.023-7.4-7.023-4.136,0-6.749,2.3-6.749,6.035a7.057,7.057,0,0,0,7.4,7.463c4.246,0,6.749-2.414,6.749-6.475Z"/><rect class="b" width="150" height="150" transform="translate(4736.776 3069.92)"/></g></svg>