<svg xmlns="http://www.w3.org/2000/svg" width="149.84" height="149.839" viewBox="0 0 149.84 149.839"><defs><style>.a{fill:#333;}.b,.c{fill:none;}.b{stroke:#979797;stroke-miterlimit:10;stroke-width:1.894px;}</style></defs><g transform="translate(-665.811 -1162.092)"><g transform="translate(-3692.436 -2490.247)"><path class="a" d="M4358.7,3732.839a5.093,5.093,0,0,1,5.2-5.314,4.805,4.805,0,0,1,3.942,1.82l-1.424,1.41a3,3,0,0,0-2.408-1.2,3.3,3.3,0,0,0,0,6.576,2.975,2.975,0,0,0,2.408-1.218l1.424,1.409a4.783,4.783,0,0,1-3.955,1.835A5.09,5.09,0,0,1,4358.7,3732.839Z"/><path class="a" d="M4375.454,3735.775h-4.448l-.849,2.2h-2.271l4.27-10.276h2.19l4.284,10.276H4376.3Zm-.7-1.806-1.52-3.934-1.519,3.934Z"/><path class="a" d="M4387.938,3731.43c0,2.29-1.6,3.714-4.162,3.714h-1.929v2.833h-2.218V3727.7h4.147C4386.336,3727.7,4387.938,3729.125,4387.938,3731.43Zm-2.246,0c0-1.13-.684-1.791-2.039-1.791h-1.806v3.567h1.806C4385.008,3733.206,4385.692,3732.545,4385.692,3731.43Z"/><path class="a" d="M4389.511,3727.7h2.218v10.276h-2.218Z"/><path class="a" d="M4395.985,3729.639h-3.066V3727.7h8.35v1.938H4398.2v8.338h-2.217Z"/><path class="a" d="M4408.29,3735.775h-4.449l-.849,2.2h-2.271l4.27-10.276h2.19l4.284,10.276h-2.327Zm-.7-1.806-1.52-3.934-1.519,3.934Z"/><path class="a" d="M4412.464,3727.7h2.218v8.338h4.8v1.938h-7.021Z"/><path class="a" d="M4365.778,3747.571h2.026v4.169a6.312,6.312,0,0,1-3.873,1.306,5.314,5.314,0,0,1,.041-10.628,4.944,4.944,0,0,1,4.009,1.777l-1.422,1.409a3.147,3.147,0,0,0-2.478-1.16,3.292,3.292,0,0,0-.027,6.576,3.328,3.328,0,0,0,1.724-.44Z"/><path class="a" d="M4375.961,3752.87l-1.848-2.862h-2.039v2.862h-2.218v-10.276H4374c2.559,0,4.161,1.425,4.161,3.729a3.355,3.355,0,0,1-1.971,3.244l2.149,3.3Zm-2.08-8.338h-1.807v3.582h1.807c1.354,0,2.039-.675,2.039-1.791S4375.235,3744.532,4373.881,3744.532Z"/><path class="a" d="M4379.314,3747.732a5.243,5.243,0,1,1,5.243,5.314A5.127,5.127,0,0,1,4379.314,3747.732Zm8.24,0a3.01,3.01,0,1,0-3,3.288A3.037,3.037,0,0,0,4387.554,3747.732Z"/><path class="a" d="M4391.386,3748.349v-5.755h2.218v5.667c0,1.952.793,2.759,2.134,2.759,1.356,0,2.136-.807,2.136-2.759v-5.667h2.189v5.755c0,3.024-1.615,4.7-4.338,4.7S4391.386,3751.373,4391.386,3748.349Z"/><path class="a" d="M4410.562,3746.323c0,2.29-1.6,3.714-4.162,3.714h-1.929v2.833h-2.218v-10.276h4.147C4408.96,3742.594,4410.562,3744.019,4410.562,3746.323Zm-2.246,0c0-1.13-.684-1.791-2.039-1.791h-1.806v3.567h1.806C4407.632,3748.1,4408.316,3747.439,4408.316,3746.323Z"/><path class="a" d="M4417.082,3744.969a2.823,2.823,0,1,1-2.809-3A2.851,2.851,0,0,1,4417.082,3744.969Zm-.543,0a2.3,2.3,0,0,0-2.266-2.448,2.474,2.474,0,0,0-.016,4.931A2.348,2.348,0,0,0,4416.539,3744.969Zm-1.38.565.678,1.113h-.83l-.582-.959h-.551v.959h-.83v-3.321h1.349c.845,0,1.348.462,1.348,1.181A1.066,1.066,0,0,1,4415.159,3745.534Zm-.822-.513c.375,0,.591-.188.591-.514s-.216-.522-.591-.522h-.471v1.036Z"/><path class="a" d="M4439.132,3735.232h-5.338l-1.15,2.745h-1.054l4.38-10.276h1l4.38,10.276h-1.068Zm-.37-.881-2.3-5.519-2.3,5.519Z"/><path class="a" d="M4452.887,3727.7v10.276h-.972v-8.221l-3.764,6.914h-.479l-3.764-6.87v8.177h-.971V3727.7h.834l4.161,7.619,4.12-7.619Z"/><path class="a" d="M4462.783,3737.037v.94h-6.775V3727.7h6.569v.94h-5.556v3.655h4.955v.924h-4.955v3.817Z"/><path class="a" d="M4471.706,3737.977l-2.189-3.3a6.509,6.509,0,0,1-.767.044h-2.573v3.259h-1.013V3727.7h3.586c2.437,0,3.914,1.321,3.914,3.523a3.171,3.171,0,0,1-2.189,3.23l2.34,3.523Zm-.055-6.753c0-1.644-1.012-2.583-2.928-2.583h-2.546v5.152h2.546C4470.639,3733.793,4471.651,3732.839,4471.651,3731.224Z"/><path class="a" d="M4475.06,3727.7h1.012v10.276h-1.012Z"/><path class="a" d="M4478.345,3732.839a4.983,4.983,0,0,1,5.023-5.226,4.481,4.481,0,0,1,3.5,1.5l-.643.689a3.669,3.669,0,0,0-2.833-1.218,4.262,4.262,0,0,0,0,8.514,3.634,3.634,0,0,0,2.833-1.233l.643.69a4.5,4.5,0,0,1-3.518,1.512A4.979,4.979,0,0,1,4478.345,3732.839Z"/><path class="a" d="M4494.8,3735.232h-5.338l-1.15,2.745h-1.054l4.38-10.276h1l4.38,10.276h-1.068Zm-.37-.881-2.3-5.519-2.3,5.519Z"/><path class="a" d="M4506.608,3727.7v10.276h-.835l-6.159-8.338v8.338H4498.6V3727.7h.835l6.172,8.338V3727.7Z"/><path class="a" d="M4434.136,3743.534v4.037h4.955v.939h-4.955v4.36h-1.013v-10.276h6.569v.94Z"/><path class="a" d="M4441.705,3748.481v-5.887h1.013v5.843c0,2.437,1.067,3.552,2.928,3.552s2.944-1.115,2.944-3.552v-5.843h.985v5.887c0,2.95-1.478,4.477-3.929,4.477S4441.705,3751.431,4441.705,3748.481Z"/><path class="a" d="M4460.634,3742.594v10.276h-.835l-6.159-8.338v8.338h-1.013v-10.276h.835l6.173,8.338v-8.338Z"/><path class="a" d="M4463.755,3742.594h3.9a5.138,5.138,0,0,1,0,10.276h-3.9Zm3.846,9.336a4.2,4.2,0,0,0,0-8.4h-2.833v8.4Z"/><path class="a" d="M4474.143,3751.622l.4-.837a4.524,4.524,0,0,0,3.162,1.248c1.793,0,2.573-.807,2.573-1.82,0-2.818-5.9-1.086-5.9-4.888,0-1.512,1.1-2.818,3.531-2.818a5.14,5.14,0,0,1,2.97.91l-.342.866a4.693,4.693,0,0,0-2.628-.852c-1.752,0-2.532.837-2.532,1.865,0,2.818,5.9,1.115,5.9,4.858,0,1.512-1.122,2.8-3.572,2.8A4.986,4.986,0,0,1,4474.143,3751.622Z"/><path class="a" d="M4485.6,3744.339a1.717,1.717,0,1,1-1.708-1.826A1.734,1.734,0,0,1,4485.6,3744.339Zm-.184,0a1.546,1.546,0,0,0-1.524-1.633,1.648,1.648,0,1,0,1.524,1.633Zm-1.1.313.456.749h-.263l-.422-.7a.678.678,0,0,1-.111.006h-.505v.7h-.252v-2.1h.757a.687.687,0,0,1,.776.7A.655.655,0,0,1,4484.31,3744.652Zm.188-.656c0-.3-.2-.468-.543-.468h-.5v.947h.5C4484.3,3744.475,4484.5,3744.3,4484.5,3744Z"/><path class="a" d="M4381.917,3697.742h-16.558v6.661h-6.52v16.558H4375.4V3714.3h6.521Zm-9.784,19.956H4362.1v-10.032h3.257v6.634h6.774Zm0-6.661h-3.511v-3.371h3.511Zm6.521,0H4375.4V3704.4h-6.774V3701h10.032Z"/><line class="b" y2="28.484" transform="translate(4426.152 3726.226)"/></g><rect class="c" width="149.84" height="149.84" transform="translate(665.811 1162.092)"/></g></svg>