<svg xmlns="http://www.w3.org/2000/svg" width="150" height="150" viewBox="0 0 150 150"><defs><style>.a{fill:#333;}.a,.b{fill-rule:evenodd;}.b{fill:#fff;}</style></defs><g transform="translate(-5768.898 -3388.137)"><path class="a" d="M5768.9,3538.137h150v-150h-150v150Z"/><path class="b" d="M5900.09,3417.428h-5.2v-20.489h4.893v2.293a4.919,4.919,0,0,1,4.128-2.752c3.364-.153,5.658,1.836,5.658,6.116v14.832h-5.352v-15.443c0-1.835,0-3.364-1.223-3.669a2.222,2.222,0,0,0-1.835.457,4.089,4.089,0,0,0-1.071,3.212v15.443Z"/><path class="b" d="M5811.711,3398.316a6.886,6.886,0,0,0-4.587-1.836,7.2,7.2,0,0,0-4.587,1.836c-2.141,1.834-3.517,5.2-3.517,8.868,0,3.822,1.376,7.033,3.517,8.868a7.208,7.208,0,0,0,4.587,1.835,6.889,6.889,0,0,0,4.587-1.835c2.294-1.835,3.517-5.046,3.517-8.868,0-3.67-1.223-7.034-3.517-8.868Zm-1.988,8.868c0,3.822,0,6.88-.611,8.409a2.049,2.049,0,0,1-1.988,1.224,1.845,1.845,0,0,1-1.835-1.224c-.764-1.529-.764-4.587-.764-8.409,0-3.67,0-6.881.764-8.411a1.844,1.844,0,0,1,1.835-1.222,2.049,2.049,0,0,1,1.988,1.222c.765,1.53.611,4.741.611,8.411Z"/><path class="b" d="M5865.075,3425.226v5.5H5864c-.612-2.293-1.529-4.281-3.975-4.434a2.654,2.654,0,0,0-3.059,2.141c-.153,1.375.306,2.6,3.059,4.128,3.516,1.988,6.268,2.905,6.268,7.033,0,4.435-3.822,6.576-7.033,6.576h-6.116v-7.646h1.07c.765,3.976,1.988,6.422,4.893,6.575a2.93,2.93,0,0,0,3.211-3.058c0-1.988-1.224-3.211-4.129-4.893-3.21-1.988-5.2-3.211-5.2-5.963,0-3.67,2.6-5.964,6.727-5.964Z"/><path class="b" d="M5871.8,3417.428V3402.6c0-4.28-2.293-6.269-5.658-6.116a5.166,5.166,0,0,0-4.281,2.905c-.765-2.14-2.446-3.058-4.893-2.905a4.923,4.923,0,0,0-4.128,2.752v-2.293h-4.74v20.489h5.2v-15.443c0-1.53.153-2.447,1.07-3.212a1.918,1.918,0,0,1,1.682-.457c1.223.305,1.223,1.834,1.223,3.669v15.443h5.2v-15.6a3.947,3.947,0,0,1,1.07-3.059,1.919,1.919,0,0,1,1.682-.457c1.223.305,1.376,1.834,1.376,3.669v15.443Z"/><path class="b" d="M5818.745,3392.658h5.352v24.77h-5.352v-24.77Z"/><path class="b" d="M5843.057,3417.428v-24.77h-5.352v5.81a3.148,3.148,0,0,0-3.058-1.835c-3.822,0-6.881,3.975-7.034,10.092-.152,4.128,1.224,11.009,6.575,11.009a3.98,3.98,0,0,0,3.823-2.294v1.988Zm-6.269-18.807c1.07,1.529,1.07,5.2,1.07,8.1,0,3.058.153,7.033-1.07,8.715a1.918,1.918,0,0,1-1.682.918c-1.07,0-1.682-1.223-1.988-3.211-.153-1.835-.153-4.129-.153-6.575,0-4.128.306-8.716,2.294-8.716a1.883,1.883,0,0,1,1.529.765Z"/><path class="b" d="M5887.705,3397.551c1.377.765,2.294,1.987,2.294,4.74v15.137h-5.046v-2.293c-.611,1.682-2.294,2.752-4.587,2.752-1.835,0-5.046-.918-5.046-5.658,0-4.434,2.906-5.351,6.116-6.728,2.906-1.222,3.211-1.376,3.211-2.6v-3.364c0-1.376-.764-1.987-2.294-1.987-.611.152-1.681.458-1.681,1.222-.154.918.917.918,1.07,2.294.153,2.141-1.529,2.905-3.058,2.753a2.354,2.354,0,0,1-2.447-2.294c-.152-2.753,2.906-5.046,7.187-5.046a7.982,7.982,0,0,1,4.281,1.071Zm-3.058,7.645-1.682,1.07a4.632,4.632,0,0,0-2.141,3.976,18.472,18.472,0,0,0,0,4.128c.153,1.682,1.224,1.988,2.141,1.682,1.071-.459,1.682-2.446,1.682-4.587V3405.2Z"/><path class="b" d="M5812.017,3426.144c1.376.917,2.141,1.987,2.141,4.74v15.291h-4.893v-2.294c-.612,1.529-2.293,2.6-4.588,2.6-1.987,0-5.046-.765-5.046-5.5,0-4.434,2.906-5.352,5.964-6.728s3.364-1.529,3.364-2.6v-3.363c0-1.529-.765-2.141-2.293-1.988-.613,0-1.682.306-1.682,1.07-.153,1.071.917,1.071,1.069,2.446.154,1.989-1.528,2.753-3.057,2.753a2.616,2.616,0,0,1-2.447-2.447c-.153-2.6,2.905-4.893,7.187-4.893a8.1,8.1,0,0,1,4.281.918Zm-3.058,7.645-1.682,1.07a4.63,4.63,0,0,0-2.141,3.976,18.571,18.571,0,0,0,0,4.128c0,1.836,1.071,2.141,1.988,1.682,1.223-.458,1.835-2.293,1.835-4.587v-6.269Z"/><path class="b" d="M5849.02,3431.343c0-4.282-2.294-6.423-5.657-6.117a5.215,5.215,0,0,0-3.823,1.988v-5.963h-5.2v14.067c0,5.2-3.669,10.092-7.339,9.939-2.6,0-3.211-1.988-3.517-4.128a46.445,46.445,0,0,1-.153-10.4c.306-2.446.917-4.434,2.753-4.434,1.376,0,1.528.917.917,1.529-.612.764-1.529,1.528-1.07,3.211.458,1.834,3.363,2.14,4.74.765a3.925,3.925,0,0,0,.153-4.435c-.918-1.529-2.447-2.141-4.74-2.141-2.906,0-8.41,2.6-8.41,10.857,0,8.868,5.657,10.4,8.868,10.4,3.67,0,6.881-3.211,7.8-5.811v5.506h5.2v-15.444a4.092,4.092,0,0,1,1.07-3.211,2.22,2.22,0,0,1,1.835-.459c1.224.306,1.224,1.835,1.224,3.67v15.444h5.351v-14.832Z"/><path class="b" d="M5795.5,3392.2v8.715h-1.07c-.918-4.281-2.905-7.492-5.658-7.645-1.834-.153-2.9.917-3.822,2.447-.917,1.835-1.376,5.657-1.376,10.244a54.036,54.036,0,0,0,.611,9.786,3.277,3.277,0,0,0,3.059,2.753,2.681,2.681,0,0,0,2.293-.918c.765-.917.917-2.753.917-3.975v-4.129c0-1.529-.458-2.446-1.223-2.905a12.071,12.071,0,0,0-1.987-.459v-1.07h8.562v21.865h-1.07a17.665,17.665,0,0,0-1.529-4.281,5.062,5.062,0,0,0-4.435-2.905c-2.446-.153-4.281,1.376-4.281,3.669,0,3.059,1.835,3.823,5.2,5.658,3.211,1.835,7.339,3.364,7.339,8.716,0,5.2-4.434,8.41-9.479,8.41h-8.1v-10.551h1.069c1.377,7.951,4.741,9.327,7.035,9.327,2.9,0,4.28-1.835,4.28-4.434-.152-3.364-2.446-4.587-5.657-6.269-4.587-2.6-6.727-3.823-6.727-8.1.152-3.67,3.058-5.964,6.268-6.881-6.727-.764-8.715-6.88-8.562-13.456,0-6.575,3.822-13.608,11.315-13.608Z"/></g></svg>