<svg xmlns="http://www.w3.org/2000/svg" width="347.744" height="351.466" viewBox="0 0 347.744 351.466"><defs><style>.a{fill:#fff;}.b{fill:#e0dfe6;}.c{fill:#2a95ff;}.d{fill:#525d7d;}</style></defs><g transform="translate(-315.999 -5141.235)"><path class="a" d="M464.334,5193.331l13.988-6.281,105.4-30.631,8.147-1.573,7.882,3.216s6.563,22.707,6.472,23.673,32.487,104.091,32.487,104.091l10.662,22.361,1.691,20.09L601.3,5347.858l1.691,17.417,7.287,17.464,14.478-11.591,11.088-7.845,10.146-5.586h9.118l4.932,3.809L655.9,5375.4l-29.229,45.726-16.386,44.931,3.273,19.358S567,5497.241,506.508,5490.76a55.4,55.4,0,0,0-12.073,0L470.6,5419.677l.012-17.059,9.9-27.215s21.079-29.8,25.606-28.919-1.751-5.385-2.1-6.393-18.916-61.69-18.916-61.69l-19.453-68.161S462.323,5197.251,464.334,5193.331Z"/><path class="a" d="M406.463,5261.1l-20.513,8.878-11.044,11.446-2.563,19.69v10.97l5.966,9.3,9.972,9.439,14.309,4.245,11.038,1.427,14.7-4.947,10.254-11.366,5.179-15.726-1.986-13.9-6.864-14.666-11.7-10.335Z"/><path class="a" d="M341.307,5253.2c.436-1.4,11.056-15.438,11.056-15.438l-18.783-8.18-9.976,10.728Z"/><path class="a" d="M337.984,5359.686c.282.9-10.876,14.225-10.876,14.225l18.857-2.041Z"/><path class="a" d="M335.157,5393.979l8.671,15.782-21.067-1.371Z"/><path class="a" d="M331.926,5431.751l14.038,15.183-25.316-2.07Z"/><path class="a" d="M417.293,5434.707l-6.258,4.531v6.938l4.715,3.527,5.988-1.06s6.491-5.3,6.587-6.071a53.329,53.329,0,0,0-1.147-6.071Z"/><path class="a" d="M481.072,5145.984l-5.353-2.3-7.064,4.3,1.949,4.3,3.818,2.557,2.786-1.144,3.865-5.961Z"/><path class="b" d="M435.772,5164.218c-4.87-1.059-6.715-6.062-12.444-3.722-5.374,2.195-6,9.281-12.219,4.8-3.936-2.835-6.891-5.65-12.153-4.293-5.7,1.47-9.856,9.552-15.94,5.823-4.184-2.564-6.069-6.286-11.759-4.851a13.548,13.548,0,0,0-5.508,3.254c-3.26,2.846-4.167,5.914-8.447,2.938-3.946-2.743-6.046-5.3-11.442-4.374-3.9.669-6.995,2.8-7.856,6.779a.826.826,0,0,0,1.2.922c3.814-2.261,7.64-3.46,11.394-.357,1.767,1.461,2.669,3.7,4.473,5.113,3.117,2.437,6.3,2.391,9.57.358,2.255-1.4,3.835-4.394,6.179-5.537,3.877-1.891,6.2,1.486,9.258,3.545a10.614,10.614,0,0,0,11.281.425c5.828-2.986,8.136-8.8,14.751-3.426,3.311,2.689,5.771,5.823,10.57,5.083a10.65,10.65,0,0,0,4.7-2.12c1.156-.846,3.5-4.683,4.762-5,1.618-.414,3.4,2.023,4.9,2.576,2.286.843,3.616.576,5.677-.72C439.431,5169.721,439.23,5164.971,435.772,5164.218Z"/><path class="b" d="M484.131,5143.886a5.9,5.9,0,0,0-6.469,2.633c-1.029,1.6-1.287,3.96-2.846,5.077-.929.666-2.221.216-3.441-.187a2.451,2.451,0,0,0-3,1.7c-.813,4.849,4.05,7.782,8.389,7.776,6.108-.009,10.912-5.789,11.576-11.48C488.623,5146.957,486.354,5144.5,484.131,5143.886Z"/><path class="b" d="M351.947,5236.726c-2.349-1.756-6.152-2.443-8.734-.615-4.057,2.874-6.5,7.1-8.787,11.414-2.3-.911-4.794-2.308-7.169-2.191a2.208,2.208,0,0,0-2.177,2.177c.15,3.2,2.212,5.746,4.056,8.258,2.4,3.269,4.681,6.463,9.162,6.529,4.261.063,7.038-2.672,9.619-5.711,2.859-3.365,6.22-7.07,6.848-11.595C355.211,5241.784,354.733,5238.808,351.947,5236.726Z"/><path class="b" d="M468.41,5283.763a.69.69,0,0,0-1-.406c-5.273,2.272-9.34,8.3-13.33,12.276-.909.906-1.853,1.8-2.818,2.682-2.1-11.038-10.133-23.447-21.272-26.516a2,2,0,0,0-2.426,2.427c.666,3.907,2.223,7.431,2.5,11.451a83.406,83.406,0,0,1-.24,12.771c-.645,7.628-2.261,15.471-8.16,20.9-5.639,5.19-15.586,7.658-22.914,5.481-7.3-2.17-12.385-9.61-19.585-11.141a2.939,2.939,0,0,0-3.226,1.313,10.194,10.194,0,0,0-1.207,3.323c-3.462-2.013-7.408-1.732-11.484-1.915-4.895-.219-9.712-2.252-14.6-1.985-.478.025-.991.508-.787,1.033,3.148,8.082,20.634,15.427,27.592,8.463,2.836,6.724,11.995,12.249,17.455,14.755,14.063,6.453,28.918,9.531,42.246-.446a42.716,42.716,0,0,0,16.178-27,40.256,40.256,0,0,0,8.31-7.562C464,5298.618,469.934,5290.908,468.41,5283.763Z"/><path class="b" d="M349.173,5363.085c-3.755-3.891-11.551.081-9.505,5.533a17.419,17.419,0,0,1,1.246,3.751,1.35,1.35,0,0,1-.692-.01c-.909-.205-2.311.329-3.224.453-3.613.491-7.736.661-10.872,2.678a1.1,1.1,0,0,0-.22,1.71c2.748,2.127,6.3,2.79,9.637,3.567,3.393.789,7.126,2.043,10.621,1.113a10.127,10.127,0,0,0,6.939-7.08C354.271,5370.282,352.221,5366.244,349.173,5363.085Z"/><path class="b" d="M343.421,5397.891c-3.5-2.62-9.308,1.787-7.649,5.881.686,1.694,1.522,3.331,2.186,5.033-.447.086-.8.157-.892.169-4.379.583-8.886.836-12.93,2.747-1.923.91-1.743,3.9,0,4.858,3.462,1.908,7.48,2.375,11.363,2.728s8.153,1.055,11.535-1.4C353.988,5412.847,348.729,5401.868,343.421,5397.891Z"/><path class="b" d="M343.3,5433.078c-3.938-3.093-11.8-.437-9.565,5.568a31.422,31.422,0,0,0,3.411,6.507c-4.913-.167-10.263-.171-14.7,1.457-1.484.544-2.589,2.767-1.051,3.98,3.749,2.953,8.489,4.264,13.04,5.5,4.145,1.129,9.786,2.724,13.8.392C358.263,5450.662,349.424,5437.889,343.3,5433.078Z"/><path class="b" d="M426.1,5435.952a5.945,5.945,0,0,0-2.842.737l-1.019.787q1.852-1.5-.506.355a12.371,12.371,0,0,0-2.627,5.139c-.14.423-.265.858-.407,1.286-.1.153-.489.954-.59,1.132-.132.252-.291.488-.444.728l-.117.11c-.085.05-.2.122-.342.21l-.559-.287c-.143-.151-.451-.429-.69-.686a2.978,2.978,0,0,0-3.547-.458c-2.563,1.417-3.312,5.074-2.464,7.684a10.618,10.618,0,0,0,7.192,6.553c8.151,2.23,15.61-5.28,16.633-12.892C434.42,5441.538,431.46,5435.94,426.1,5435.952Z"/><path class="b" d="M445.952,5370.472a156.658,156.658,0,0,1-17.359,17.487,41.86,41.86,0,0,1-5.975,4.865c-3.65,2.081-4.97,1.594-8.081-1-3.189-2.656-5.838-6.538-8.7-9.539s-4.268-5.512-8.277-3.906c-6.589,2.639-14.459,9.455-19,14.875a.957.957,0,0,0,1.154,1.5,47.955,47.955,0,0,0,9.861-6.515c1.815-1.51,3.473-3.243,5.337-4.684,3.685-2.85,3.888-3.217,6.419.408,3.619,5.186,8.287,15.616,14.513,18.119,5.863,2.356,12.4-3.6,16.718-6.738a110.316,110.316,0,0,0,19.543-18.714C455.684,5372.36,449.556,5366.169,445.952,5370.472Z"/><path class="b" d="M656.011,5301.623c-6.822-19.97-13.214-40.076-19.686-60.161-5.494-17.05-10.657-36.075-23.139-49.443a.274.274,0,0,0-.455.264c2.942,8.19,5.7,16.467,8.346,24.793-.646-1.711-1.3-3.42-1.929-5.135-3.833-10.371-7.654-20.726-11.3-31.166-3.071-8.8-6.307-19.492-13.716-25.636-.7-.581-2.246-.3-2.091.866,1.223,9.21,4.346,18.279,5.905,27.5,1.6,9.459,2.907,18.992,5.45,28.257,5.518,20.108,13.839,39.406,21.41,58.8,3.714,9.514,7.563,18.969,11.009,28.584,2.867,8,11.165,22.207,1.2,27.45-7.06,3.715-17.143,5.768-25.4,9.785.116-3.234.164-6.49.169-9.8.011-6.132-.011-12.231-.184-18.33a8.19,8.19,0,0,0,1.567-.24,12.5,12.5,0,0,0,8.985-13.437c-.346-2.592-2.072-5.341-4.976-5.341s-5.061,2.641-6.33,4.756c-.659-8.935-.905-18.924-4.576-27.092a1.093,1.093,0,0,0-1.879,0c-3.817,8.171-4.155,18.152-5.187,27.008-1.27,10.887-1.892,21.736-2.56,32.676a187.429,187.429,0,0,0,.008,27.5,5.917,5.917,0,0,0,.75,8.225,120.671,120.671,0,0,1,.211,12.48c-.161,4.719-.734,8.113,1.6,12.286a2.824,2.824,0,0,0,4.817,0c2.511-3.529,2.365-6.452,2.666-10.732.313-4.455.776-8.837,1.491-13.205,6.526-1.259,13.2-4.61,18.925-6.769,8.452-3.189,18.087-6.12,25.658-11.163,5.561-3.7,10.42-9.053,10.917-15.961C664.347,5320.107,658.9,5310.085,656.011,5301.623Z"/><path class="b" d="M571.517,5310.754a5.22,5.22,0,0,0-.7-.542,3.549,3.549,0,0,0-4.205.542l-.067.072c-.148.063-.347.15-.658.286-.129.067-.66.232-.538.258a12,12,0,0,1-2.928-.405.758.758,0,0,0-.92.92,6.833,6.833,0,0,0,3.222,5.054,5.3,5.3,0,0,0,6.8-1.278C572.578,5314.32,573.111,5312.03,571.517,5310.754Z"/><path class="b" d="M545.155,5313.32c-2.068-1.8-5.5-1.755-6.939.894a14.243,14.243,0,0,0-1.506,3.945,6.007,6.007,0,0,1-.993,2.85,12.255,12.255,0,0,1-2.058,2.027c-.971.748-2.253,1.127-3.077,2.019a2.3,2.3,0,0,0-.615,1.693c-.067-.241-.073-.174-.012.222a1.692,1.692,0,0,0,.271.848,3.3,3.3,0,0,0,.619.928,7.739,7.739,0,0,0,3.226,1.6,10.276,10.276,0,0,0,7.973-1.182C546.954,5325.975,550.294,5317.779,545.155,5313.32Z"/><path class="b" d="M538.39,5289.317a4.388,4.388,0,0,0-7.91,1.034c-1.185,3.651-1.369,5.392-4.045,8.1a1.563,1.563,0,0,0,0,2.163c2.233,2.512,6.553,2.3,9.232.6C539.5,5298.793,540.958,5293.079,538.39,5289.317Z"/><path class="b" d="M523.208,5254.6a6.093,6.093,0,0,0-6.022,1.591c-2.282,2.4-2.517,5.061-3.566,7.981-.582,1.619-1.708,1.166-3.47,2.272a2.427,2.427,0,0,0-.484,3.761c4,4.161,9.361,4.147,13.445-.088C527.129,5265.954,530.612,5257.234,523.208,5254.6Z"/><path class="b" d="M562.339,5246.876a6.449,6.449,0,0,0-7.757-1,10.708,10.708,0,0,0-2.791,2.679c1.031-1.319-.579.687-.759.966a11.544,11.544,0,0,0-.527,1.067c-.221.262-.457.515-.677.751-.094.041-.187.077-.332.141a12.562,12.562,0,0,0-1.248.715c-.2.109-.261.146-.2.128l-.717.3a1.489,1.489,0,0,0-.345.038,3.364,3.364,0,0,0-3.187,4.184c1.139,5.6,7.256,8.31,12.458,6.721C563.123,5261.469,567.724,5252.847,562.339,5246.876Z"/><path class="b" d="M572.451,5273.908a6.27,6.27,0,0,0-7.509-.969,9.519,9.519,0,0,0-3.649,4.622c-.221.54-.38,1.085-.562,1.628-.062.079-.143.184-.247.321-.24.317-.968,1.241-1.2,1.54-.09.013-.654.384-.4.294-.908.316-1.823.571-2.767.838a2.335,2.335,0,0,0-1.615,2.845c1.529,4.42,7.574,6.405,11.848,5.175C572.807,5288.345,577.824,5279.391,572.451,5273.908Z"/><path class="b" d="M527.174,5330.057c-3.485,1.657-6.856,3.457-10.225,5.339-4.632,2.588-6.417,1.1-8.568-3.419-3.332-7-6.83-13.868-10.453-20.722-.038-.073-.138-.02-.124.052,1.27,6.893,2.54,13.76,4.123,20.589.993,4.282,1.659,9.166,4.61,12.653,6.813,8.052,19.495-.673,26.631-4.238C540.04,5336.878,534.018,5326.8,527.174,5330.057Z"/><path class="b" d="M510.084,5349.891c-5.737-.335-8.934,7.673-10.759,12.139-2.551,6.243-5.813,14.82-4.646,21.585.01.063.091.07.132.035,4.91-4.279,6.714-11.657,9.54-17.4a47.481,47.481,0,0,1,4.591-7.972c1.888-2.482,3.23-3.182,3.183-6.35A2.087,2.087,0,0,0,510.084,5349.891Z"/><path class="b" d="M545.637,5338.138c-.474-1.252-.727-1.951-1.952-2.539a4.367,4.367,0,0,0-5.148.664c-8.274,9.3-14.01,26.539-11.926,38.945a.888.888,0,0,0,1.478.39c7.8-9.812,7.976-23.761,16.456-33.326A4.244,4.244,0,0,0,545.637,5338.138Z"/><path class="b" d="M570.871,5331.506a2.071,2.071,0,0,0-3.411-.9c-4.9,3.967-5.1,12.392-5.977,18.3a159.555,159.555,0,0,0-1.393,21.507.751.751,0,0,0,1.469.2c1.6-7.281,3.652-14.4,5.756-21.551C568.961,5343.472,572.616,5337.26,570.871,5331.506Z"/><path class="b" d="M601.771,5313.286c2.362-11.962,5.756-25.6,3.941-37.815-.886-5.96-5.418-13.352-11.59-8.145a.079.079,0,0,0,.035.132c8.412,2.18.968,30.081-.322,35.891-2.647,11.917-6.01,23.636-7.749,35.741-1.428,9.933-1.984,19.955-.583,29.926,1.049,7.466,2.4,20.76,11.386,21.963a2.982,2.982,0,0,0,2.643-1.516c2.9-5.056-.506-8.95-1.948-14.117a71.067,71.067,0,0,1-2.275-21.235C595.71,5340.294,599.1,5326.789,601.771,5313.286Z"/><path class="b" d="M647.309,5365.218c-2.218,9.609-10.69,16.905-15.426,25.467a184.391,184.391,0,0,0-12.233,27.761c-5.394,15.249-12.3,37.762-5.349,53.455a1.234,1.234,0,0,0,2.115,0c4.983-8.059,6.75-18.04,10.457-26.729a240.4,240.4,0,0,1,12.836-25.735c9.4-16.29,21.924-32.669,22.885-52.151C663.024,5358.559,649.284,5356.661,647.309,5365.218Z"/><path class="b" d="M487.185,5464.214c-1.372-1.308-2.755-1.438-3.774-2.959-1.464-2.185-1.9-6.387-2.727-8.948-3.657-11.269-7.167-22.472-10.226-33.9-.325-1.212-2.28-1.634-2.86-.374-4.437,9.642-.53,22.986.545,33.131,1.1,10.339,1.019,20.8,12.048,25.069,3.808,1.475,7.648-1.666,8.843-5.021A6.46,6.46,0,0,0,487.185,5464.214Z"/><path class="b" d="M617.7,5367.08c-2.192-2.9-5.472-5.515-7.406-8.355-3.685-5.409-13.541-2.25-11.194,4.719,1.312,3.9,1.066,9.005,2.949,12.838-1.287,3.058-2.536,6.132-3.586,9.277-1.5,4.486,5.069,8.573,8.191,4.769a138.98,138.98,0,0,1,13.475-14.074C623.789,5372.9,621.4,5368.324,617.7,5367.08Z"/><path class="c" d="M589.962,5195.849c-1.19-8.34-5.648-20.6-15.486-20.588-5.556.006-11.392,3.033-16.6,4.747-6.823,2.245-13.65,4.478-20.464,6.754s-13.626,4.563-20.439,6.844c-6.026,2.018-13.492,3.468-19.079,6.524a8.844,8.844,0,0,0-3.644,3.441c-1.487-.661-3.483-.276-3.746,1.652-.756,5.518.762,10.539,2.683,15.718,1.543,4.162,3.311,10.661,7.624,12.967,4.475,2.392,10.937-.75,15.228-1.994q10.062-2.916,20.05-6.077,18.543-5.874,36.8-12.6C581.184,5210.185,591.517,5206.744,589.962,5195.849Z"/><path class="d" d="M361.251,5173.515a2.365,2.365,0,0,1-1.507-.54,135.82,135.82,0,0,1-11.507-10.5c-1.293.868-2.552,1.812-3.862,2.793a46.55,46.55,0,0,1-9.177,5.8,2.374,2.374,0,0,1-1.9-4.35,42.4,42.4,0,0,0,8.233-5.251,69.881,69.881,0,0,1,5.855-4.078,2.374,2.374,0,0,1,2.954.41,124.952,124.952,0,0,0,10.836,10.191c4.615-4.22,8.661-7.752,12.622-11.025a2.375,2.375,0,0,1,3.114.078,149.168,149.168,0,0,0,11.864,9.938c3.742-2.6,8.369-5.793,13.042-8.912a2.375,2.375,0,0,1,2.986.287c1.146,1.13,2.256,2.3,3.364,3.472a75.318,75.318,0,0,0,5.863,5.767c1.289-1.233,2.554-2.5,3.789-3.744,1.882-1.89,3.827-3.844,5.882-5.7a2.375,2.375,0,0,1,3.194.008c.57.521,1.126,1.057,1.68,1.591,2.07,2,4.025,3.887,6.586,4.675a2.375,2.375,0,1,1-1.4,4.539c-3.645-1.122-6.107-3.5-8.488-5.8-1.4,1.329-2.76,2.7-4.092,4.035-1.741,1.75-3.542,3.559-5.421,5.282a2.373,2.373,0,0,1-3.025.153,63.984,63.984,0,0,1-8.02-7.542c-.628-.664-1.256-1.328-1.892-1.984-4.67,3.139-9.2,6.279-12.724,8.735a2.371,2.371,0,0,1-2.739-.018,138.371,138.371,0,0,1-12.12-9.886c-3.833,3.216-7.813,6.735-12.381,10.947A2.369,2.369,0,0,1,361.251,5173.515Z"/><path class="d" d="M404.086,5229.581a2.375,2.375,0,0,1-2.367-2.217c-.528-7.913-.528-15.307-.528-23.136a2.375,2.375,0,0,1,4.75,0c0,7.747,0,15.066.517,22.82a2.375,2.375,0,0,1-2.212,2.527C404.193,5229.579,404.14,5229.581,404.086,5229.581Z"/><path class="d" d="M394.685,5217.569a2.375,2.375,0,0,1-.387-4.717,43.616,43.616,0,0,1,7.336-.519c1.284,0,2.569.03,3.854.061,1.246.029,2.494.06,3.742.06,1.559,0,2.85-.047,4.062-.148a2.374,2.374,0,1,1,.394,4.732c-1.347.112-2.762.165-4.456.165-1.286,0-2.57-.03-3.855-.061-1.248-.03-2.495-.06-3.741-.06a39.034,39.034,0,0,0-6.555.455A2.4,2.4,0,0,1,394.685,5217.569Z"/><path class="d" d="M341.921,5255.993a2.369,2.369,0,0,1-1.269-.368c-1.249-.791-2.505-1.572-3.761-2.353a133.335,133.335,0,0,1-15.419-10.62,2.374,2.374,0,0,1-.348-3.281c2.35-3.014,4.849-5.929,7.267-8.749,1.46-1.7,2.921-3.408,4.354-5.138a2.375,2.375,0,0,1,3.433-.236c3.51,3.218,5.488,4.326,12.045,8,1.483.831,3.191,1.786,5.19,2.92a2.376,2.376,0,0,1,.861,3.293c-3.142,5.2-6.668,10.212-10.077,15.057l-.333.472A2.374,2.374,0,0,1,341.921,5255.993Zm-15.6-15.529a150.127,150.127,0,0,0,13.077,8.775q.94.585,1.879,1.17c2.592-3.689,5.222-7.471,7.648-11.327-1.1-.621-2.106-1.182-3.022-1.695-5.611-3.141-8.127-4.549-11.069-7q-1.412,1.671-2.838,3.326C330.113,5235.911,328.178,5238.168,326.321,5240.464Z"/><path class="d" d="M408.836,5339.029c-18.991,0-39.324-15.641-39.324-38.926,0-21.307,18.571-40.71,38.964-40.71a32.564,32.564,0,0,1,9.151,1.319c.381.111.748.211,1.1.31a20.208,20.208,0,0,1,5.163,2c14.8,8.57,22.626,21.49,22.626,37.365a38.522,38.522,0,0,1-11.539,27.883A37.831,37.831,0,0,1,408.836,5339.029Zm-.36-74.887c-17.588,0-34.215,17.476-34.215,35.961,0,22.3,20.079,34.177,34.575,34.177,20.344,0,32.936-17.592,32.936-33.891,0-14.285-6.815-25.474-20.256-33.255a15.692,15.692,0,0,0-4.048-1.534c-.379-.1-.769-.212-1.173-.33A27.832,27.832,0,0,0,408.476,5264.142Z"/><path class="d" d="M410.085,5319.093a17.178,17.178,0,0,1-9.813-3.086,2.375,2.375,0,1,1,2.7-3.9,12.45,12.45,0,0,0,7.11,2.241c5.987,0,10.39-4.461,10.531-6.891-.3-1.517-1.648-3.636-3.4-3.636a48.092,48.092,0,0,0-4.948.355,53.784,53.784,0,0,1-5.659.393c-6.64,0-13.339-2.75-13.339-8.892,0-9.323,10.185-15.093,19.622-15.093a19.781,19.781,0,0,1,2.455.148,2.374,2.374,0,1,1-.586,4.712,15.493,15.493,0,0,0-1.869-.111c-6.236,0-14.873,3.594-14.873,10.344,0,3.018,5.269,4.142,8.59,4.142a49.281,49.281,0,0,0,5.161-.366,52.329,52.329,0,0,1,5.446-.381c4.269,0,7.477,3.943,8.112,7.755a4.168,4.168,0,0,1,.04.51C425.369,5312.659,418.552,5319.093,410.085,5319.093Z"/><path class="d" d="M404.2,5286.594a2.373,2.373,0,0,1-2.125-1.313,13.53,13.53,0,0,1-1.209-5.646,19.385,19.385,0,0,0-.19-2.1,2.375,2.375,0,1,1,4.685-.783,23.267,23.267,0,0,1,.247,2.618,9.4,9.4,0,0,0,.713,3.786,2.375,2.375,0,0,1-2.121,3.437Z"/><path class="d" d="M414.809,5325.112a2.377,2.377,0,0,1-2.3-2.953,1.74,1.74,0,0,0,.039-.407,10.753,10.753,0,0,0-.221-1.723,13.541,13.541,0,0,1-.282-2.4,2.374,2.374,0,1,1,4.749,0,10.191,10.191,0,0,0,.208,1.566,14.512,14.512,0,0,1,.3,2.559,6.371,6.371,0,0,1-.182,1.562A2.376,2.376,0,0,1,414.809,5325.112Z"/><path class="d" d="M415.1,5400.237a2.477,2.477,0,0,1-.392-.032,2.372,2.372,0,0,1-1.686-1.2c-2.374-4.3-4.593-8.743-6.739-13.042-1.455-2.912-2.947-5.9-4.48-8.827-7.228,4.859-16.325,10.887-25.833,16.788a2.375,2.375,0,0,1-2.505-4.035c10.427-6.471,20.372-13.107,27.871-18.164a2.375,2.375,0,0,1,3.418.841c2,3.711,3.92,7.556,5.778,11.276,1.687,3.379,3.42,6.851,5.227,10.247,11.632-10.242,24.318-19.431,35.4-27.308a2.374,2.374,0,1,1,2.75,3.871c-11.7,8.311-25.181,18.088-37.22,28.969A2.378,2.378,0,0,1,415.1,5400.237Z"/><path class="d" d="M450.97,5386.817c-.073,0-.145,0-.218-.01a2.373,2.373,0,0,1-2.15-2.579,60.235,60.235,0,0,1,3.384-15.1c-5.652.04-11.264-.167-16.45-.391a2.375,2.375,0,1,1,.2-4.745c6.2.268,13.02.51,19.7.327a2.353,2.353,0,0,1,2.031,1.041,2.378,2.378,0,0,1,.217,2.27,55.924,55.924,0,0,0-4.353,17.029A2.375,2.375,0,0,1,450.97,5386.817Z"/><path class="d" d="M418.436,5453.392a10.6,10.6,0,0,1-10.339-10.525c0-5.921,4.992-11.116,10.684-11.116a9.371,9.371,0,0,1,1.509.124,13.851,13.851,0,0,1,8.957,5.21,5.375,5.375,0,0,1,1.023,3.347c0,.442-.034.9-.071,1.368-.029.354-.059.713-.059,1.067C430.14,5446.083,425.718,5453.392,418.436,5453.392Zm.345-16.891c-3.106,0-5.935,3.034-5.935,6.366,0,4.353,4.158,5.776,5.59,5.776,4.371,0,6.892-4.815,6.954-5.793,0-.464.037-.949.075-1.427.027-.339.056-.671.056-.991a1.386,1.386,0,0,0-.046-.467,9,9,0,0,0-5.958-3.4A4.581,4.581,0,0,0,418.781,5436.5Z"/><path class="d" d="M325.978,5377.283a2.374,2.374,0,0,1-1.731-4c4.08-4.347,8.326-9.378,13.362-15.832a2.374,2.374,0,0,1,4.005.416c1.265,2.584,2.665,5.193,4.019,7.716,1.121,2.089,2.244,4.181,3.317,6.3a2.375,2.375,0,0,1-1.966,3.443c-7.218.463-14.534,1.241-20.738,1.943A2.49,2.49,0,0,1,325.978,5377.283Zm13.066-13.98c-2.529,3.172-4.872,5.994-7.118,8.567,3.564-.373,7.331-.734,11.133-1.027q-.8-1.51-1.611-3.013C340.652,5366.346,339.84,5364.831,339.044,5363.3Z"/><path class="d" d="M336.287,5412.074c-3.176,0-6.372-.14-9.463-.275-2.04-.089-4.084-.179-6.135-.23a2.375,2.375,0,0,1-1.718-3.95l3.839-4.346c3.239-3.674,6.589-7.473,9.912-11.117a2.429,2.429,0,0,1,1.88-.771,2.369,2.369,0,0,1,1.788.965c3.334,4.534,7.269,9.915,11.181,15.442a2.374,2.374,0,0,1-1.635,3.727A75.806,75.806,0,0,1,336.287,5412.074ZM325.852,5407q.591.026,1.18.053c4.8.21,9.981.385,14.275.128-2.432-3.4-4.825-6.679-7.023-9.678-2.657,2.948-5.32,5.969-7.912,8.908Z"/><path class="d" d="M346.419,5449.7c-8.641,0-17.38-.678-25.831-1.334l-2.4-.186a2.374,2.374,0,0,1-1.638-3.891c3.883-4.634,8.263-9.473,13.392-14.792a2.372,2.372,0,0,1,3.547.146c3.646,4.457,7.491,8.5,11.561,12.786q1.545,1.626,3.1,3.269a2.375,2.375,0,0,1-1.73,4Zm-23.2-5.893c5.8.447,11.719.873,17.6,1.054-3.1-3.268-6.269-6.629-9.279-10.157C328.506,5437.892,325.752,5440.9,323.216,5443.81Z"/><path class="d" d="M491.844,5476.822a2.372,2.372,0,0,1-2.142-1.348c-11.717-24.451-22.795-55.863-22.795-64.635,0-11.336,5.7-27.159,15.26-42.326,7.288-11.568,17.76-23.93,25.293-23.93,4.25,0,8.078,2.61,10.541,4.8a2.374,2.374,0,0,1-3.155,3.549c-2.611-2.321-5.235-3.6-7.386-3.6-9.648,0-35.8,38.128-35.8,61.507,0,7.242,9.96,36.772,22.328,62.582a2.374,2.374,0,0,1-2.14,3.4Z"/><path class="d" d="M493.81,5399a2.374,2.374,0,0,1-2.318-2.9c9.129-40.166,39.655-64.554,50.642-64.554,4.385,0,6.87,3.312,8.205,5.092a2.374,2.374,0,1,1-3.8,2.849c-1.791-2.387-2.9-3.192-4.406-3.192-6.369,0-36.628,19.572-46.01,60.856A2.377,2.377,0,0,1,493.81,5399Z"/><path class="d" d="M526.825,5391.141a2.337,2.337,0,0,1-.451-.044,2.374,2.374,0,0,1-1.884-2.779c6.674-34.705,27.369-64.025,45.19-64.025a2.375,2.375,0,1,1,0,4.749c-13.7,0-33.706,24.712-40.525,60.172A2.376,2.376,0,0,1,526.825,5391.141Z"/><path class="d" d="M610.919,5475.5a2.376,2.376,0,0,1-2.374-2.334c-.007-.422-.01-.841-.01-1.261,0-32.248,19.52-59.565,33.774-79.511,8.4-11.749,15.647-21.9,15.647-28.524,0-2.685-3.058-3.469-3.4-3.473-.664,0-1.3-.017-1.933-.033-.564-.015-1.118-.029-1.672-.029-16.076,0-31.758,18.153-39.676,28.973-3.048,4.165-7.15,7.075-9.976,7.075a4.616,4.616,0,0,1-3.306-1.438c-4.221-4.233-4.521-18.984-4.47-36.387l.006-3.314c0-16.3,2.52-33.324,4.742-48.345,1.791-12.106,3.338-22.56,3.338-30.592,0-10.011-4.994-12.057-6.331-12.057-.279,0-6.98.647-20.264,56.939-7.013,29.721-12.274,59.644-12.418,60.766a2.394,2.394,0,0,1-2.608,2.08,2.356,2.356,0,0,1-2.118-2.538c.092-1.108,5.406-31.149,12.393-60.849,14.384-61.147,21.834-61.147,25.015-61.147,2.875,0,11.08,3.087,11.08,16.806,0,8.382-1.571,19-3.389,31.287-2.2,14.859-4.69,31.7-4.69,47.65l-.007,3.328c-.025,8.461-.091,30.829,3.1,33.048.8-.16,3.473-1.565,6.071-5.116,18.7-25.555,33.981-30.918,43.509-30.918.594,0,1.189.015,1.8.031.588.015,1.188.03,1.81.03,2.927,0,8.155,2.748,8.155,8.223,0,8.15-7.3,18.359-16.534,31.285-14.652,20.506-32.888,46.025-32.888,76.75q0,.588.01,1.181A2.383,2.383,0,0,1,610.919,5475.5Z"/><path class="d" d="M596.783,5351.838a2.375,2.375,0,0,1-.773-4.621l48.544-16.688a8.642,8.642,0,0,0,5.375-10.854l-32.055-96.737a2.375,2.375,0,0,1,4.508-1.494l32.055,96.737a13.407,13.407,0,0,1-8.339,16.839l-48.543,16.688A2.351,2.351,0,0,1,596.783,5351.838Z"/><path class="d" d="M506.384,5348.694A2.376,2.376,0,0,1,504.11,5347l-43.264-144.445a11.274,11.274,0,0,1,7.416-13.947l117.107-36.532a13.616,13.616,0,0,1,16.9,8.673l14.533,43.86a2.374,2.374,0,1,1-4.508,1.493l-14.533-43.859a8.845,8.845,0,0,0-10.98-5.632l-117.106,36.532a6.506,6.506,0,0,0-4.281,8.05l43.264,144.445a2.379,2.379,0,0,1-2.276,3.057Z"/><path class="d" d="M501.48,5237.761a10.354,10.354,0,0,1-2.46-.292,3.833,3.833,0,0,1-.489.033c-1.82,0-2.822,0-7.495-15.065-.041-.133-4.12-13.369-4.12-15.284,0-6.486,4.629-7.876,15.813-11.236,4.593-1.379,10.309-3.1,17.711-5.665,8.3-2.878,16.8-5.076,25.017-7.2,8.9-2.3,18.093-4.677,27-7.915a13.316,13.316,0,0,1,4.553-.816c12.205,0,15.577,27.043,15.577,27.316,0,6.821-13.672,11.692-28.9,16.49-1.522.479-2.839.893-3.846,1.234C538.823,5226.459,503.247,5237.761,501.48,5237.761Zm-1.8-5.015a2.733,2.733,0,0,1,.287.062,5.369,5.369,0,0,0,1.317.2c3.009-.7,32.677-9.921,57.031-18.149,1.031-.349,2.38-.774,3.939-1.265,21.143-6.66,25.58-10.18,25.58-11.96-.167-3.642-4.44-22.566-10.827-22.566a8.579,8.579,0,0,0-2.931.529c-9.118,3.316-18.428,5.722-27.431,8.051-8.13,2.1-16.535,4.274-24.649,7.089-7.5,2.6-13.266,4.335-17.9,5.727-11.268,3.385-12.43,4.011-12.43,6.688C491.93,5209.24,497.526,5228.393,499.681,5232.746Z"/><path class="d" d="M514.191,5269.424c-4.523,0-7.683-3.066-7.683-7.457,0-4.937,4.41-10.358,8.424-10.358l.106,0a6.923,6.923,0,0,1,1.1-.089c5.577,0,8.62,5.441,8.62,8.237A10.613,10.613,0,0,1,514.191,5269.424Zm1.62-13.126a5.584,5.584,0,0,1-.879.06c-.973,0-3.674,2.79-3.674,5.609a2.615,2.615,0,0,0,2.933,2.708c4.909,0,5.818-4.879,5.821-4.929-.046-.662-1.4-3.474-3.871-3.474A2,2,0,0,0,515.811,5256.3Z"/><path class="d" d="M549.495,5256.881a8.15,8.15,0,0,1-8.256-8.219,9.407,9.407,0,0,1,8.515-9.159c5.278-.539,9.442,4.31,9.442,8.621C559.2,5252.174,554.958,5256.881,549.495,5256.881Zm1.07-12.669a3.14,3.14,0,0,0-.337.017,4.616,4.616,0,0,0-4.239,4.433,3.377,3.377,0,0,0,3.506,3.469c2.91,0,4.952-2.6,4.952-4.007C554.447,5246.745,552.973,5244.212,550.565,5244.212Z"/><path class="d" d="M586.507,5242.184c-4.294,0-7.531-3.483-7.531-8.1s3.025-9.414,8.161-8.838a32.571,32.571,0,0,1,4.638.843c3.181.794,4.846,4.317,4.846,7.385C596.621,5237.584,592.3,5242.184,586.507,5242.184Zm-.163-12.235c-1.828,0-2.619,2.737-2.619,4.133,0,1.975,1.144,3.353,2.782,3.353,3.276,0,5.365-2.6,5.365-3.963,0-1.305-.7-2.641-1.249-2.778a27.762,27.762,0,0,0-4.01-.73A2.552,2.552,0,0,0,586.344,5229.949Z"/><path class="d" d="M525.341,5299.978a7.4,7.4,0,0,1-7.319-7.631,9.764,9.764,0,0,1,6.567-9.18,7.962,7.962,0,0,1,2.533-.4c4.165,0,8.473,2.955,8.473,7.9C535.595,5295.294,532.073,5299.978,525.341,5299.978Zm1.781-12.459a3.284,3.284,0,0,0-1.029.153,5.027,5.027,0,0,0-3.322,4.675,2.661,2.661,0,0,0,2.57,2.881c4.063,0,5.505-2.456,5.505-4.56C530.846,5288.085,528.158,5287.519,527.122,5287.519Z"/><path class="d" d="M559.856,5286.826c-5.4,0-8.621-2.705-8.621-7.236a9.932,9.932,0,0,1,7.361-9.372,5.783,5.783,0,0,1,1.649-.243c2.741,0,7.856,2.7,7.856,7.86C568.1,5281.5,564.889,5286.826,559.856,5286.826Zm.1-12.058a5.16,5.16,0,0,0-3.975,4.822c0,.869,0,2.487,3.872,2.487,1.8,0,3.5-2.647,3.5-4.242,0-2.176-2.651-3.095-3.113-3.111A.944.944,0,0,0,559.959,5274.768Z"/><path class="d" d="M534.194,5328.125c-5.329,0-9.05-3.377-9.05-8.211,0-4.633,2.689-8.284,6.691-9.083a3.286,3.286,0,0,1,.554-.055,3.225,3.225,0,0,1,1.517.4,7.8,7.8,0,0,1,3.388.643c1.294.646,4.849,3.376,4.849,6.447C542.143,5325.5,537.389,5328.125,534.194,5328.125Zm-1.976-12.476c-1.706.665-2.324,2.579-2.324,4.265,0,3.295,3.582,3.462,4.3,3.462.13,0,3.2-.058,3.2-5.107a3.56,3.56,0,0,0-3.915-2.343A3.1,3.1,0,0,1,532.218,5315.649Z"/><path class="d" d="M567.386,5314.744c-4.346,0-7.154-3.227-7.154-8.22,0-3.983,3.341-8.613,7.649-8.613a6.3,6.3,0,0,1,2.352.463c.278.111.567.2.857.3a9.361,9.361,0,0,1,3.319,1.656,7.525,7.525,0,0,1,2.864,5.6C577.273,5309.776,572.479,5314.744,567.386,5314.744Zm.495-12.083c-1.4,0-2.9,2.267-2.9,3.863,0,3.471,1.81,3.471,2.4,3.471,2.45,0,5.138-2.857,5.138-4.07a2.92,2.92,0,0,0-1.155-1.95,5.308,5.308,0,0,0-1.748-.787c-.391-.128-.778-.255-1.152-.4A1.568,1.568,0,0,0,567.881,5302.661Z"/><path class="d" d="M590.761,5267.767a2.37,2.37,0,0,1-1.748-.767,8.115,8.115,0,0,1-2.246-5.457,12.183,12.183,0,0,1,6.422-10.77,4.659,4.659,0,0,1,2.1-.481c3.373,0,9.981,4.56,9.981,10.073a8.68,8.68,0,0,1-2.834,6.411,2.375,2.375,0,0,1-3.267-3.448,3.984,3.984,0,0,0,1.352-2.963c0-2.389-3.963-5.269-5.238-5.324a7.417,7.417,0,0,0-3.769,6.5,3.482,3.482,0,0,0,.992,2.241,2.375,2.375,0,0,1-1.747,3.983Z"/><path class="d" d="M607.723,5301.954a9.283,9.283,0,0,1-7.495-3.744,2.375,2.375,0,1,1,3.8-2.848,4.572,4.572,0,0,0,3.694,1.843c3.642,0,4.934-2.471,4.934-4.588,0-2.789-2.221-5.935-5.3-5.677a3.629,3.629,0,0,0-2.281,1.146,2.374,2.374,0,0,1-3.358-3.358,8.358,8.358,0,0,1,5.244-2.521c5.516-.481,10.447,4.5,10.447,10.41C617.407,5298.027,613.334,5301.954,607.723,5301.954Z"/><path class="d" d="M475.457,5156.916c-.266,0-.515-.015-.78-.033-.186-.014-.385-.029-.627-.029-2.907,0-7.3-2.792-7.3-7a8.893,8.893,0,0,1,4.4-7.329,9.942,9.942,0,0,1,4.929-1.291c5.15,0,8.609,3.894,8.609,7.53C484.689,5152.7,480.979,5156.916,475.457,5156.916Zm-1.4-4.811c.361,0,.664.02.95.04.152.011.295.022.447.022,2.777,0,4.483-1.981,4.483-3.4,0-.818-1.111-2.781-3.86-2.781a5.253,5.253,0,0,0-2.572.665,4.119,4.119,0,0,0-2.011,3.206C471.5,5151.031,473.43,5152.078,474.06,5152.1Z"/><path class="d" d="M364.618,5319.845a2.457,2.457,0,0,1-.266-.015,30.831,30.831,0,0,1-5.041-1,2.375,2.375,0,1,1,1.306-4.567,25.958,25.958,0,0,0,4.261.851,2.375,2.375,0,0,1-.26,4.735Zm-14.632-5.651a2.364,2.364,0,0,1-1.321-.4,45.407,45.407,0,0,1-4-3.023,2.374,2.374,0,1,1,3.069-3.624,40.472,40.472,0,0,0,3.575,2.7,2.374,2.374,0,0,1-1.326,4.346Zm-11.294-10.976a2.37,2.37,0,0,1-1.921-.976c-.973-1.335-1.893-2.735-2.733-4.163a2.375,2.375,0,0,1,4.094-2.409c.761,1.294,1.594,2.564,2.476,3.774a2.374,2.374,0,0,1-1.916,3.774Zm-7.09-14.075a2.375,2.375,0,0,1-2.266-1.668,49.515,49.515,0,0,1-1.245-4.826,2.374,2.374,0,1,1,4.651-.954,44.986,44.986,0,0,0,1.127,4.364,2.378,2.378,0,0,1-2.267,3.084Zm-2.118-15.61a2.39,2.39,0,0,1-2.375-2.451c.051-1.589.174-3.2.376-4.932a2.374,2.374,0,1,1,4.716.551c-.186,1.6-.3,3.079-.346,4.534A2.373,2.373,0,0,1,329.484,5273.533Zm2.295-15.638a2.446,2.446,0,0,1-.5-.053,2.376,2.376,0,0,1-1.824-2.82l1.005-4.643a2.375,2.375,0,0,1,4.644,1l-1.005,4.642A2.376,2.376,0,0,1,331.779,5257.9Z"/><path class="d" d="M446.129,5301.111a2.374,2.374,0,0,1-.413-4.712,24.769,24.769,0,0,0,4.171-1.123,2.374,2.374,0,1,1,1.639,4.456,29.4,29.4,0,0,1-4.977,1.342A2.4,2.4,0,0,1,446.129,5301.111Zm13.9-7.062a2.374,2.374,0,0,1-1.618-4.113,35.331,35.331,0,0,0,3.047-3.237,2.375,2.375,0,0,1,3.647,3.043,40.313,40.313,0,0,1-3.459,3.671A2.369,2.369,0,0,1,460.029,5294.049Zm9.438-12.628a2.376,2.376,0,0,1-2.062-3.548c.768-1.351,1.507-2.724,2.229-4.1a2.374,2.374,0,1,1,4.208,2.2c-.748,1.429-1.514,2.85-2.309,4.248A2.374,2.374,0,0,1,469.467,5281.421Zm7.327-14.04a2.377,2.377,0,0,1-2.1-3.485q.417-.787.837-1.56a2.375,2.375,0,0,1,4.171,2.271q-.406.747-.809,1.508A2.374,2.374,0,0,1,476.794,5267.381Z"/></g></svg>