<svg xmlns="http://www.w3.org/2000/svg" width="520.966" height="22.126" viewBox="0 0 520.966 22.126"><defs><style>.a{fill:#ff0064;}</style></defs><path class="a" d="M2156.9,6562.384c21.637-2.035,43.293-3.823,64.96-5.483l32.506-2.42,32.52-2.253q65.061-4.2,130.211-7.069c21.712-1.049,43.435-1.864,65.158-2.787,10.864-.4,21.732-.659,32.6-.893l16.3-.274,16.308-.05,32.614.172c10.872.242,21.743.412,32.612.754l16.3.482,16.3.752c10.863.57,21.723,1.125,32.575,1.9l-.013.9c-43.474,2.027-86.87,2.753-130.274,4.036-43.394,1.211-86.821,1.052-130.234,2.2q-65.12,1.573-130.218,4.367-65.1,2.6-130.154,6.559Z" transform="translate(-2156.899 -6541.155)"/></svg>