<svg xmlns="http://www.w3.org/2000/svg" width="110" height="110" viewBox="0 0 110 110"><defs><style>.a,.b{fill:#023e88;}.b{fill-rule:evenodd;}.c{fill:none;}</style></defs><g transform="translate(-504.708 -1057.542)"><rect class="a" width="3.125" height="3.125" transform="translate(590.127 1098.792)"/><rect class="a" width="3.125" height="3.125" transform="translate(585.44 1094.104)"/><rect class="a" width="3.125" height="3.125" transform="translate(580.752 1089.417)"/><rect class="a" width="3.125" height="3.125" transform="translate(558.877 1080.042)"/><rect class="a" width="3.125" height="3.125" transform="translate(554.19 1075.354)"/><rect class="a" width="3.125" height="3.125" transform="translate(549.502 1070.667)"/><rect class="a" width="3.125" height="3.125" transform="translate(576.065 1084.729)"/><rect class="a" width="3.125" height="3.125" transform="translate(569.815 1084.729)"/><rect class="a" width="3.125" height="3.125" transform="translate(563.565 1084.729)"/><rect class="a" width="3.125" height="3.125" transform="translate(543.252 1070.667)"/><rect class="a" width="3.125" height="3.125" transform="translate(538.565 1065.979)"/><path class="a" d="M596.377,1095.667v9.375H587v3.125H597.94a1.562,1.562,0,0,0,1.562-1.562h0v-10.937Z"/><path class="b" d="M538.565,1159.028h-18.65V1079.1h18.65Z"/><path class="b" d="M562.474,1159.09c-3.432,0-6.784,0-10.138,0-2.389,0-4.779-.057-7.165.014-1.084.033-1.438-.268-1.431-1.393.043-7.344.015-14.688.015-22.033q0-14.133.012-28.268v-1.537h18.707Z"/><path class="b" d="M586.3,1159.024H567.7V1132.45H586.3Z"/><rect class="c" width="110" height="110" transform="translate(504.708 1057.542)"/></g></svg>