<svg xmlns="http://www.w3.org/2000/svg" width="460.04" height="442.073" viewBox="0 0 460.04 442.073"><defs><style>.a{fill:#fff;}.b{fill:#e0dfe6;}.c{fill:#525d7d;}.d{fill:#2a95ff;}</style></defs><g transform="translate(-1242.964 -5076.875)"><path class="a" d="M1298.813,5412.832l-48.492,76.749,51.726.719,49.8-.451-17.015-42.9-15.729-9.152Z"/><path class="a" d="M1377.642,5408.805l-13.024,12.117-4.52,14.292v15.822l11.507,16.458s16.823,7.088,17.993,7.088,20.794-5.237,20.794-5.237,13.289-10.776,14.159-12.352,2.445-20.921,2.445-20.921l-.8-13.182-6.775-8.588-11.974-8.048-10.065-2.007h-10.993Z"/><path class="a" d="M1271.305,5222.718l.808-62.138,41.531,0,.965,21.3,11.811,5.257s6.865-3.173,5.834-4.1-.658-13.564-.658-13.564l7.414-3.284,200.607,3.284s6.077-4.274,31.76-5.7l31.686-2.949,20.534-73.337,6.662-3.259,20.952,75.767s-22.462-1.144-22.4,26.518l4,50.236,1.236,27.639,7.9,27-3.492,17.59,4.859,32.221-2.6,15.47,44.834,41.529,13.154,10.616v7.939l-11.07,8.361-41.183-29.805-14.309,10.954-11.95,42.7-6.819,28.875,2.335,41.121h-72.941l-7.088-34.629-14.246-64.59-23.208-29.8-103.877-10.644-50.985-4.2-19.181-7.391,3.662-79.847-10.362-6.443-16.063-44.67"/><path class="b" d="M1251.3,5258.3c-.118.066-.188.107-.238.14l-.154.064a10.36,10.36,0,0,0-2.406,1.569,6.145,6.145,0,0,0-1.168,1.177l-.1.134c-.044.049-.1.111-.178.2-.186.151-.429.3-.47.333a5.462,5.462,0,0,1-1.39.52,2.682,2.682,0,0,0-1.855,3.266c.887,2.849,3.21,4.481,6.012,5.243a8.313,8.313,0,0,0,10.512-6.066A5.9,5.9,0,0,0,1251.3,5258.3Z"/><path class="c" d="M1271.541,5226.515a2.375,2.375,0,0,1-2.375-2.375c0-8.383.187-16.977.368-25.289s.367-16.934.367-25.345c0-3.766-.036-7.2-.109-10.5a2.374,2.374,0,0,1,4.747-.1c.075,3.335.111,6.8.111,10.6,0,8.463-.187,17.1-.369,25.448-.179,8.287-.365,16.855-.365,25.186A2.375,2.375,0,0,1,1271.541,5226.515Z"/><path class="b" d="M1296.5,5324.988c-6.145-.826-9.951,3.9-12,9.014a6.41,6.41,0,0,1-.876,1.789c-.3.433-1.245,1.638-1.537,2.011-.119.067-.913.768-.553.6-1.587.751-3.544-.547-4.911.9-4.634,4.889,3.558,11.436,7.909,12.323,9.048,1.845,17.6-4.494,20.012-13.246C1306.11,5332.7,1302.544,5325.8,1296.5,5324.988Z"/><path class="b" d="M1359.971,5480.966c-.95-6.358-4.342-11.329-7.613-16.7-3.08-5.054-8.3-12.763-9.12-18.755a6.142,6.142,0,0,0-.237-2.009l-.07-.228c-1.857-6.012-8.282-6.408-11.968-2.851-.028-.047-.039-.1-.07-.144a4.875,4.875,0,0,0-2.931-2.1,7.417,7.417,0,0,1-1.78-.682,6.841,6.841,0,0,1-2.926-3.459,1.254,1.254,0,0,0-1.192-.714,69.976,69.976,0,0,0-15.038-18.256c-2.235-1.85-5.755-.155-5,2.909a103.3,103.3,0,0,0,3.083,10.03,41.378,41.378,0,0,1-2.563-5.247c-.352-1-.675-2.02-.953-3.075a3.962,3.962,0,0,0-1.436-2.4,3.2,3.2,0,0,0-5.248.333,4.475,4.475,0,0,0-1.7,4.382c.006.034.014.066.02.1a66.439,66.439,0,0,1-8.114,14.879c-3,4.089,2.61,8.019,6.29,6.291,3.053-1.434,6.057-1.678,9.305-2.266.12-.022.238-.054.357-.079.112.1.216.223.332.317a5.455,5.455,0,0,0,8.421-1.506c1.409,3.22,2.86,6.406,4.293,9.541,2.869,6.278,10.595,3.849,12.755-1.273.294,6.982,3.239,14.123,5.57,20.586,2.751,7.625,6.609,15.57,12.914,20.887C1352.353,5495.383,1361.267,5489.645,1359.971,5480.966Z"/><path class="b" d="M1434.681,5435.423c-1.772-9.684-7.76-27.121-20.923-22.54-2.9,1.008-4.648,5.064-1.951,7.389,5.893,5.082,2.42,12.82.9,19.441-1.56,6.781-1.82,12.778-8.151,16.686-9.592,5.921-24.252,8.05-33.53,1.058a2.129,2.129,0,0,0-2.885.757c-5.74,9.665,5.625,20.338,13.528,24.278,13.209,6.587,30.1,2.628,41.175-6.259C1435.953,5465.714,1437.554,5451.124,1434.681,5435.423Z"/><path class="b" d="M1455.668,5437.792c-2.922-1.273-4.855-.327-7.361,1.158a14.4,14.4,0,0,0-2.269,1.452,4.56,4.56,0,0,1-1.058.836,1.224,1.224,0,0,0-.563,1.382c.814,2.364,2.114,4.057,4.746,4.518,3.8.665,8.746-.865,8.681-5.551A4.319,4.319,0,0,0,1455.668,5437.792Z"/><path class="b" d="M1479.489,5437.913c-4.581-4.209-10.63.013-14.505,3.135a1.3,1.3,0,0,0,0,1.828c3.945,3.823,13.67,5.929,15.489-1.242A3.835,3.835,0,0,0,1479.489,5437.913Z"/><path class="b" d="M1492.715,5434.387c-1.328.238-2.385,1.508-3.239,2.479a6.012,6.012,0,0,1-2.551,1.752,1.441,1.441,0,0,0,0,2.755c3.283.856,9.16,0,9.175-4.408A2.714,2.714,0,0,0,1492.715,5434.387Z"/><path class="b" d="M1359.485,5422.549c-3.151-3.744-6.508-6.741-8.8-11.2-2.5-4.856-3.983-10.344-5.859-15.47-.256-.7-1.388-.85-1.575,0-2.7,12.32-2.84,28.549,8.439,36.772C1357.972,5437.235,1363.864,5427.749,1359.485,5422.549Z"/><path class="b" d="M1515.975,5372.859c-7.077-4.419-15.712-3.261-23.758-2.952-8.237.317-16.475.595-24.717.786-15.487.358-30.841.1-46.314-.709-15.413-.806-30.811-1.718-46.231-2.352-15.036-.617-32.092-2.441-46.3,3.324a.76.76,0,0,0-.179,1.367c12.192,8.77,28.846,10.579,43.4,12.537,15.877,2.137,31.772,3.6,47.767,4.52,15.963.923,31.9,1.85,47.856,2.918,8.234.552,16.474,1.049,24.717,1.441,8,.38,16.775,1.477,23.758-3.025A10.466,10.466,0,0,0,1515.975,5372.859Z"/><path class="b" d="M1372.59,5304.494a6.033,6.033,0,0,0-8.139-2.134c-5.305,3.271-6.95,8.9-7.482,14.867-.452,5.068.842,12.99-3.084,16.853-2.841,2.795-1.095,6.771,2.137,8.095C1374.56,5349.766,1378.9,5315.059,1372.59,5304.494Z"/><path class="b" d="M1410.936,5269.295c4.6-6.42-4.436-15.125-10.821-10.821-5.59,3.769-5.015,8.854-5,15.049.027,8.918-.055,17.834-.1,26.751-.045,8.391.095,16.783.091,25.174,0,3.362.575,6.569-.991,8.151-2.031,2.05-5.174,2.923-7.3,5.073a1.51,1.51,0,0,0,.3,2.35c4.489,2.337,11.426,4.26,16.348,2.333,7.322-2.866,6.479-11.4,6.783-17.907.439-9.435.9-18.875.983-28.321q.064-7.08.078-14.162.006-3.146,0-6.294C1411.314,5276.452,1410.741,5269.567,1410.936,5269.295Z"/><path class="b" d="M1444.742,5322.981c-.312-7.54.375-15.406-.3-22.837-.607-6.723-10.854-11.541-14.32-3.879-3.887,8.595-2.147,17.578-1.362,26.716.3,3.53,1.717,9.618.161,12.865-.984,2.054-4.42,2.986-6.608,4.943a1.1,1.1,0,0,0-.17,1.319c5.512,8.219,16.968,8.606,20.984-.966C1445.425,5335.674,1444.983,5328.8,1444.742,5322.981Z"/><path class="b" d="M1480,5255.9c-4.785,16.763-1.02,35.746-2.342,52.991-.729,9.506-1.9,18.94-3.369,28.362-.877,5.642-2.463,7.537-8.861,8.824-3.089.621-5.88.422-8.956,1.674a1.094,1.094,0,0,0,.29,2.138c6.942.051,14.812,4.885,21.053-.364,6.051-5.088,6.708-17.411,8.31-24.494,5.028-22.229,4.294-44.958,5.232-67.594C1491.628,5250.825,1481.762,5249.712,1480,5255.9Z"/><path class="b" d="M1506.583,5298.249c-3.435,8.815-1.746,20.789-1.51,30.08.066,2.609,1.289,8.5-.009,10.88-1.5,2.751-6.877,2.93-9.034,5.487a1.388,1.388,0,0,0,0,1.924c7.961,7.612,20.22,6.194,25.608-3.438,3.207-5.732,2.893-13.049,3-19.417.127-7.7.1-15.3.819-22.963C1526.541,5289.2,1510.2,5288.96,1506.583,5298.249Z"/><path class="b" d="M1553.047,5204.672a2.027,2.027,0,0,0-3.652.477c-4.6,11.994-5.051,26.464-5.92,39.149-.835,12.2,19.648,12.315,19.035,0C1561.859,5231.235,1560.157,5216.009,1553.047,5204.672Z"/><path class="b" d="M1602.654,5290.827a6.883,6.883,0,0,0-6.774-6.774c-2.609.039-6.643-.521-10.613-.569-.112-.068-.228-.141-.339-.208-7.6-4.622-15.527-9.151-23.912-12.171a3.369,3.369,0,0,0-3.356.887,3.181,3.181,0,0,0-.838,1.325c-2.164,8.666,4.255,12.276,11.068,16.405,1.52.921,3.269,1.8,5.024,2.711.583,4.9,5.263,9.508,10.15,11.493a19.424,19.424,0,0,0,2.148,6.675c3.763,5.941,13.106,5.015,15.08-1.971A57.029,57.029,0,0,0,1602.654,5290.827Z"/><path class="b" d="M1588.766,5337.827c-.785-3.629-4.394-5.068-7.3-6.708l-5.574-3.146c-.414-.979-.858-1.927-1.331-2.828a5.272,5.272,0,0,0-6.1-2.425,9.909,9.909,0,0,0-4.993-5.472.762.762,0,0,0-1.1.448c-2.943,9.582-6.691,38.85,10.709,33.75a5.811,5.811,0,0,0,3.006-1.063C1581.493,5348.246,1590.1,5343.991,1588.766,5337.827Z"/><path class="b" d="M1607.392,5252.79c-1.549-9.17-4.812-18.043-6.742-27.144-1.327-6.257-11.674-4.949-11.252,1.523.022.332.032.661.05.992a3.427,3.427,0,0,0-1.5,1.845c-1.844,5.826-2.088,11.883-2.265,17.942a5.653,5.653,0,0,0,.717,2.942,5.43,5.43,0,0,0-.844,1.37,4.427,4.427,0,0,0-.232,3,4.822,4.822,0,0,0,4.438,3.378c.469.037.958.117,1.429.114a5.766,5.766,0,0,0,2.659-.776C1596.809,5265.4,1608.84,5261.356,1607.392,5252.79Z"/><path class="b" d="M1633.686,5376.9c-2.451-8.238-11.194-15.569-17.547-20.862-5.9-4.918-13.859-12.789-21.99-12.665a2.765,2.765,0,0,0-2.635,3.459c2.074,7.989,11.662,14.245,16.885,20.312,3.193,3.709,6.246,7.642,9.073,11.638,2.81,3.972,4.38,6.647,9.649,6.736A6.869,6.869,0,0,0,1633.686,5376.9Z"/><path class="b" d="M1702.733,5416.429c-.874-3.806-5.673-4.6-8.3-2.191-2.055,1.883-2.823,5.046-5.415,6.264-3.271,1.537-7.132-.36-9.829-2.123-6.09-3.979-10.272-10.787-15.281-15.95-7.653-7.888-17.708-18-28.221-21.843-1.478-.54-2.563,1.286-1.92,2.5a32.172,32.172,0,0,0,1.92,3.145c-12.332,5.63-18.615,26.6-21.969,38.375a144.062,144.062,0,0,0-5.19,25.762c-.852,9.17.423,18.53.2,27.751-.384,6.985,11.34,8.782,12.408,1.679,1.266-8.42,4.114-15.8,6.459-23.917,2.436-8.43,3.962-17.252,5.943-25.81,1.125-4.861,2.224-9.78,3.223-14.708,4.048-5.289,7.056-11.591,9.611-17.445,2.124,2.032,4.229,4.048,6.142,6.132,6.45,7.028,12.207,15.62,19.788,21.446,5.946,4.57,13.381,6.9,20.753,4.591C1699.22,5428.157,1704.247,5423.022,1702.733,5416.429Z"/><path class="b" d="M1656.447,5347.1c-.126-13.737-7.013-28.71-12.371-41.148-5.429-12.6-10.29-27.513-18.568-38.535a1.029,1.029,0,0,0-1.9.515c-.223,13.426,3.6,27.35,4.908,40.73,1.281,13.092,1.056,29.176,5.932,41.416a12.33,12.33,0,0,0,8.845,7.462,6.446,6.446,0,0,0,3.043,3.278,7.227,7.227,0,0,0,1.581.509,3.7,3.7,0,0,0,.472,1.186c.038.075.066.151.109.226,1.608,2.219,5.528,3.155,7.1,0,1.42-2.851.659-6.188-1.109-8.881A11.075,11.075,0,0,0,1656.447,5347.1Z"/><path class="b" d="M1630.914,5377.017a8.763,8.763,0,0,0-6.962-2.21c-.323-.993-.64-2-.943-3.034a1.226,1.226,0,0,0-1.344-.852c-.116-.2-.222-.4-.343-.6-2.708-4.426-8.36-4.56-11.909-2.093a54.032,54.032,0,0,0-10.423-16.176c-.887-.959-2.76.036-2.274,1.324,7.093,18.8,2.416,38.914-.359,58.122-2.994,20.716-5.211,41.3,3.6,60.969a5.867,5.867,0,0,0,3.526,3.087c.28,1.165.532,2.333.845,3.494,1.3,4.839,9.683,4.063,9.042-1.223-.149-1.929-.231-3.831-.278-5.721a7.261,7.261,0,0,0,.665-5.455c-.218-.789-.4-1.585-.585-2.379.665-14.267,4.054-27.727,8.949-41.689.221-.629.444-1.267.666-1.9a8.271,8.271,0,0,0,7.326-6.106,85.42,85.42,0,0,0,2.964-14.364,7.773,7.773,0,0,0,4.616-7.217A20.362,20.362,0,0,0,1630.914,5377.017Z"/><path class="b" d="M1527.192,5430.12a243.6,243.6,0,0,0-5.955-24.9c-2.319-8.131-4.258-18.357-13.473-20.706-4.449-1.134-7.893,1.478-9.539,5.416-3.144,7.522,2.742,14.406,6.211,20.849a170.607,170.607,0,0,1,10,22.855c5.482,15.114,8.4,30.823,13.27,46.074a.08.08,0,0,0,.153,0C1531.768,5463.667,1530.005,5446.254,1527.192,5430.12Z"/><path class="b" d="M1636.628,5236.794c-1.137-19.353-.356-40.392-6.008-59.1a1.03,1.03,0,0,0-1.968,0c-6.431,18.476-7.325,41.216-6.346,60.6a79.558,79.558,0,0,0,2.8,16.7c-.195.191-.389.383-.587.573a3.7,3.7,0,0,0-1.995,4.235c.454,2.34,2.7,3.249,4.824,2.916.264.858.528,1.716.8,2.587,3.181,10.235,4.215,20.644,6.55,31.032,1.439,6.4,11.58,4.992,11.423-1.546C1645.65,5275.025,1637.787,5256.522,1636.628,5236.794Z"/><path class="b" d="M1678.158,5291.756c-8.3,6.826-16.444,15.441-27.952,14.9-7.2-.34-11.766,7.635-9.144,13.86a10.028,10.028,0,0,0,16.218,3.22c9.265-8.59,20.661-17.531,23.266-30.588A1.442,1.442,0,0,0,1678.158,5291.756Z"/><path class="b" d="M1660.972,5362.366c-1.192-2.012-1.031-5.524-1.745-7.756-.942-2.942-2.165-5.834-3.24-8.73a1.094,1.094,0,0,0-2.138.289c-.29,4-.876,8.1-.571,12.109.088,1.145.093,2.357.187,3.548a1.7,1.7,0,0,0-.156.279c-.909,2.454.6,5.819,3.219,6.463a2.539,2.539,0,0,0,2.731-1.05A3.692,3.692,0,0,0,1660.972,5362.366Z"/><path class="b" d="M1654.1,5118.5c-3.052-9.389-6.545-21.746-13.609-28.942a1.409,1.409,0,0,0-.766-.4,7.178,7.178,0,0,0,2.487-6.1,6.34,6.34,0,0,0-6.182-6.181c-2.572-.093-4.866,1.452-6.311,2.424.361-.242-1.278.7-1.569.841-.981.487.23.107-.933.443-1.8.521-6.057-.347-6.724,2.541-.78,3.378,1.994,6.059,4.994,7.572-2.677,7.833,1.766,18.406,3.238,26.18,1.044,5.517,1.936,11.039,2.559,16.619.256,2.295-.216,13.1,1.677,15.456-1.016.124-2.031.257-3.042.406-6.321.934-5.572,9.2-1.586,12.135a10.957,10.957,0,0,0,13.964-1,48.071,48.071,0,0,1,12.706-.211c3.819.494,6.76-3.57,6.907-6.907C1662.412,5142.049,1657.572,5129.173,1654.1,5118.5Z"/><path class="b" d="M1597.52,5156.517c-1.63-7.311-7.485-12.326-9.3-19.593-2.235-8.931-2.312-18.252-5.763-26.891-.2-.51-1.035-.649-1.181,0-1.827,8.134-1.445,16.847-1.379,25.147a41.393,41.393,0,0,0,.832,9.74c.892,3.569,4.655,8.526,4.047,12.244C1582.627,5170.265,1601.609,5165.193,1597.52,5156.517Z"/><path class="b" d="M1302.364,5222.473a9.257,9.257,0,0,0-.961-.616c-.714-1.9-1.75-3.748-2.61-5.683-1.445-3.254-2.376-7.092-4.575-9.891a1.779,1.779,0,0,0-2.778.358c-1.7,3.234-1.6,7.7-1.667,11.295-.017.964-.038,1.971-.031,2.985-1.515.27-2.988.607-4.349.923-4.252.987-9.479,1.284-12.956,4-.929.724-.6,2.075,0,2.843,2.658,3.427,8.941,5.073,12.956,6.437,5.19,1.765,12.331,3.338,16.971-.2C1306.89,5231.478,1307.022,5225.9,1302.364,5222.473Z"/><path class="b" d="M1326.315,5180.6c-.621-3.44-3.431-5.823-5.276-8.691a46.082,46.082,0,0,1-4.674-9.632,1.572,1.572,0,0,0-3.073.416c-.044.452-.086.935-.126,1.434-.079-.253-.152-.508-.233-.759a2.594,2.594,0,0,0-4.957,0c-2.171,6.406-4.4,12.823-5.6,19.494-1.855,10.342,13.821,12.317,14.112,1.91,0-.134,0-.267,0-.4a8.908,8.908,0,0,0,1.2,1.251A5.209,5.209,0,0,0,1326.315,5180.6Z"/><path class="b" d="M1324.177,5276.757c-4.422-15.731-10.484-33.359-21.747-44.684a.894.894,0,0,0-1.51.625c.032,8.592,2.578,17.871,4.721,26.163,2.442,9.45,5,18.868,7.44,28.319,1.337,5.185,7.545,6.167,11.239,2.967a11.811,11.811,0,0,0,3.617-5.725C1329.177,5280.958,1327.047,5278.033,1324.177,5276.757Z"/><path class="b" d="M1327.726,5203.806a6.2,6.2,0,0,0-4.838.17,2.722,2.722,0,0,0-.736.449,4.235,4.235,0,0,0-1.411,1.67c-.363.786-.688,1.574-.994,2.364a40.161,40.161,0,0,0-3.121,14.217c-.533,8.412,13.224,8.542,13.175,0a74.755,74.755,0,0,1,1.165-12.271C1331.4,5207.655,1330.495,5204.919,1327.726,5203.806Z"/><path class="b" d="M1383.6,5200.159c-1.767-2.216-5.634-3.008-8.232-2.176-7.057,2.262-15.766,2.736-21.892,7.217-1.686,1.233-2.082,3.9,0,5.05,7.657,4.233,17.9,6.217,26.39,4.049a8.556,8.556,0,0,0,6.212-8.158A9.253,9.253,0,0,0,1383.6,5200.159Z"/><path class="b" d="M1336,5309.441c-1.485-17.112-1.153-34.334-2.86-51.408-.007-.072-.113-.1-.133-.018-4.215,16.228-5.468,33.231-7.315,49.867-1.963,17.681-1.745,35.258-.829,53.007.468,9.059,14.661,9.093,14.136,0C1338.005,5343.728,1337.483,5326.567,1336,5309.441Z"/><path class="b" d="M1625.447,5217.113c-.569-11.556.034-25.39-3.724-36.388a1.168,1.168,0,0,0-2.23,0c-4.483,11.349-4.763,25.754-6.588,37.806-1.891,12.485-4.205,25.1-4.6,37.746-.374,11.981,18.772,9.757,17.026-.719C1626.821,5242.838,1626.075,5229.862,1625.447,5217.113Z"/><path class="b" d="M1573.064,5343.464c-6.277-10.024-8.876-21.153-12.094-32.469-2.571-9.041-4.568-19.444-12.539-25.312-.786-.578-1.778.534-1.3,1.3,7.019,11.339.118,28.9,1.538,41.669,1.189,10.7,4.4,26.331,16.859,27.946C1572.2,5357.467,1576.271,5348.585,1573.064,5343.464Z"/><path class="d" d="M1479.933,5250.338a2.545,2.545,0,0,0-3.66-1.489,6.089,6.089,0,0,0-2.054,1.844,12.307,12.307,0,0,0-13.434-3.627c-4.021,1.455-5.637,7.193-2.9,10.047-.73,2.635-.585,5.651-.7,8.611-.3,7.835,0,15.7.023,23.546.039,16.221-.186,32.447-.413,48.666-.05,3.589,3.362,5.683,6.607,5.033l9.127-1.827a5.186,5.186,0,0,0,3.771-4.954c.084-20.093,1.158-40.2,1.512-60.292.1-5.449,1.042-12.154-.177-17.947a2.718,2.718,0,0,0,1.282-1.8c.072-.413.2-.806.284-1.213q.086-.593.162-1.186l.013-.151c.031-.093.169-.709.2-.808a10.815,10.815,0,0,0,.358-1.127A2.455,2.455,0,0,0,1479.933,5250.338Z"/><path class="c" d="M1285.123,5343.655a10.017,10.017,0,0,1-10.337-9.9c0-6.473,4.121-13.168,11.016-13.168a10.959,10.959,0,0,1,1.785.15c.211.035.42.056.629.079a9.412,9.412,0,0,1,2.093.405c3.287,1.1,8.5,4.94,8.5,10.586C1298.813,5338.451,1292.8,5343.655,1285.123,5343.655Zm.679-18.32c-3.923,0-6.267,4.28-6.267,8.419a5.259,5.259,0,0,0,5.588,5.152c5.1,0,8.94-3.052,8.94-7.1,0-2.952-3.137-5.374-5.257-6.081a5.2,5.2,0,0,0-1.093-.188c-.3-.032-.6-.065-.9-.115A6.094,6.094,0,0,0,1285.8,5325.335Z"/><path class="c" d="M1394.415,5476.869c-21.639,0-36.752-14.641-36.752-35.6,0-19.122,12.96-39.76,33.9-39.76.25,0,.5,0,.756.008,16.609.387,30.414,7.239,37.873,18.8a39.69,39.69,0,0,1,6.113,20.984,32.226,32.226,0,0,1-13.407,26.661C1415.339,5473.621,1404.958,5476.869,1394.415,5476.869Zm-2.854-70.615c-18,0-29.148,18.173-29.148,35.011,0,21.314,16.073,30.854,32,30.854,18.455,0,37.139-10.586,37.139-30.821a34.8,34.8,0,0,0-5.355-18.408c-6.593-10.221-18.984-16.281-34-16.628C1391.981,5406.255,1391.77,5406.254,1391.561,5406.254Z"/><path class="c" d="M1384.682,5438.161c-3.493,0-8.546-3.012-8.546-8.458,0-3.993,3.185-8.217,6.2-8.217a10.238,10.238,0,0,0,1.247-.133,13,13,0,0,1,1.847-.176c3.134,0,8.922,3.478,8.922,8.433C1394.348,5434.962,1389.433,5438.161,1384.682,5438.161Zm-2.057-11.932a4.824,4.824,0,0,0-1.74,3.474c0,2.568,2.751,3.709,3.8,3.709,2.042,0,4.916-1.18,4.916-3.8,0-1.852-3.239-3.664-4.174-3.684a9.952,9.952,0,0,0-1.166.127A15.4,15.4,0,0,1,1382.625,5426.229Z"/><path class="c" d="M1384.9,5453.242a2.375,2.375,0,0,1-1.465-4.245c1.254-.982,9.633-8.554,15.752-14.084,9.181-8.3,9.181-8.3,9.628-8.523a2.375,2.375,0,0,1,2.458,4.046c-.629.522-4.834,4.322-8.9,8-8.285,7.487-14.724,13.295-16.01,14.3A2.361,2.361,0,0,1,1384.9,5453.242Z"/><path class="c" d="M1406.864,5460.429c-4.659,0-8.45-3.477-8.45-7.752,0-3.563,2.282-7.858,6.511-8.8a11.441,11.441,0,0,1,2.477-.272c5.179,0,9.085,3.378,9.085,7.856C1416.487,5456.408,1412.169,5460.429,1406.864,5460.429Zm-.911-11.912c-1.723.384-2.79,2.458-2.79,4.16,0,1.444,1.415,3,3.7,3a4.632,4.632,0,0,0,4.873-4.215c0-2.28-2.592-3.107-4.335-3.107A6.737,6.737,0,0,0,1405.953,5448.517Z"/><path class="c" d="M1449.916,5441.613c-2.731,0-5.634-1.637-5.634-4.67,0-2.894,2.085-5.994,5.188-5.994,2.664,0,5.66,1.69,6.063,4.516a3.474,3.474,0,0,1,.036.511A5.871,5.871,0,0,1,1449.916,5441.613Zm-.86-4.922a2.224,2.224,0,0,0,.86.173c.407,0,.752-.479.866-.767a2.6,2.6,0,0,0-1.233-.4A1.916,1.916,0,0,0,1449.056,5436.691Z"/><path class="c" d="M1473.9,5442.541a5.432,5.432,0,0,1-5.554-5.552,8.335,8.335,0,0,1,2.456-5.635,3.375,3.375,0,0,1,2.448-.983c2.563,0,7.269,2.407,7.269,6.338C1480.519,5439.815,1477.426,5442.541,1473.9,5442.541Zm-.155-7.327a3.393,3.393,0,0,0-.65,1.775c0,.8.543.8.805.8a2.008,2.008,0,0,0,1.869-1.083C1475.769,5436.335,1474.629,5435.5,1473.745,5435.214Z"/><path class="c" d="M1495.276,5441.335a5.517,5.517,0,0,1-5.57-5.43c0-4.647,3.232-5.275,4.613-5.544a5.409,5.409,0,0,0,.709-.162,3.592,3.592,0,0,1,1.15-.185c2.585,0,5.122,2.71,5.122,5.472a6.133,6.133,0,0,1-5.567,5.824A4.122,4.122,0,0,1,1495.276,5441.335Zm-.752-6.153a2.9,2.9,0,0,0-.069.723c0,.478.587.68.821.68.542-.063,1.275-.57,1.275-1.1a1.169,1.169,0,0,0-.441-.657c-.289.076-.587.136-.885.194C1495.007,5435.066,1494.7,5435.126,1494.524,5435.182Zm1.429-.449Zm.587-.032,0,0Z"/><path class="c" d="M1300.107,5491.3a2.376,2.376,0,0,1-1.936-3.748c12.263-17.311,22.487-33.782,30.025-46.2a2.375,2.375,0,0,1,4.189.244l20.631,45.1a2.375,2.375,0,0,1-4.319,1.976l-18.77-41.032c-7.305,11.946-16.754,26.946-27.88,42.655A2.37,2.37,0,0,1,1300.107,5491.3Z"/><path class="c" d="M1251.526,5491.611a2.374,2.374,0,0,1-2.121-3.438,3.946,3.946,0,0,0,.367-1.118,2.854,2.854,0,0,1,.377-1.268l47.645-74.232a2.376,2.376,0,0,1,4.157.292l20.43,44.527a2.375,2.375,0,0,1-4.317,1.982l-18.618-40.58-44.992,70.1a9.1,9.1,0,0,1-.8,2.427A2.37,2.37,0,0,1,1251.526,5491.611Z"/><path class="c" d="M1282.159,5444.267a2.375,2.375,0,0,1-.226-4.738c5.569-.538,11.186-.668,16.618-.793,4.018-.093,8.174-.187,12.235-.45a2.375,2.375,0,1,1,.306,4.74c-4.16.267-8.365.365-12.431.458-5.347.123-10.876.25-16.27.773C1282.312,5444.264,1282.235,5444.267,1282.159,5444.267Z"/><path class="c" d="M1251.574,5267.561a2.287,2.287,0,0,1-.393-.033,2.373,2.373,0,0,1-1.952-2.732,57.757,57.757,0,0,0,.641-9.5c0-1.076-.013-2.154-.024-3.239-.013-1.118-.026-2.244-.026-3.382a2.375,2.375,0,0,1,4.749,0c0,1.12.013,2.228.025,3.329s.025,2.2.025,3.292a61.916,61.916,0,0,1-.706,10.284A2.374,2.374,0,0,1,1251.574,5267.561Z"/><path class="c" d="M1251.307,5258.241a52.724,52.724,0,0,1-6.245-.356,2.374,2.374,0,1,1,.555-4.716,48.251,48.251,0,0,0,5.69.323,78.524,78.524,0,0,0,9.335-.635,2.375,2.375,0,0,1,.555,4.717A83.112,83.112,0,0,1,1251.307,5258.241Z"/><path class="c" d="M1324.807,5370.039l-.093,0a2.374,2.374,0,0,1-2.281-2.464l7.648-199.311a2.406,2.406,0,0,1,2.464-2.282,2.374,2.374,0,0,1,2.282,2.464l-7.648,199.311A2.376,2.376,0,0,1,1324.807,5370.039Z"/><path class="c" d="M1427.086,5170.785l-87.46-.958a8.839,8.839,0,0,0-2.835-.25,2.375,2.375,0,0,1-1.062-3.186,3.385,3.385,0,0,1,3.024-1.988,3.193,3.193,0,0,1,1.977.687l86.381.946a2.375,2.375,0,0,1-.025,4.749Z"/><path class="c" d="M1512.434,5172.749c-1.924,0-22.165-.472-30.309-1.36l-41.969-.46a2.376,2.376,0,0,1-2.348-2.4,2.441,2.441,0,0,1,2.4-2.348l42.085.461c.079,0,.158.006.236.015,7.894.877,28,1.343,29.9,1.343,3.522,0,7.126-.129,10.61-.254,3.527-.126,7.175-.256,10.783-.256,3.11,0,5.88.1,8.469.3a2.374,2.374,0,0,1-.365,4.735c-2.466-.19-5.117-.282-8.1-.282-3.523,0-7.127.129-10.613.254C1519.688,5172.618,1516.041,5172.749,1512.434,5172.749Z"/><path class="c" d="M1514.671,5376.788c-.07,0-189.034-5.4-189.034-5.4a2.375,2.375,0,0,1,.136-4.748l188.964,5.4a2.375,2.375,0,0,1-.066,4.749Z"/><path class="c" d="M1385.863,5209.872c-.075,0-.2-.006-.275-.013-3.251-.271-6.753-.392-11.329-.392-2.029,0-4.059.023-6.088.045-2.047.024-4.093.047-6.138.047-2.846,0-5.206-.045-7.427-.142a2.374,2.374,0,0,1,.206-4.744c2.151.093,4.445.137,7.221.137,2.028,0,4.056-.024,6.085-.046,2.047-.023,4.094-.046,6.141-.046,3.987,0,7.195.09,10.157.29.061-2.7.267-4.622.411-5.966.008-.072.015-.143.023-.215l-.158.017c-3.665.4-11.291,1.249-27.019-1.61a2.374,2.374,0,0,1,.851-4.672c15.041,2.734,22.2,1.944,25.646,1.561,2-.219,3.446-.381,4.6.768s1,2.622.782,4.656a61.117,61.117,0,0,0-.4,7.048A3.367,3.367,0,0,1,1385.863,5209.872Z"/><path class="c" d="M1319.794,5280.836a2.374,2.374,0,0,1-2.351-2.061c-1.694-12.7-21.693-70.288-25.412-78.886a2.375,2.375,0,0,1,4.36-1.885c3.841,8.883,23.972,66.743,25.759,80.144a2.376,2.376,0,0,1-2.356,2.688Z"/><path class="c" d="M1319.856,5281.406a2.374,2.374,0,0,1,0-4.749,10.629,10.629,0,0,0,3.245-.832,21.324,21.324,0,0,1,3.039-.922,2.375,2.375,0,0,1,.93,4.657,17.556,17.556,0,0,0-2.36.733A14.365,14.365,0,0,1,1319.856,5281.406Z"/><path class="c" d="M1294.208,5199.971a2.374,2.374,0,0,1-.274-4.732c5.883-.692,29.547-9.718,35.063-13.026a2.374,2.374,0,1,1,2.442,4.072c-5.6,3.363-29.946,12.846-36.951,13.67A2.46,2.46,0,0,1,1294.208,5199.971Z"/><path class="c" d="M1326.689,5231.044c-2.676,0-13.045-4.453-13.045-14.36,0-9.48,7.529-17.864,16.442-18.309a2.375,2.375,0,1,1,.236,4.743c-7.136.357-11.929,7.3-11.929,13.566,0,6.715,7.536,9.509,8.391,9.614a2.3,2.3,0,0,1,2.935,1.5,2.412,2.412,0,0,1-1.571,3A4.588,4.588,0,0,1,1326.689,5231.044Z"/><path class="c" d="M1282.1,5228.385a57.406,57.406,0,0,1-11.775-1.02,2.375,2.375,0,1,1,.978-4.647,53.027,53.027,0,0,0,10.8.918c1.77,0,3.541-.042,5.308-.083,3.394-.079,6.893-.127,9.627.017a2.375,2.375,0,0,1-.252,4.744c-2.6-.139-5.993-.089-9.264-.014C1285.717,5228.343,1283.909,5228.385,1282.1,5228.385Z"/><path class="c" d="M1280.335,5164.548c-2.687,0-5.311-.041-7.8-.121a2.374,2.374,0,0,1-2.3-2.45,2.408,2.408,0,0,1,2.45-2.3c2.435.078,5.007.118,7.643.118,11.75,0,23.8-.778,34.439-1.465a2.375,2.375,0,0,1,.306,4.74C1304.373,5163.765,1292.239,5164.548,1280.335,5164.548Z"/><path class="c" d="M1314.908,5187.131a2.375,2.375,0,0,1-2.375-2.375V5161.6a2.375,2.375,0,1,1,4.749,0v23.152A2.374,2.374,0,0,1,1314.908,5187.131Z"/><path class="c" d="M1296.911,5178.826a73.52,73.52,0,0,1-9.569-.783l-1.073-.136a2.375,2.375,0,1,1,.589-4.712l1.081.136a68.894,68.894,0,0,0,8.972.746,2.375,2.375,0,1,1,0,4.749Z"/><path class="c" d="M1295.561,5190.523a73.664,73.664,0,0,1-9.567-.782l-1.076-.136a2.374,2.374,0,0,1,.589-4.712l1.083.136a68.819,68.819,0,0,0,8.971.745,2.375,2.375,0,0,1,0,4.749Z"/><path class="c" d="M1290.523,5201.864a14.37,14.37,0,0,1-2.851-.364,6.491,6.491,0,0,0-2.445-.225,2.374,2.374,0,1,1-.928-4.657,11.513,11.513,0,0,1,4.305.225,6.36,6.36,0,0,0,2.438.226,2.375,2.375,0,0,1,.94,4.655A7.288,7.288,0,0,1,1290.523,5201.864Z"/><path class="c" d="M1285.66,5212.569a2.374,2.374,0,0,1-.26-4.734,39.048,39.048,0,0,1,5.379-.1c.744.025,1.486.05,2.233.05a17.24,17.24,0,0,0,3.834-.362,2.375,2.375,0,0,1,1.03,4.636,21.7,21.7,0,0,1-4.864.476c-.8,0-1.595-.027-2.391-.053a34.856,34.856,0,0,0-4.7.069A2.421,2.421,0,0,1,1285.66,5212.569Z"/><path class="c" d="M1350.08,5338.654a2.385,2.385,0,0,1-2.374-2.428l.78-34.867a2.32,2.32,0,0,1,2.427-2.321,2.374,2.374,0,0,1,2.32,2.427l-.779,34.868A2.376,2.376,0,0,1,1350.08,5338.654Z"/><path class="c" d="M1366.992,5339.435a2.379,2.379,0,0,1-2.374-2.392l.26-35.388a2.375,2.375,0,0,1,4.75.035l-.261,35.388A2.375,2.375,0,0,1,1366.992,5339.435Z"/><path class="c" d="M1366.992,5303.006H1350.86a2.375,2.375,0,1,1,0-4.749h16.132a2.375,2.375,0,1,1,0,4.749Z"/><path class="c" d="M1366.734,5340.215l-16.691-.26a2.377,2.377,0,0,1-2.338-2.411,2.337,2.337,0,0,1,2.412-2.338l16.653.26a2.375,2.375,0,0,1-.036,4.749Z"/><path class="c" d="M1383.127,5342.037a2.391,2.391,0,0,1-2.375-2.447l2.342-77.281a2.375,2.375,0,1,1,4.747.144l-2.342,77.281A2.375,2.375,0,0,1,1383.127,5342.037Z"/><path class="c" d="M1402.121,5342.557l-18.509-.26a2.375,2.375,0,0,1-2.341-2.408,2.345,2.345,0,0,1,2.408-2.341l18.475.26a2.375,2.375,0,0,1-.033,4.749Z"/><path class="c" d="M1402.122,5341.776h-.087a2.374,2.374,0,0,1-2.287-2.459l2.862-79.1a2.375,2.375,0,1,1,4.746.171l-2.862,79.1A2.375,2.375,0,0,1,1402.122,5341.776Z"/><path class="c" d="M1402.641,5263.714h-16.653a2.375,2.375,0,1,1,0-4.749h16.653a2.375,2.375,0,0,1,0,4.749Z"/><path class="c" d="M1418.775,5343.6a2.391,2.391,0,0,1-2.375-2.448l1.3-41.893a2.375,2.375,0,0,1,4.747.147l-1.3,41.893A2.376,2.376,0,0,1,1418.775,5343.6Z"/><path class="c" d="M1438.03,5344.9l-.1,0-19.255-.781a2.374,2.374,0,0,1,.192-4.744l19.255.78a2.375,2.375,0,0,1-.095,4.747Z"/><path class="c" d="M1438.03,5343.6a2.39,2.39,0,0,1-2.375-2.446l1.3-43.454a2.375,2.375,0,1,1,4.747.142l-1.3,43.455A2.375,2.375,0,0,1,1438.03,5343.6Z"/><path class="c" d="M1439.331,5301.185l-18.8-.522a2.375,2.375,0,1,1,.132-4.748l18.734.521a2.375,2.375,0,0,1-.064,4.749Z"/><path class="c" d="M1454.424,5344.9l-.1,0a2.374,2.374,0,0,1-2.275-2.47l3.9-95.235a2.374,2.374,0,1,1,4.744.2l-3.9,95.235A2.373,2.373,0,0,1,1454.424,5344.9Z"/><path class="c" d="M1476.8,5346.2l-22.147-.26a2.375,2.375,0,0,1,.027-4.75l22.147.261a2.375,2.375,0,0,1-.027,4.749Z"/><path class="c" d="M1476.8,5345.94a2.391,2.391,0,0,1-2.374-2.452l3.122-95.756a2.414,2.414,0,0,1,2.45-2.295,2.373,2.373,0,0,1,2.3,2.45l-3.122,95.755A2.375,2.375,0,0,1,1476.8,5345.94Z"/><path class="c" d="M1479.924,5249.924l-.085,0-22.378-.78a2.375,2.375,0,0,1-2.29-2.456,2.409,2.409,0,0,1,2.456-2.291l22.378.781a2.375,2.375,0,0,1-.081,4.748Z"/><path class="c" d="M1495.8,5346.981a2.392,2.392,0,0,1-2.376-2.444l1.562-53.6a2.409,2.409,0,0,1,2.443-2.305,2.377,2.377,0,0,1,2.3,2.443l-1.562,53.6A2.375,2.375,0,0,1,1495.8,5346.981Z"/><path class="c" d="M1514.531,5347.761c-.071,0-17.765-.521-17.765-.521a2.375,2.375,0,0,1-2.3-2.444,2.42,2.42,0,0,1,2.443-2.3l17.694.521a2.375,2.375,0,0,1-.068,4.748Z"/><path class="c" d="M1517.133,5292.857l-19.808-.259a2.375,2.375,0,0,1,.03-4.749l19.808.259a2.375,2.375,0,0,1-.03,4.749Z"/><path class="c" d="M1515.572,5347.24c-.035,0-.07,0-.1,0a2.374,2.374,0,0,1-2.269-2.475l2.341-54.122a2.375,2.375,0,1,1,4.745.205l-2.341,54.123A2.374,2.374,0,0,1,1515.572,5347.24Z"/><path class="c" d="M1518.435,5383.149c-.069,0-.137,0-.206-.009a2.375,2.375,0,0,1-2.171-2.365c0-.207,0-.207,5.422-31.264l3.2-18.321c2.765-16.033,3.852-28.28,4.645-37.222,1.568-17.669,2.283-25.733,14.474-25.733,16.757,0,18.746,58.139,18.746,58.726,0,2.152-.1,4.311-.2,6.4-.1,2.034-.195,4.137-.195,6.18,0,9.657,1.7,13.6,5.87,13.6,4.521,0,7.5-2.374,12.445-6.307,2.617-2.083,5.584-4.444,9.509-7.061a2.375,2.375,0,1,1,2.634,3.952c-3.759,2.506-6.642,4.8-9.186,6.825-5.354,4.261-9.222,7.34-15.4,7.34-10.619,0-10.619-12.855-10.619-18.345,0-2.154.1-4.314.2-6.4.095-2.033.194-4.135.194-6.176,0-15.567-5.577-53.977-14-53.977-7.36,0-8.082,2.689-9.743,21.4-.8,9.025-1.9,21.384-4.7,37.612-.164.941-.768,4.4-3.2,18.328-2.429,13.913-5.359,30.693-5.387,30.852A2.374,2.374,0,0,1,1518.435,5383.149Z"/><path class="c" d="M1536.123,5489.581a2.374,2.374,0,0,1-2.339-1.983c-5.048-30.289-18.357-99.432-18.491-100.127a2.42,2.42,0,0,1-.043-.449q0-1.071.028-2.145a2.375,2.375,0,0,1,4.748.122q-.024.9-.027,1.8c.845,4.393,13.555,70.54,18.469,100.018a2.374,2.374,0,0,1-1.951,2.734A2.521,2.521,0,0,1,1536.123,5489.581Z"/><path class="c" d="M1599.095,5318.036a2.376,2.376,0,0,1-2.373-2.305q-.023-.781-.022-1.557c0-9.8,3.623-23.014,4.506-26.086-.948-1.756-10.01-3.958-15.48-5.287-15.691-3.812-35.218-8.556-35.218-23.394,0-4.28,3.26-7.478,6.175-7.478a122.167,122.167,0,0,1,17.345,1.756,202.862,202.862,0,0,0,31.543,2.729c3.136,0,6.244-.1,9.238-.305a2.375,2.375,0,0,1,.32,4.739c-3.1.209-6.316.316-9.558.316a209.8,209.8,0,0,1-32.231-2.779,118.916,118.916,0,0,0-16.657-1.707,3.134,3.134,0,0,0-1.426,2.729c0,11.1,17.516,15.36,31.59,18.779,11.127,2.7,19.166,4.657,19.166,10.041a2.566,2.566,0,0,1-.1.7c-.457,1.546-4.46,15.39-4.46,25.25,0,.471.007.944.021,1.417A2.389,2.389,0,0,1,1599.095,5318.036Z"/><path class="c" d="M1641.934,5359.518a2.412,2.412,0,0,1-.42-.038,2.373,2.373,0,0,1-1.92-2.755,47.934,47.934,0,0,0,.719-8.485c0-11.977-3.379-25.634-6.955-40.093-2.953-11.934-6.005-24.275-7.142-36.016-.668-6.909-4.023-8.361-7.575-9.9-.656-.284-1.288-.558-1.872-.851a2.375,2.375,0,0,1,2.124-4.248c.51.255,1.061.492,1.634.741,3.775,1.633,9.478,4.1,10.417,13.8,1.1,11.4,4.113,23.565,7.024,35.334,3.648,14.748,7.094,28.678,7.094,41.233a52.418,52.418,0,0,1-.794,9.32A2.374,2.374,0,0,1,1641.934,5359.518Z"/><path class="c" d="M1607.666,5485.99a2.374,2.374,0,0,1-2.333-1.95,53.484,53.484,0,0,1-.767-9.719c0-35.386,2.458-40.815,18.449-76.142,2.425-5.356,5.164-11.408,8.258-18.369a2.375,2.375,0,0,1,4.34,1.929c-3.1,6.972-5.843,13.034-8.271,18.4-15.625,34.517-18.027,39.822-18.027,74.183a49.078,49.078,0,0,0,.69,8.869,2.374,2.374,0,0,1-1.911,2.761A2.4,2.4,0,0,1,1607.666,5485.99Z"/><path class="c" d="M1536.115,5258.256a2.375,2.375,0,0,1-2.375-2.362l-.3-51.882a2.375,2.375,0,0,1,4.75-.026l.294,51.882A2.377,2.377,0,0,1,1536.115,5258.256Z"/><path class="c" d="M1556.75,5206.373l-20.08-.295a2.375,2.375,0,1,1,.069-4.749l20.045.295a2.375,2.375,0,0,1-.034,4.749Z"/><path class="c" d="M1556.455,5250.591a2.379,2.379,0,0,1-2.375-2.39l.3-44.218a2.375,2.375,0,0,1,4.749.031l-.3,44.218A2.374,2.374,0,0,1,1556.455,5250.591Z"/><path class="c" d="M1575.911,5253.539a2.387,2.387,0,0,1-2.374-2.435l.58-22.9a3.311,3.311,0,0,1-.079-.729c0-.034,0-.068,0-.1a2.375,2.375,0,0,1,3.222-3.1,2.808,2.808,0,0,1,1.594,2.559,3.955,3.955,0,0,1-.039.515,2.352,2.352,0,0,1,.058.586l-.589,23.289A2.376,2.376,0,0,1,1575.911,5253.539Z"/><path class="c" d="M1595.073,5227.893l-17.728-.295a2.377,2.377,0,0,1-2.335-2.414,2.4,2.4,0,0,1,2.414-2.335l17.688.295a2.375,2.375,0,0,1-.039,4.749Z"/><path class="c" d="M1595.073,5255.013a2.387,2.387,0,0,1-2.375-2.428l.589-26.236a2.322,2.322,0,0,1,2.427-2.32,2.375,2.375,0,0,1,2.321,2.427l-.589,26.236A2.374,2.374,0,0,1,1595.073,5255.013Z"/><path class="c" d="M1622.495,5257.484a2.418,2.418,0,0,1-.317-.021,2.375,2.375,0,0,1-2.04-2.668,165.993,165.993,0,0,0,1.125-21.9q0-2.7-.018-5.394t-.02-5.409c0-.838-.064-6.679-.142-13.87-.142-13.014-.319-29.209-.286-30.706a2.351,2.351,0,0,1,2.426-2.321,2.375,2.375,0,0,1,2.322,2.426c-.032,1.419.152,18.255.286,30.548.079,7.219.143,13.082.143,13.923,0,1.794.01,3.589.019,5.384s.019,3.612.019,5.419a170.34,170.34,0,0,1-1.166,22.527A2.375,2.375,0,0,1,1622.495,5257.484Z"/><path class="c" d="M1532.436,5288.649a2.362,2.362,0,0,1-1.567-.591l-42.007-36.934c-4.431-1.6-6.9-9.646-10.069-21.506l-.354-1.318a2.374,2.374,0,0,1,2.9-2.914c7.495,1.968,17.668,5.876,22.17,8.4a2.368,2.368,0,0,1,1.169.563l38.96,34.546a2.375,2.375,0,0,1-3.151,3.554l-37.976-33.673a2.593,2.593,0,0,1-.3-.207c-1.68-1.343-10.071-4.954-18.085-7.445,1.626,5.917,4.326,14.954,6.385,15.537a2.361,2.361,0,0,1,1.1.544l42.4,37.282a2.374,2.374,0,0,1-1.568,4.157Z"/><path class="c" d="M1687.634,5425.1a2.371,2.371,0,0,1-1.567-.59l-128.773-113.223a2.375,2.375,0,0,1,3.136-3.567L1689.2,5420.947a2.375,2.375,0,0,1-1.569,4.158Z"/><path class="c" d="M1698.247,5411.546a2.359,2.359,0,0,1-1.575-.6l-145.924-129.391A2.375,2.375,0,0,1,1553.9,5278L1699.823,5407.4a2.375,2.375,0,0,1-1.576,4.151Z"/><path class="c" d="M1491.01,5250.591a2.375,2.375,0,0,1-1.866-3.842c.8-1.019,1.584-2.056,2.366-3.093a68.122,68.122,0,0,1,7.914-9.27,2.375,2.375,0,1,1,3.222,3.489,63.5,63.5,0,0,0-7.345,8.642c-.8,1.062-1.6,2.123-2.422,3.166A2.371,2.371,0,0,1,1491.01,5250.591Z"/><path class="c" d="M1484.528,5236.736a2.375,2.375,0,0,1-1.426-4.275,6.322,6.322,0,0,0,1.658-2.4,2.375,2.375,0,0,1,4.248,2.123,10.6,10.6,0,0,1-3.057,4.079A2.367,2.367,0,0,1,1484.528,5236.736Z"/><path class="c" d="M1605.369,5163.76a2.377,2.377,0,0,1-2.306-2.949l18.073-72.612a3.109,3.109,0,0,1,1.351-2.325,2.363,2.363,0,0,1,3.347.018,2.391,2.391,0,0,1-.014,3.372l-.072.07-18.076,72.625A2.377,2.377,0,0,1,1605.369,5163.76Z"/><path class="c" d="M1651.331,5162.143a2.376,2.376,0,0,1-2.292-1.76l-18.775-69.918a2.375,2.375,0,1,1,4.587-1.232l18.775,69.918a2.377,2.377,0,0,1-2.295,2.992Z"/><path class="c" d="M1604.072,5164.407a2.375,2.375,0,0,1-.032-4.749l47.26-.648a2.375,2.375,0,0,1,.065,4.75Z"/><path class="c" d="M1571.377,5163.76a2.375,2.375,0,0,1-2.326-1.91,28.325,28.325,0,0,1-.491-5.636c0-1.222.048-2.443.1-3.663.046-1.158.094-2.316.094-3.473,0-.177-.02-.342-.034-.5a3.908,3.908,0,0,1,.841-3.217c1.188-1.308,3.244-1.728,8.457-1.728l1.826,0c3.98-.014,5.469-.021,6.67,1.214,1.038,1.067,1,2.365.956,3.619-.009.306-.021.655-.021,1.051,0,1.016-.019,2.04-.037,3.065-.019,1-.037,2-.037,3a38.615,38.615,0,0,0,.28,5.166,2.374,2.374,0,1,1-4.707.628,43.065,43.065,0,0,1-.322-5.794c0-1.028.018-2.06.037-3.088.018-1,.037-1.992.037-2.979,0-.416.011-.787.021-1.117-.726-.026-1.773-.023-2.858-.017l-1.845,0a31.528,31.528,0,0,0-4.532.223c.011.152.017.309.017.471,0,1.22-.048,2.442-.1,3.662-.046,1.158-.093,2.316-.093,3.474a23.722,23.722,0,0,0,.4,4.706,2.373,2.373,0,0,1-1.863,2.793A2.327,2.327,0,0,1,1571.377,5163.76Z"/><path class="c" d="M1564.581,5165.054a2.375,2.375,0,0,1-.025-4.749l30.1-.323a2.375,2.375,0,0,1,.051,4.749Z"/><path class="c" d="M1644.077,5310.491a46.039,46.039,0,0,1-5.011-.3,2.375,2.375,0,1,1,.544-4.718,40.99,40.99,0,0,0,4.478.269,2.375,2.375,0,0,1-.011,4.749Zm10.954-1.459a2.375,2.375,0,0,1-.6-4.672c1.437-.378,2.888-.835,4.314-1.359a2.375,2.375,0,0,1,1.637,4.459c-1.566.575-3.162,1.077-4.744,1.493A2.357,2.357,0,0,1,1655.031,5309.032Zm14.453-6.331a2.374,2.374,0,0,1-1.279-4.376,44.67,44.67,0,0,0,3.672-2.611,2.375,2.375,0,0,1,2.95,3.722,49.173,49.173,0,0,1-4.068,2.893A2.368,2.368,0,0,1,1669.484,5302.7Zm11.438-10.784a2.375,2.375,0,0,1-1.974-3.691,22.236,22.236,0,0,0,2.034-3.768,2.375,2.375,0,0,1,4.386,1.823,27.02,27.02,0,0,1-2.467,4.577A2.371,2.371,0,0,1,1680.922,5291.917Z"/><path class="c" d="M1357.671,5420.922a2.369,2.369,0,0,1-1.651-.668c-1.14-1.1-2.3-2.226-3.43-3.4a2.375,2.375,0,1,1,3.411-3.3c1.1,1.132,2.218,2.218,3.321,3.287a2.374,2.374,0,0,1-1.651,4.081Zm-10.079-12.117a2.372,2.372,0,0,1-2.1-1.256,28.389,28.389,0,0,1-2.02-4.762,2.374,2.374,0,0,1,4.525-1.441,23.73,23.73,0,0,0,1.683,3.965,2.375,2.375,0,0,1-2.092,3.494Zm-2.98-15.315c-.04,0-.079,0-.119,0a2.373,2.373,0,0,1-2.255-2.487c.076-1.562.212-3.2.4-4.884a2.374,2.374,0,1,1,4.718.535c-.179,1.579-.305,3.121-.377,4.581A2.375,2.375,0,0,1,1344.612,5393.49Zm2.191-15.663a2.375,2.375,0,0,1-2.33-2.847c.317-1.557.647-3.115.98-4.674a2.375,2.375,0,0,1,4.645,1c-.331,1.541-.658,3.082-.97,4.622A2.377,2.377,0,0,1,1346.8,5377.827Z"/><path class="a" d="M1288.137,5322.4l-8.6,2.933-2.7,6.786,5.651,9.069,9.026-.975s4.8-4.36,5.038-5.614-1.339-6.5-1.339-6.5Z"/></g></svg>