<svg xmlns="http://www.w3.org/2000/svg" width="264.74" height="197.463" viewBox="0 0 264.74 197.463"><defs><style>.a{fill:#fff;}.b{fill:#023e88;}.c{fill:#ff0064;}.d{fill:none;}</style></defs><g transform="translate(-427.305 -3895.019)"><path class="a" d="M537.736,3925.677l-9.934-7.825-46.8,3.913v-6.521l-26.343.008,13.574,37.136,13.022-.008v-5.065l4.812.254,11.65,8.864H529.4c.5,7.713,30.375,10.636,30.375-10.637S537.736,3925.677,537.736,3925.677Zm-15.231,18.411h-3.391a7.5,7.5,0,0,1-4.7-1.826,1.945,1.945,0,0,1,0-2.347l9.39-9.39,2.609,2.608A17.507,17.507,0,0,0,522.505,3944.088Z"/><path class="b" d="M630.56,3953.739v36.922h29.862l14.567-38.227Z"/><path class="a" d="M511.089,3997.869l13.036,6.455s36.722-8,48.372,20.691c0,0,6.247,14.959-11.692,27.816v17.34H546.412l-3.039-9.371H530.457l-4.09,9.371h-12.65v-15.2s-12.291-12.21-11.372-13.676l-10.287-2.532v-13.5l10.54-2.456s7.042-12.157,11.119-13.17Z"/><path class="c" d="M444.36,3918.339l39.047-1.8v35.9H444.36Z"/><path class="a" d="M629.031,3953.739v6.521l-46.795-3.913-9.934,7.825s-22.034-1.155-22.034,20.119,29.872,18.35,30.375,10.637h31.673l11.65-8.864,4.812-.254v5.065l.762.008v-37.136Zm-33.574,29.578h-8.906l-4.631-12.363L586.2,3966l12.681,12.539Z"/><path d="M541.024,3949.3a1.355,1.355,0,0,1-.521-1.043H536.59a6.156,6.156,0,0,0,1.826,4.173,10.562,10.562,0,0,0,2.347,1.3v2.087h3.913v-2.087a10.568,10.568,0,0,0,2.348-1.3,5.189,5.189,0,0,0,1.825-4.173,5.811,5.811,0,0,0-6.26-5.739,3.772,3.772,0,0,1-1.826-.522,1.3,1.3,0,0,1,0-2.086,2.741,2.741,0,0,1,3.391,0,1.354,1.354,0,0,1,.522,1.043h3.913a6.156,6.156,0,0,0-1.826-4.173,10.529,10.529,0,0,0-2.348-1.3v-2.087H540.5v2.347a5.332,5.332,0,0,0-2.348,1.3,5.19,5.19,0,0,0-1.826,4.173,5.813,5.813,0,0,0,6.26,5.738,3.768,3.768,0,0,1,1.826.522,1.355,1.355,0,0,1,.522,1.043c0,.522-.261,1.044-.522,1.044A3.21,3.21,0,0,1,541.024,3949.3Z"/><path d="M542.068,3964.172a19.563,19.563,0,0,0,0-39.125h-2.087l-10.433-10.433-45.125,6v-5.738l-39.216-.449a12.1,12.1,0,0,0-.847,3.913l36.15.448v32.083H444.36v3.912h40.063v-5.738h2.087l2.869,3.652a13.663,13.663,0,0,0,10.694,4.7h27.388A19,19,0,0,0,542.068,3964.172Zm15.65-19.562a15.7,15.7,0,0,1-15.65,15.65,15.011,15.011,0,0,1-8.869-2.869h3.652V3955.3a11.31,11.31,0,0,0-10.173-11.216,15.523,15.523,0,0,1,31.04.522Zm-35.213-.522h-3.391a7.5,7.5,0,0,1-4.7-1.826,1.945,1.945,0,0,1,0-2.347l9.39-9.39,2.609,2.608A17.507,17.507,0,0,0,522.505,3944.088Zm-30.257,6-3.912-4.434h-3.913v-21.128l43.82-5.477,7.3,7.3a15.861,15.861,0,0,0-6.26,3.913l-5.217-5.217-12.259,12.259a5.673,5.673,0,0,0,0,7.825,10.3,10.3,0,0,0,7.3,3.131h6.26a7.279,7.279,0,0,1,7.043,5.477h-32.6A11.6,11.6,0,0,1,492.248,3950.087Z"/><path d="M631.013,3958.7v-2.348H673.39l1.6-3.912H627.1v5.738l-46.168-5.738L570.5,3962.868h-2.087a19.823,19.823,0,0,0,0,39.647,20.271,20.271,0,0,0,15.128-7.042h27.91a14.571,14.571,0,0,0,10.694-4.695l2.869-3.13H627.1v5.738h33.4l1.492-3.912H631.013V3958.7Zm-62.6,39.908a15.911,15.911,0,1,1,0-31.822,16.051,16.051,0,0,1,15.911,15.389,11.6,11.6,0,0,0-10.433,11.477v2.087h3.651A15.814,15.814,0,0,1,568.412,3998.6Zm19.824-16.433a18.846,18.846,0,0,0-3.913-11.216l2.608-2.608,9.651,9.651a1.954,1.954,0,0,1,0,2.347,6.532,6.532,0,0,1-4.695,2.087h-3.651Zm34.952,1.565-4.174,4.434a10.292,10.292,0,0,1-7.825,3.391H578.063a7.822,7.822,0,0,1,7.3-5.738h6.26a10.449,10.449,0,0,0,7.565-3.13,5.674,5.674,0,0,0,0-7.825l-12.52-12.52-5.217,5.216a16.79,16.79,0,0,0-6.521-3.912l7.3-7.3,44.6,5.478v21.649h-3.651Z"/><path d="M569.455,3977.736a1.355,1.355,0,0,1,.522,1.043h3.913a5.445,5.445,0,0,0-2.087-4.173,10.568,10.568,0,0,0-2.348-1.3v-2.348h-3.912v2.348a4.233,4.233,0,0,0-2.348,1.3,5.19,5.19,0,0,0-1.826,4.173,5.448,5.448,0,0,0,2.087,4.174,6.583,6.583,0,0,0,4.434,1.565,3.765,3.765,0,0,1,1.826.521,1.356,1.356,0,0,1,.522,1.044c0,.521-.261,1.043-.522,1.043a3.124,3.124,0,0,1-3.651,0,1.355,1.355,0,0,1-.522-1.043H561.63a6.156,6.156,0,0,0,1.826,4.173,10.568,10.568,0,0,0,2.348,1.3v2.348h3.912v-2.348a6.837,6.837,0,0,0,2.348-1.3,5.218,5.218,0,0,0,0-8.347,6.584,6.584,0,0,0-4.434-1.565,3.775,3.775,0,0,1-1.826-.521,1.356,1.356,0,0,1-.522-1.044c0-.521.261-1.043.522-1.043A3.13,3.13,0,0,1,569.455,3977.736Z"/><path d="M511.568,3996.021a2.127,2.127,0,0,1,.8.2l13.21,6.588a47.038,47.038,0,0,1,11.505-1.438c17.857,0,33.153,9.836,37.356,23.477a6.075,6.075,0,0,0,5.451-6.354,2.141,2.141,0,1,1,4.281,0,10.564,10.564,0,0,1-8.795,10.5,25.64,25.64,0,0,1,.234,3.412c0,9.231-5.1,17.393-12.843,23.009v15.517a2.141,2.141,0,0,1-2.14,2.141H546.717a2.142,2.142,0,0,1-2.074-1.572l-2.441-8.461a32.839,32.839,0,0,1-10.234,0l-2.441,8.461a2.142,2.142,0,0,1-2.074,1.572H513.541a2.142,2.142,0,0,1-2.141-2.141v-15.45a32.224,32.224,0,0,1-9.765-10.97l-10.033-2.542a2.14,2.14,0,0,1-1.6-2.073v-13.913a2.14,2.14,0,0,1,1.6-2.073l9.431-2.375A31.491,31.491,0,0,1,511,4009.633l-1.706-11.17a2.14,2.14,0,0,1,1.813-2.425,2.086,2.086,0,0,1,.462-.017Zm2.575,5.886,1.271,8.294a2.143,2.143,0,0,1-.9,2.074,27.429,27.429,0,0,0-10.033,11.905,2.14,2.14,0,0,1-1.438,1.271l-8.763,2.208v10.568l9.3,2.341a2.137,2.137,0,0,1,1.4,1.137,28.035,28.035,0,0,0,9.766,10.969,2.141,2.141,0,0,1,.936,1.773v14.347h10.133l2.475-8.595a2.142,2.142,0,0,1,2.375-1.538,41.379,41.379,0,0,0,12.842,0,2.14,2.14,0,0,1,2.374,1.538l2.475,8.595h10.134v-14.347a2.139,2.139,0,0,1,.936-1.773c7.386-4.982,11.906-12.245,11.906-20.266,0-14.5-15.069-26.755-34.246-26.755a42.782,42.782,0,0,0-11.271,1.471,2.138,2.138,0,0,1-1.538-.133l-10.133-5.084Zm22.942,6.956a36.754,36.754,0,0,1,13.645,2.542,2.146,2.146,0,0,1-1.584,3.988l-.022-.008a32.437,32.437,0,0,0-12.039-2.241,33.4,33.4,0,0,0-8.06.97,2.15,2.15,0,0,1-1.026-4.175l.023,0A37.4,37.4,0,0,1,537.085,4008.863Zm-21.4,12.843a4.281,4.281,0,1,1-4.281,4.28A4.281,4.281,0,0,1,515.681,4021.706Z"/><rect class="d" width="264.74" height="197.463" transform="translate(427.305 3895.019)"/></g></svg>