<svg xmlns="http://www.w3.org/2000/svg" width="1136.081" height="464.808" viewBox="0 0 1136.081 464.808"><defs><style>.a{fill:#96caff;}.b{fill:#2a95ff;}.c{fill:#023e88;}.d{fill:#bee2f3;}.e{fill:#f2bd7f;}.f{fill:#bc172a;}.g{fill:#eb7562;}.h{fill:#f09a6b;}.i{fill:#25214a;}.j{fill:#989898;}.k{fill:#242149;}.l{fill:#f5c395;}.m{fill:#fff;}.n{fill:#ff0064;}.o{fill:#d88dba;}.p{fill:#f0f0f0;}.q{fill:#003268;}.r{fill:#563827;}.s{fill:#670067;}.t{fill:#9a009a;}</style></defs><g transform="translate(-383.026 -529.449)"><path class="a" d="M428.515,965.25l1024.64,12.756c.082-33.783,135.745-233.816,17.692-322.012-52.775-39.429-125.244-17.907-188.274-29.161-51.337-9.166-91.447-52.8-139.525-74.559-39.244-17.763-82.824-20.443-125.229-18.175-179.35,9.591-95.856,75.727-265.648,38.737-92.6-20.173-187.114,28.291-270.328,77.744-30.96,18.4-62.552,39.667-80.121,73.133-14.074,26.811-17.583,58.664-18.534,89.583C381.454,869.709,393.44,923.938,428.515,965.25Z"/><path class="b" d="M1519.106,965.25c0-16.019-249.955-29.005-558.291-29.005S402.524,949.231,402.524,965.25s249.955,29.007,558.291,29.007S1519.106,981.27,1519.106,965.25Z"/><path class="c" d="M982.241,861.82c0,5.184-52.648,9.386-117.592,9.386S747.057,867,747.057,861.82s52.648-9.385,117.592-9.385S982.241,856.637,982.241,861.82Z"/><ellipse class="c" cx="73.035" cy="9.385" rx="73.035" ry="9.385" transform="translate(601.496 943.087)"/><path class="d" d="M790.4,768.733l-17.551-39.687Z"/><rect class="e" width="1.128" height="43.394" transform="translate(772.328 729.274) rotate(-23.857)"/><path class="d" d="M791.683,766.414l-10.063-31.1Z"/><rect class="e" width="1.129" height="32.686" transform="matrix(0.951, -0.308, 0.308, 0.951, 781.083, 735.489)"/><rect class="f" width="36.803" height="0.85" transform="matrix(0.264, -0.965, 0.965, 0.264, 789.983, 768.502)"/><path class="g" d="M781.91,772h14.36l1.994-23.791H779.915Z"/><path class="h" d="M957.58,771.243H763.6a2.549,2.549,0,1,0,0,5.1H957.58a2.549,2.549,0,0,0,0-5.1Z"/><path class="h" d="M950.821,864.783a1.419,1.419,0,0,1-1.37-1.052l-22.474-83.752L909.97,863.646a1.419,1.419,0,1,1-2.782-.566L925.4,773.51a1.418,1.418,0,0,1,1.347-1.136,1.4,1.4,0,0,1,1.415,1.05l24.034,89.571a1.421,1.421,0,0,1-1.371,1.788Z"/><path class="h" d="M817.155,864.783a1.421,1.421,0,0,1-1.37-1.052l-22.473-83.752L776.3,863.646a1.42,1.42,0,0,1-2.782-.566l18.209-89.57a1.417,1.417,0,0,1,1.347-1.136h.044a1.419,1.419,0,0,1,1.37,1.051l24.035,89.571a1.421,1.421,0,0,1-1.372,1.788Z"/><rect class="i" width="7.157" height="22.624" transform="translate(928.137 747.989)"/><rect class="i" width="52.174" height="1.731" transform="translate(905.628 769.459)"/><path class="j" d="M.756,0H81.891a.756.756,0,0,1,.756.756V52.976a.756.756,0,0,1-.756.756H.757A.757.757,0,0,1,0,52.976V.756A.756.756,0,0,1,.756,0Z" transform="translate(890.392 702.684)"/><path class="k" d="M854.782,555.046s2.356-6.508,6.966-6.156,5.4,5.608,5.4,5.608,3.9-3.1,6.113-.271,1.138,7.328-1.283,7.436c0,0,2.9.706,1.752,3.124a8.118,8.118,0,0,1-3.394,3.516Z"/><path class="l" d="M869.005,564.807c2.638,7.454,6.609,13.515,0,16.454a11.722,11.722,0,0,1-3.732,1.064.876.876,0,0,0-.787.613c-.186.65-.488,3.742.3,4.93,0,0-2.55,2.922-10.395-.9,0,0,1.2-6.6.729-9.322-.6-3.411-5.851-13.754-2.34-16,3.217-2.061,10.148-8.991,14.952.21A22.81,22.81,0,0,1,869.005,564.807Z"/><path class="i" d="M866.07,560.393c11.492-1.3-11.288-5.347-11.288-5.347s-1.133-3.569-4.437-2.726-4.266,4.261-3.375,5.527c0,0-3.774-.337-5.1,4.177s3.056,6.129,3.056,6.129a11.854,11.854,0,0,0-.084,4.366c.5,1.927,3.184,5.021,6.605,4.534a41.4,41.4,0,0,0,6.2-1.389s-6.576-5.3-3.815-7.535,3.639.442,4.825,2.06S857.991,561.306,866.07,560.393Z"/><path class="m" d="M854.779,584.577s-23.79-8.287-38.492,3.446c-12.246,9.775-14.83,25.311-13.95,36.131.905,11.129,6.093,16.9,6.093,16.9l4.709-1.6s-4.161-18.472,6.125-28.256,17.518-.172,19.72,4.05c4.293,8.231,9.06,28.726,9.06,28.726l32.689-2.938s-3.488-39.005,4.905-40.068c9.507-1.205,22.683-10.031,29.661-24.56,4.281-8.914,4.3-30.118,4.3-30.118l-5.558.246s-3.263,10.659-11.477,25.836c-6.177,11.412-27.159,6.4-38.276,13.3A7.156,7.156,0,0,1,854.779,584.577Z"/><path class="n" d="M878.986,633.591s19.838-10.2,34.755-5.136,14.793,37.755,1.2,68.377l-5.7,13.567-9.795-1.986s7.255-49.466,2.921-49.516-23.452,6.609-32.1,12.8c-3.9,2.794-12.16,15.251-15.106,32.061-3.586,20.462-.865,43.682-6.921,59.766l-6.615.308s-10.9-30.9-10.7-62.872c.151-24.206,8.559-46.241,16.894-57.126Z"/><path class="o" d="M861.091,592.833c.985,5.213,3.8,16.476,10.712,24.184a.293.293,0,0,1,.048.312l-4.432,9.573a.233.233,0,0,1-.405.042l-6.6-8.493a.3.3,0,0,1-.061-.185l.254-25.4A.244.244,0,0,1,861.091,592.833Z"/><path class="l" d="M813.139,639.454s7.91,2.573,7.422,4.126-4.221.187-4.221.187a19.891,19.891,0,0,1,.232,4.027c-.152,1.678-7.85,1.8-8.721,1-1.024-.941.579-7.737.579-7.737Z"/><path class="l" d="M914.039,546.536s-3.122-11.8-.436-9.831,2.584,2.809,2.584,2.809,7.031-11.171,8.333-9.976,1.764,5.351.992,6.778-5.915,9.974-5.915,9.974Z"/><path class="k" d="M909.219,709.87s13.7,7.144,12.692,8.134-15.6-2.617-24.283-3.272c-3.126-.235,1.819-6.319,1.819-6.319Z"/><path class="i" d="M848.427,762.667s-1.407,4.611-9.884,7.237c-9.384,2.908-19.064,3.456-16.236.721,2.757-2.666,19.454-7.662,19.454-7.662Z"/><path class="o" d="M857.519,586.484,862.99,586a.519.519,0,0,1,.526.711l-2.26,5.581a.518.518,0,0,1-.918.082l-3.212-5.094A.519.519,0,0,1,857.519,586.484Z"/><ellipse class="c" cx="73.031" cy="9.385" rx="73.031" ry="9.385" transform="translate(1044.206 955.39)"/><path class="l" d="M1026.794,743.81s-6.218-16.427-7.725-11.878-.683,5.448-.683,5.448-17.621-7.212-18.149-4.725,2.41,7.741,4.512,8.767,15.308,6.741,15.308,6.741Z"/><path class="p" d="M1108.831,730.1s-14.442,2.144-24.22,7.879-25.75,18.729-42.047,11.257-16.95-8.439-16.95-8.439l-5.541,7.465s27.193,28.486,51.965,18.416,31.8-8.02,31.8-8.02Z"/><path class="k" d="M1125.8,682.074s-2.91-6.8-9.023-6.3a7.984,7.984,0,0,0-7.37,5.572s-1.645-1.065-5.965,1.251c-2.727,1.461-3.667,8.522-.459,8.664,0,0-3.212,2.156-1.7,5.495s9.656,1.434,9.656,1.434Z"/><path class="l" d="M1106.234,693.37c-4.029,11.349-10.095,20.576-.007,25.05a17.875,17.875,0,0,0,5.7,1.619,1.338,1.338,0,0,1,1.2.935c.283.989.746,5.7-.466,7.5,0,0,3.9,4.45,15.878-1.367,0,0-1.84-10.045-1.113-14.192.91-5.192,8.936-20.939,3.573-24.364-4.913-3.138-15.5-13.687-22.839.32A34.722,34.722,0,0,0,1106.234,693.37Z"/><path class="k" d="M1118.41,681.853s8.889-6.738,15.829-1.2c4.335,3.457,1.816,13.226.815,14.1,0,0,4.482,2.082,4.238,5.687s-3.912,7.665-11.382,10.583c0,0-4.693.574-2.115-6.248s-1.334-9.5-4.268-6.092c-1.466,1.706-1.542,4.458-1.955,5.848s-2.264.407-2.264.407,4.243-11.128-.536-13.077-11.623-1.1-11.623-1.1l6.926-11.411Z"/><path class="k" d="M1102.052,703.96l-1.1,4.419s-10.229,6.707-4.687,11.743,23.142,4.71,23.305-5.2.611-16.609.611-16.609-1.752,6.051-4.36,8.487S1111.663,701.465,1102.052,703.96Z"/><path class="l" d="M1101.518,707.171c-.337,1.125,1.015,2.52,3.02,3.118s3.9.17,4.241-.954-1.014-2.521-3.02-3.118S1101.856,706.047,1101.518,707.171Z"/><path class="m" d="M1128.542,727.11s24.032-.166,18.9,27.61a441.865,441.865,0,0,0-6.356,51.167l-39.617,1.462s-8.3-46.294-5.608-59.451,17.2-20.283,17.2-20.283Z"/><path class="k" d="M1100.565,951.6s4.682,10.169,3,10.887c-3.71,1.585-25.514-.549-34.331,0-7.683.479,23.527-10.887,23.527-10.887Z"/><path class="k" d="M1218.587,837.327l6.625-6.906a2.008,2.008,0,0,1,3.192.379c3.577,6.193,13.308,22.939,16.265,26.97,4.543,6.193-21.878-13.891-21.878-13.891Z"/><path class="c" d="M1100.381,800.944s-32.052,43.724-27.163,77.115,19.231,77.276,19.231,77.276,9.844,2.221,10.756-13c.414-6.9-1.189-53.248,3.868-64.222,4.664-10.12,34.353-76.578,34.353-76.578Z"/><path class="q" d="M1164.923,889.793c41.032-10.224,67-55.065,58.679-54.578s-55.445,34.4-65.148,18.419-17.028-52.1-17.028-52.1l-41.045-.591S1120.183,900.941,1164.923,889.793Z"/><path class="k" d="M1115.553,738.815c-3.39,8.547-11.9,26.789-26.214,37.639a.5.5,0,0,0-.184.514l4.432,17.744a.4.4,0,0,0,.677.205l14.056-12.284a.518.518,0,0,0,.166-.295l7.885-43.3A.424.424,0,0,0,1115.553,738.815Z"/><path class="k" d="M1121.995,728.347l-9.471-1.23a.9.9,0,0,0-.964,1.193l3.532,9.824a.9.9,0,0,0,1.589.206l5.939-8.594A.9.9,0,0,0,1121.995,728.347Z"/><rect class="g" width="80.588" height="54.314" transform="translate(1171.266 829.798) rotate(-161.866)"/><rect class="m" width="15.544" height="29.689" transform="matrix(-0.95, -0.311, 0.311, -0.95, 1127.239, 802.422)"/><path class="l" d="M1158.12,809.584s-11.07,13.661-6.371,12.653,5.06-2.171,5.06-2.171,2.675,18.8,5.094,17.992,5.48-5.99,5.3-8.316-1.911-16.57-1.911-16.57Z"/><path class="m" d="M1137.133,729.027s54.309,7.985,48.018,46.245c-2.926,17.8-19.749,38.774-19.749,38.774l-7.761-3.756s10.138-36.862,5.466-39.26-22.257-9.11-22.257-9.11Z"/><path class="m" d="M744.494,708.269s-26.153,8.122-27.21,38.313L735.7,764.763s.324-31.471,24.015-34.339Z"/><path class="p" d="M670.411,748.747a124.563,124.563,0,0,1,19.471,17.975c4.884,5.514,27.4-10.146,27.4-10.146l3.663,3.848s-16.043,18.7-27.263,18.783-23.611-6.759-23.611-6.759Z"/><path class="r" d="M679.289,707.529s6.9,1.889,6.06,5.325-2.717,3.607-2.717,3.607,3.135,4.809-1.671,6.7-14.837,2.062-14.837,2.062Z"/><path class="l" d="M717.284,756.576s5.075-10.969,6-10.1c1.207,1.126-.6,5.058-.253,5.368.315.278,4.138,4.546,4.138,4.546l-6.226,4.037Z"/><path class="l" d="M678.272,714.775c3.045,9.292,7.932,16.947-.958,20.194a16.45,16.45,0,0,1-4.988,1.1,1.155,1.155,0,0,0-1.074.71c-.283.787-.864,4.566.114,6.066,0,0-3.536,3.448-13.667-1.669,0,0,1.976-8.031,1.507-11.4-.586-4.218-6.916-17.2-2.15-19.769S672.771,697.989,678.272,714.775Z"/><path class="m" d="M676.516,799.285c-2.557-.312-21.164,1.685-21.225-1.353-.479-23.919-8.461-48.029,3.163-57.346l12.686,1.653a46.777,46.777,0,0,0,6.472,12.595c5.087,6.871,11.984,12.894,4.228,21.159C677.29,780.843,676.516,799.285,676.516,799.285Z"/><path class="m" d="M654.525,753.048s-7.494,39.265,15.111,45.156,36.232-8.224,36.232-8.224l-.877-5.623s-29,5.922-32.056-.585S666.7,739.807,654.525,753.048Z"/><path class="l" d="M704.991,784.357s7.39-2.006,9.616-1.79.119,1.671-1.429,2.354-.318.171-.318.171,12.844,3.2,11.409,5.05-13.091,3.62-19.278.652Z"/><path class="i" d="M696.114,934.9s-7.69,10.254-2.563,11.678,11.393,2.848,17.944,6.266,9.4.854,9.4.854a93.753,93.753,0,0,1-9.115-6.551c-2.848-2.563-8.259-9.968-8.259-9.968Z"/><path class="i" d="M593.153,830.17s1.566-4.13-.285-5.269-11.393,1.424-15.1-.285-6.835,2.279-4.272,1.994,13.244,5.127,15.665,5.839S593.153,830.17,593.153,830.17Z"/><path class="s" d="M653.392,813.224s-7.975,38.165-20.507,38.165-41.014-25.064-43.862-21.076,22.216,41.014,41.583,44.431,40.444-22.215,40.444-22.215Z"/><path class="t" d="M655.259,796.715s-10.317,17.695-7.279,28.329,36.292,97.45,45,107.295c4.368,4.937,13.577,15.57,10.539-.38s-27-132.674-27-132.674Z"/><path class="r" d="M677.839,711.475a20.369,20.369,0,0,1-3.6,5.034c-2.02,1.849-7.067,2.312-7.067,2.312s1.913,3.484,1.32,6.652c-.7,3.717-9.046,10.1-18.266,9.293-7.877-.688-12.792-5.835-18.439-3.221-10.959,5.072-20.926,1.2-20.179-3.718.306-2.011-6.385-5.422-12.44-2.894-8.365,3.493-21.922-1.438-18.605-8.116,2.586-5.2,14.567-5.342,14.567-5.342s.072-6.215,5.913-7.191c8.425-1.408,11.827,2.671,11.827,2.671s5.336-6.164,13.7-6.575,16.442,3.9,16.442,3.9,10.89-10.376,17.885-2.979a12.38,12.38,0,0,1,9.374-3.545c6.923.411,6.923,4.88,6.923,4.88s6.06-1.284,6.707,3.185C684.618,710.807,677.839,711.475,677.839,711.475Z"/></g></svg>