<svg xmlns="http://www.w3.org/2000/svg" xmlns:xlink="http://www.w3.org/1999/xlink" width="228.682" height="313.626" viewBox="0 0 228.682 313.626"><defs><style>.a{fill:#ff0064;}.b,.i{fill:none;}.b,.c{stroke:#000;stroke-linecap:round;stroke-miterlimit:10;}.b{stroke-width:6px;}.c{fill:#fff;stroke-width:4px;}.d,.e{fill:url(#a);}.e,.f,.g{fill-rule:evenodd;}.f,.h{fill:url(#d);}.g{fill:url(#f);}</style><linearGradient id="a" y1="0.5" x2="1" y2="0.5" gradientUnits="objectBoundingBox"><stop offset="0" stop-color="#fff"/><stop offset="1" stop-color="#fff"/></linearGradient><linearGradient id="d" x1="0" y1="0.5" x2="1" y2="0.5" xlink:href="#a"/><linearGradient id="f" x1="0" y1="0.5" x2="1" y2="0.5" xlink:href="#a"/></defs><g transform="translate(-373.036 -2950.55)"><path class="a" d="M524.3,3082.532l44.508,17.256s8.622,2.059,10.631,17.067,5.724,30.818,5.724,30.818,2.363,8.5-9.116,12.211-29.329,7.954-29.329,7.954v78.814s-.866,6.077-11.427,6.077H436.271s-7.389,2.585-7.389-9.343v-75.548L390.576,3154.8l7.183-45.562s1.342-8.734,11.993-12.47l41.862-14.24,5.9-10.507,27.485,26.75,31.145-27.052Z"/><path class="b" d="M395.365,3158.358s-10.138,33.411,33.715,41.181"/><path d="M559.228,2992.718a2.394,2.394,0,0,1,2.394,2.394h4.789a7.183,7.183,0,0,0-4.789-6.742v-2.834h-4.788v2.834a7.165,7.165,0,0,0,2.394,13.924,2.395,2.395,0,1,1-2.394,2.394h-4.788a7.183,7.183,0,0,0,4.788,6.742v2.835h4.788v-2.835a7.165,7.165,0,0,0-2.394-13.924,2.394,2.394,0,0,1,0-4.788Z"/><path d="M571.2,2975.959H547.258a11.984,11.984,0,0,0-11.97,11.971v23.941a11.99,11.99,0,0,0,9.576,11.731v7.421a2.394,2.394,0,0,0,3.89,1.87l11.315-9.052H571.2a11.984,11.984,0,0,0,11.97-11.97V2987.93A11.985,11.985,0,0,0,571.2,2975.959Zm7.182,35.912a7.183,7.183,0,0,1-7.182,7.182H559.228a2.4,2.4,0,0,0-1.5.524l-8.08,6.464v-4.594a2.394,2.394,0,0,0-2.394-2.394,7.182,7.182,0,0,1-7.182-7.182V2987.93a7.181,7.181,0,0,1,7.182-7.182H571.2a7.182,7.182,0,0,1,7.182,7.182Z"/><path d="M564.017,3028.629v4.788h-4.788v4.788h4.788v4.788H568.8v-4.788h4.788v-4.788H568.8v-4.788Z"/><rect width="4.788" height="4.788" transform="translate(556.834 3054.964)"/><rect width="4.788" height="4.788" transform="translate(549.652 3062.146)"/><rect width="4.788" height="4.788" transform="translate(564.017 3062.146)"/><rect width="4.788" height="4.788" transform="translate(556.834 3069.329)"/><path d="M397.759,3011.871h12.162L422.7,3021a2.395,2.395,0,0,0,3.785-1.949v-8.217a11.942,11.942,0,0,0,7.182-10.936v-11.97a11.986,11.986,0,0,0-11.971-11.971h-23.94a11.986,11.986,0,0,0-11.971,11.971v11.97A11.986,11.986,0,0,0,397.759,3011.871Zm-7.183-23.941a7.182,7.182,0,0,1,7.183-7.182H421.7a7.182,7.182,0,0,1,7.183,7.182v11.97a7.161,7.161,0,0,1-5.387,6.919,2.4,2.4,0,0,0-1.8,2.318v5.267l-9.621-6.874a2.393,2.393,0,0,0-1.391-.447H397.759a7.183,7.183,0,0,1-7.183-7.183Z"/><path d="M402.547,2990.324a3.483,3.483,0,0,0,.479-.048,1.5,1.5,0,0,0,.431-.144,1.782,1.782,0,0,0,.43-.215l.36-.287.287-.359a1.812,1.812,0,0,0,.215-.431,1.53,1.53,0,0,0,.144-.431,3.513,3.513,0,0,0,.048-.479,2.517,2.517,0,0,0-.694-1.7,2.438,2.438,0,0,0-2.61-.5,2.159,2.159,0,0,0-1.293,1.293,2.371,2.371,0,0,0,2.155,3.3Z"/><path d="M418.611,2998.2a3.927,3.927,0,0,0-.359-.287,1.807,1.807,0,0,0-.431-.215,1.532,1.532,0,0,0-.431-.144,2.44,2.44,0,0,0-2.179.646,2.469,2.469,0,0,0-.5.791,2.258,2.258,0,0,0,0,1.819,2.762,2.762,0,0,0,.5.79,2.394,2.394,0,0,0,4.094-1.7,2.366,2.366,0,0,0-.191-.909A2.793,2.793,0,0,0,418.611,2998.2Z"/><path d="M400.708,3001.432a2.393,2.393,0,0,0,3.371.307l14.365-11.97a2.394,2.394,0,1,0-2.977-3.751c-.03.023-.059.048-.088.073l-14.364,11.971A2.392,2.392,0,0,0,400.708,3001.432Z"/><rect width="14.365" height="4.788" transform="translate(409.729 3052.57)"/><rect width="4.788" height="4.788" transform="translate(400.153 3026.235)"/><rect width="4.788" height="4.788" transform="translate(395.365 3031.023)"/><rect width="4.788" height="4.788" transform="translate(404.941 3031.023)"/><rect width="4.788" height="4.788" transform="translate(400.153 3035.812)"/><path d="M549.347,3088l-23-9.132a3.259,3.259,0,0,0-.778-1.556c-8.332-9.243-7.794-8.674-8.022-8.879-1.643-1.461-59.035-1.32-60.537-.167-.376.289,0-.073-8.221,9.046a3.26,3.26,0,0,0-.838,2.115l-41.774,16.586a21.066,21.066,0,0,0-12.987,16.263l-5.963,38.155a9.555,9.555,0,0,0,6.764,10.628l31.827,9.228v20.336a3.264,3.264,0,1,0,6.527,0v-54.727a3.264,3.264,0,1,0-6.527,0v13.693l-30.538-8.4,4.36-27.9a14.507,14.507,0,0,1,8.947-11.2l42.986-17.07,21.515,25.728a3.266,3.266,0,0,0,4.2.7l6.628-4.027v34.949a3.264,3.264,0,0,0,6.529,0V3107.4l6.628,4.027a3.269,3.269,0,0,0,4.2-.7l21.852-26.129c24.709,9.724,23.852,9.689,25.02,9.689A3.268,3.268,0,0,0,549.347,3088Zm-123.53,68.36v7.129l-30.009-8.7a3.012,3.012,0,0,1-2.131-3.35l.589-3.761Zm50.477-51.96-20.759-24.823,3.481-3.865c5.605,6.118,19.37,21.133,23.069,25.17Zm10.884-7.623-9.045-10.11-11.719-12.545h41.528l-4.086,4.458-4.424,4.827-1.634,1.634C493.361,3089.877,489.645,3094.081,487.178,3096.772Zm10.884,7.623-5.792-3.518c5.219-5.693,18.464-20.144,23.072-25.17l3.481,3.865Z"/><path class="a" d="M429.08,3194.258a3.643,3.643,0,0,1-3.638-3.64v-20.055l-31.556-9.148a9.933,9.933,0,0,1-7.03-11.047l5.963-38.155a21.439,21.439,0,0,1,13.219-16.553l41.552-16.5a3.64,3.64,0,0,1,.919-2.106c2.482-2.752,4.179-4.641,5.352-5.944a32.327,32.327,0,0,1,2.893-3.128c1.858-1.425,59.448-1.252,61.04.163.149.131.149.131,2.034,2.226l6.018,6.683a3.645,3.645,0,0,1,.822,1.531l22.818,9.06a3.643,3.643,0,0,1-1.345,7.023h-.015c-.762,0-.8-.014-6.08-2.137-3.432-1.379-9.157-3.679-18.81-7.479l-21.679,25.922a3.622,3.622,0,0,1-4.681.775l-6.058-3.68v34.282a3.64,3.64,0,0,1-7.28,0v-34.282l-6.058,3.68a3.618,3.618,0,0,1-4.68-.775l-21.342-25.52-42.734,16.97a14.13,14.13,0,0,0-8.714,10.911l-4.309,27.571,29.741,8.184v-13.2a3.639,3.639,0,1,1,7.278,0v54.727A3.644,3.644,0,0,1,429.08,3194.258Zm55.775-126.547c-13.569,0-26.481.279-27.638.862a36.774,36.774,0,0,0-2.8,3.041c-1.172,1.3-2.87,3.192-5.352,5.944a2.9,2.9,0,0,0-.741,1.873l-.006.248-42,16.678a20.688,20.688,0,0,0-12.755,15.971l-5.963,38.156a9.179,9.179,0,0,0,6.5,10.21l32.1,9.306v20.618a2.889,2.889,0,1,0,5.778,0v-54.727a2.889,2.889,0,1,0-5.778,0v14.185l-31.335-8.622,4.411-28.233a14.887,14.887,0,0,1,9.18-11.493l43.237-17.169,21.69,25.936a2.874,2.874,0,0,0,3.716.615l7.2-4.372v35.615a2.89,2.89,0,0,0,5.78,0v-35.615l7.2,4.372a2.877,2.877,0,0,0,3.717-.616l22.025-26.336.252.1c9.809,3.86,15.6,6.189,19.066,7.58,5.155,2.071,5.2,2.083,5.793,2.083h.01a2.794,2.794,0,0,0,2.838-2.345,2.826,2.826,0,0,0-1.758-3.232h0l-23.191-9.208-.039-.2a2.891,2.891,0,0,0-.69-1.378l-6.017-6.682c-1.787-1.986-1.857-2.063-1.945-2.14C516.242,3068.065,500.132,3067.711,484.855,3067.711Zm-58.663,96.272-30.489-8.839a3.387,3.387,0,0,1-2.4-3.768l.653-4.176,32.232,8.869Zm-31.62-15.837-.524,3.346a2.637,2.637,0,0,0,1.864,2.932l29.53,8.561v-6.345Zm103.571-43.264-6.457-3.922,23.659-25.811,3.974,4.414-.208.249Zm-5.287-4.089,5.125,3.114,20.345-24.326-2.987-3.317Zm-16.643,4.089-21.175-25.319,3.975-4.414,23.657,25.811Zm-20.181-25.3,20.343,24.326,5.125-3.114-22.482-24.529Zm31.143,17.75-9.321-10.419-12.3-13.17H508.8l-9.087,9.914-1.644,1.645c-2.534,2.765-4.843,5.332-6.814,7.524-1.465,1.63-2.744,3.053-3.8,4.2Zm-19.9-22.839,11.131,11.914,8.773,9.807c.995-1.09,2.176-2.4,3.512-3.889,1.972-2.194,4.282-4.763,6.829-7.542l1.644-1.645,7.924-8.645Z"/><path d="M588.476,3150.426l-5.961-38.156a21.067,21.067,0,0,0-12.987-16.261l-7.995-3.175a3.264,3.264,0,0,0-2.409,6.067l7.994,3.176a14.517,14.517,0,0,1,8.948,11.2l4.359,27.9-31.884,8.774v-14.064a3.264,3.264,0,0,0-6.529,0v95.121H432.344V3202.8a3.264,3.264,0,1,0-6.527,0v44.978a7.984,7.984,0,0,0,7.974,7.977H540.565a7.986,7.986,0,0,0,7.976-7.977v-77.111l33.171-9.617A9.552,9.552,0,0,0,588.476,3150.426Zm-154.5,98.8a1.635,1.635,0,0,1-1.633-1.632v-10.058H542.012V3247.6a1.633,1.633,0,0,1-1.633,1.63h-106.4ZM579.9,3154.784l-31.354,9.091v-7.15l32.9-9.052.588,3.761A3.012,3.012,0,0,1,579.9,3154.784Z"/><path class="a" d="M540.565,3256.134H433.791a8.36,8.36,0,0,1-8.349-8.352V3202.8a3.639,3.639,0,1,1,7.278,0v27.833H541.637v-94.746a3.639,3.639,0,1,1,7.278,0v13.571L580,3140.908l-4.307-27.572a14.137,14.137,0,0,0-8.716-10.91l-7.995-3.177a3.639,3.639,0,0,1,2.686-6.764l7.995,3.175a21.44,21.44,0,0,1,13.219,16.553l5.961,38.155h0a9.927,9.927,0,0,1-7.029,11.047l-32.9,9.539v76.829A8.361,8.361,0,0,1,540.565,3256.134Zm-111.485-56.22a2.892,2.892,0,0,0-2.888,2.89v44.978a7.609,7.609,0,0,0,7.6,7.6H540.565a7.609,7.609,0,0,0,7.6-7.6v-77.393l33.443-9.695a9.177,9.177,0,0,0,6.5-10.21h0l-5.961-38.155a20.69,20.69,0,0,0-12.756-15.971l-7.995-3.174a2.888,2.888,0,1,0-2.132,5.369l7.995,3.176a14.89,14.89,0,0,1,9.179,11.493l4.411,28.233-32.682,8.993v-14.556a2.889,2.889,0,1,0-5.778,0v95.5H431.97V3202.8A2.894,2.894,0,0,0,429.08,3199.914Zm4.9,49.692a2.009,2.009,0,0,1-2.007-2.007v-10.432H542.387V3247.6a2.009,2.009,0,0,1-2.008,2.006Zm-1.257-11.689v9.682a1.258,1.258,0,0,0,1.257,1.257h106.4a1.259,1.259,0,0,0,1.258-1.256v-9.682Zm115.445-73.543v-7.934l33.579-9.24.653,4.176a3.387,3.387,0,0,1-2.4,3.768l-.1-.361.1.361Zm.75-7.363v6.365l30.875-8.953a2.635,2.635,0,0,0,1.867-2.931l-.524-3.346Z"/><path class="c" d="M501.81,3082.532v-18.41H472.546v18.41"/><path class="d" d="M506.5,3061.785s-20.638-7.024-40.088,0l11.545,11.038h15.194Z"/><path d="M527.6,3024.723a6.571,6.571,0,0,0-5.3-5.913,5.2,5.2,0,0,0-1.94.1c1.1-3.149,8.368-25.45-2.417-35.869.615-3.282.728-11.831-11.826-19.535a8.286,8.286,0,0,1-3.3-3.768,1.963,1.963,0,0,0-1.573-1.14,2.073,2.073,0,0,0-1.817.769c-.026.033-2.741,3.373-13.768,4.6-1.144.014-27.37.558-31.729,17.646a9.012,9.012,0,0,0-5.092,3.062c-2.722,3.284-3.328,8.527-1.839,15.319l.646,8.19a31.051,31.051,0,0,0,1.769,9.836c-2.467.382-4.5,2.644-4.972,5.605-.433,2.674.235,5.152,1.008,8.022a47.881,47.881,0,0,1,1.807,9.684c.221,3.038.826,6.6,3.572,7.172a3.1,3.1,0,0,0,.644.067,5.6,5.6,0,0,0,3.9-2.265l.372,6.359a13.689,13.689,0,0,0,3.89,7.672c2.751,2.471,12.452,10.726,12.48,10.749l2.083,1.7a13.969,13.969,0,0,0,8.829,3.156h5.636a13.985,13.985,0,0,0,8.884-3.2l5.9-4.883,8.673-7.9c.333-.215,3.244-2.269,3.4-8.118l.251-3.7a5.1,5.1,0,0,0,3.391,1.654,3.379,3.379,0,0,0,.572-.05c2.889-.513,3.677-4.3,4.019-7.1a46.126,46.126,0,0,1,2.394-9.775C527.12,3029.987,527.958,3027.486,527.6,3024.723Zm-75.791-37.488a5.074,5.074,0,0,1,3.687-1.884,2.145,2.145,0,0,0,1.984-1.625c2.66-15.293,27.969-15.827,28.415-15.844l.3-.034c-2.145,2.492-4.6,4.219-10.43,4.645a1.961,1.961,0,0,0,.141,3.916c.048,0,.1,0,.146,0,9.1-.666,12.059-4.527,14.922-8.264l.747-.968a1.944,1.944,0,0,0,.179-.275,25.566,25.566,0,0,0,8.59-3.349,12.006,12.006,0,0,0,1,1.207c-1.363,3.387-4.755,10.219-15.284,13.9a1.961,1.961,0,0,0,.647,3.812,1.889,1.889,0,0,0,.646-.111c11.15-3.9,15.358-10.922,17.2-15.109a28.475,28.475,0,0,1,5.307,4.277c-1.388,3.425-4.825,10.226-15.378,13.875a1.961,1.961,0,1,0,1.283,3.706c10.259-3.547,14.68-9.731,16.781-13.983,2.418,4.378,1.3,7.686,1.229,7.888a1.964,1.964,0,0,0,.584,2.217c8.82,7.266,4.487,24.782,2.7,30.691a12.283,12.283,0,0,0-1.055-3.946,11.346,11.346,0,0,1-1.032-4.642c-.012-1.285,0-2.949.084-4.917a11.567,11.567,0,0,0-4.061-9.293l-.014-.012c-6.325-4.8-22.07,1.539-25.28,2.908l-.309-.007c-.074-.021-1.084-.321-13.7-4.175-4.2-1.288-7.7-1.187-10.374.275a9.84,9.84,0,0,0-4.627,6.237,14.193,14.193,0,0,0-.417,5.116,15.672,15.672,0,0,1-.893,7.3,21.335,21.335,0,0,0-1.8,7.491,27.659,27.659,0,0,1-2.165-10.194l-.689-8.63C449.634,2993.742,449.962,2989.524,451.813,2987.235Zm2.636,53.429a15.288,15.288,0,0,1-2.705,3.737,12.3,12.3,0,0,1-.577-3.347,51.922,51.922,0,0,0-1.932-10.421c-.709-2.631-1.221-4.534-.922-6.377.2-1.248.967-2.287,1.745-2.366.679-.073,1.387.981,1.939,2.344l1.59,7.231a20.681,20.681,0,0,0,1.343,7.308l.073,1.242A1.955,1.955,0,0,0,454.449,3040.664Zm57.156,11.008c-.106,3.809-1.611,5-1.867,5.2l-8.858,8.03-5.834,4.826a10.035,10.035,0,0,1-6.385,2.3h-5.636a10.051,10.051,0,0,1-6.344-2.264l-2.054-1.681s-9.638-8.2-12.372-10.658a9.789,9.789,0,0,1-2.607-5.118l-.821-14.089a1.965,1.965,0,0,0-.153-.653,16.582,16.582,0,0,1-1.163-6.169c.155-1.313,1-9,.227-12.205-.424-1.752.618-5.121,1.357-6.794a19.3,19.3,0,0,0,1.231-9.284,10.257,10.257,0,0,1,.287-3.705,5.948,5.948,0,0,1,2.734-3.852c1.721-.941,4.194-.927,7.345.033,13.435,4.108,13.775,4.2,14.153,4.266l1.245.091a2.069,2.069,0,0,0,.931-.16c6.464-2.837,18.067-6.292,21.723-3.555a7.719,7.719,0,0,1,2.538,6.026c-.087,2.049-.1,3.78-.089,5.113a15.246,15.246,0,0,0,1.386,6.237,8.335,8.335,0,0,1,.747,3.143c.088,2.391.158,5.745-.015,8.156a8.551,8.551,0,0,0,.146,2.3,1.958,1.958,0,0,0,.624,1.078c-.281,1.285-.6,3.2-1.074,6.006-.253,1.52-.431,3.043-.536,4.582Zm10.823-20.035a50.225,50.225,0,0,0-2.569,10.55,25.5,25.5,0,0,1-.754,3.656,11.747,11.747,0,0,1-2.922-3.746l.2-2.962c.1-1.413.259-2.806.493-4.2.52-3.094.811-4.812.97-5.743a1.955,1.955,0,0,0,.352-.785,14.361,14.361,0,0,1,.549-1.93,8.826,8.826,0,0,0,.766-1.769c.634-1.2,1.427-2.114,2.264-2.008a2.763,2.763,0,0,1,1.937,2.527C523.956,3027.093,523.314,3029,522.428,3031.637Z"/><path d="M464.91,3020.821l2.471-2.059a2.484,2.484,0,0,1,1.965-.587c6.735.85,9.028,2.081,9.239,2.093a1.961,1.961,0,0,0,3.921,0c0-2.043-1.439-4.566-12.667-5.986a6.489,6.489,0,0,0-4.967,1.466l-2.476,2.061a1.962,1.962,0,0,0,2.514,3.012Z"/><path d="M491.189,3022.425a1.759,1.759,0,0,0,1.908-1.765c.316-.4,2.61-1.635,9.344-2.485a2.53,2.53,0,0,1,1.965.584l2.471,2.062a1.961,1.961,0,0,0,2.513-3.012l-2.475-2.064a6.508,6.508,0,0,0-4.967-1.462c-11.228,1.419-12.667,3.942-12.667,5.985A2.094,2.094,0,0,0,491.189,3022.425Z"/><path d="M510.027,3045.235a2.1,2.1,0,0,0-2.485.84c-2.247.479-3.976-1.563-5.827-4.111-.323-.447-.62-.854-.89-1.189-2.684-3.326-5.64-5.073-8.729-4.922a10,10,0,0,0-6.267,2.633,9.993,9.993,0,0,0-6.265-2.633c-3.122-.118-6.047,1.6-8.729,4.919-.273.338-.57.745-.893,1.192-1.851,2.548-3.555,4.631-6.006,4a1.961,1.961,0,0,0-3.586,1.43,6.119,6.119,0,0,0,2.738,3.974c2.354,1.529,6.076,1.886,10.216.981a8.712,8.712,0,0,0,1.946-.7c1.226,2.124,3.337,4.325,6.323,4.325l.1,0h8.291c3.367.185,5.5-2.177,6.617-4.234a8.759,8.759,0,0,0,1.786.613,20.1,20.1,0,0,0,4.294.49,10.9,10.9,0,0,0,5.916-1.472,6.12,6.12,0,0,0,2.739-3.974A1.956,1.956,0,0,0,510.027,3045.235Zm-20,6.813h-8.424c-1.316,0-2.32-1.275-2.932-2.346,3.825-2.07,5.27-2.071,7.155-2.071,1.87,0,3.525,0,7.324,2.12C492.63,3050.674,491.591,3052.048,490.03,3052.048Zm9.174-3.531a5.568,5.568,0,0,1-1.714-.74c-5.959-3.775-8.592-4.068-11.661-4.068-3.084,0-5.406.273-11.628,4.046a5.867,5.867,0,0,1-1.74.762,15.377,15.377,0,0,1-3.771.4,17.411,17.411,0,0,0,4.424-4.647c.28-.385.537-.739.771-1.029,1.877-2.325,3.742-3.325,5.583-3.464,2.727.036,4.776,2.678,4.8,2.707a1.962,1.962,0,0,0,3.136-.009c.019-.026,2.057-2.648,4.769-2.7,1.87-.045,3.723,1.13,5.605,3.464.234.29.49.644.77,1.03a17.437,17.437,0,0,0,4.424,4.646A14.8,14.8,0,0,1,499.2,3048.517Z"/><path d="M490.49,3059.926H480.478a1.966,1.966,0,0,0-1.848,2.619l1,2.816a1.959,1.959,0,0,0,1.848,1.307h8.01a1.96,1.96,0,0,0,1.849-1.307l1-2.816a1.965,1.965,0,0,0-1.848-2.619Z"/><path class="b" d="M578.381,3158.358s10.017,41.068-31.666,43.093"/><path class="e" d="M510.451,3126.068v7a3.364,3.364,0,0,0,2.531,3.127v5.956c-.015,1.6-.233,1.637,1.043,1.637v-8.635c-1.365,0-2.531-.529-2.531-2.233v-6.7a2.155,2.155,0,0,1,2.233-2.233h5.062c1.29,0,2.084,1.225,2.084,2.68,0,2.18.408,6.83-.7,7.935-.748.746-1.981.267-1.981,1v7.742c0,.547.318.447,1.043.447v-7.593c1.564-.13,2.679-1.833,2.679-3.573v-6.1c0-1.874-1.266-3.573-2.977-3.573h-5.509a3.217,3.217,0,0,0-2.977,3.126"/><path class="d" d="M518.75,3144.542a1.3,1.3,0,0,1-.98-.316,1.209,1.209,0,0,1-.327-.888V3135.6c0-1.018.972-1.174,1.387-1.241a1.467,1.467,0,0,0,.814-.287c.664-.664.56-4.2.51-5.9-.017-.566-.032-1.083-.032-1.507,0-.959-.458-1.93-1.334-1.93h-5.062a1.406,1.406,0,0,0-1.483,1.483v6.7c0,.733.212,1.483,1.781,1.483h.75v10.135h-.75c-.658,0-1.133,0-1.492-.371s-.335-.813-.315-1.438c.005-.166.012-.36.014-.585v-5.409a4.121,4.121,0,0,1-2.532-3.667v-7a3.955,3.955,0,0,1,3.728-3.876h5.509c2.055,0,3.727,1.939,3.727,4.323v6.1a4.292,4.292,0,0,1-2.679,4.182v7.734l-1.026,0Z"/><path class="f" d="M502.56,3129.2v5.657a3.028,3.028,0,0,0,2.531,2.829v6.1c1.506,0,1.042.524,1.042-6.7,0-.93-2.53.135-2.53-2.531,0-1.992-.347-5.529.506-6.491.837-.943,2.218-.655,3.96-.655v-1.042c-2.03,0-3.57-.339-4.725.932a2.912,2.912,0,0,0-.784,1.9"/><path class="d" d="M505.56,3144.543c-.068,0-.137,0-.2,0l-1.015,0v-6.251a3.833,3.833,0,0,1-2.531-3.432V3129.2a3.692,3.692,0,0,1,.978-2.4c1.18-1.3,2.666-1.249,4.246-1.2.33.01.674.021,1.035.021h.75v2.542h-.75c-.355,0-.7-.011-1.02-.022-1.241-.043-1.964-.044-2.379.425-.475.536-.393,3.144-.349,4.545.016.526.032,1.022.032,1.448,0,1.062.4,1.144,1.14,1.292.452.091,1.39.28,1.39,1.239,0,1.725.026,3.006.046,3.958.045,2.144.057,2.721-.394,3.168A1.28,1.28,0,0,1,505.56,3144.543Z"/><path class="g" d="M524.3,3127.408c1.741,0,3.123-.288,3.96.655.852.962.506,4.5.506,6.491,0,2.666-2.531,1.6-2.531,2.531v6.253c0,.547.318.447,1.042.447v-6.1a3.028,3.028,0,0,0,2.531-2.829V3129.2a3.029,3.029,0,0,0-2.531-2.829H524.3Z"/><path class="d" d="M526.79,3144.542a1.3,1.3,0,0,1-.981-.316,1.209,1.209,0,0,1-.327-.888v-6.253c0-.959.938-1.148,1.389-1.239.737-.148,1.142-.23,1.142-1.292,0-.425.016-.92.032-1.445.044-1.4.125-4.012-.35-4.548-.415-.47-1.141-.468-2.378-.425-.325.011-.665.022-1.021.022h-.75v-2.542h3.728a3.779,3.779,0,0,1,3.281,3.579v5.657a3.833,3.833,0,0,1-2.531,3.432v6.251l-1.026,0Z"/><path class="e" d="M516.14,3113a3.856,3.856,0,1,0,3.857,3.857A3.857,3.857,0,0,0,516.14,3113Zm0,6.677a2.821,2.821,0,1,1,2.821-2.82A2.821,2.821,0,0,1,516.14,3119.675Z"/><path class="h" d="M516.14,3121.461a4.606,4.606,0,1,1,4.606-4.606A4.611,4.611,0,0,1,516.14,3121.461Zm0-6.677a2.071,2.071,0,1,0,2.071,2.071A2.072,2.072,0,0,0,516.14,3114.784Z"/><path class="g" d="M525.477,3116.372a3.856,3.856,0,1,0,3.856,3.856A3.856,3.856,0,0,0,525.477,3116.372Zm0,6.677a2.821,2.821,0,1,1,2.821-2.821A2.821,2.821,0,0,1,525.477,3123.049Z"/><path class="d" d="M525.477,3124.834a4.606,4.606,0,1,1,4.606-4.606A4.612,4.612,0,0,1,525.477,3124.834Zm0-6.676a2.071,2.071,0,1,0,2.07,2.07A2.072,2.072,0,0,0,525.477,3118.158Z"/><path class="g" d="M506.878,3116.372a3.856,3.856,0,1,0,3.856,3.856A3.856,3.856,0,0,0,506.878,3116.372Zm0,6.677a2.821,2.821,0,1,1,2.821-2.821A2.821,2.821,0,0,1,506.878,3123.049Z"/><path class="d" d="M506.878,3124.834a4.606,4.606,0,1,1,4.606-4.606A4.611,4.611,0,0,1,506.878,3124.834Zm0-6.676a2.071,2.071,0,1,0,2.071,2.07A2.073,2.073,0,0,0,506.878,3118.158Z"/><rect class="i" width="228.682" height="313.627" transform="translate(373.036 2950.55)"/></g></svg>